<svg xmlns="http://www.w3.org/2000/svg" width="80" height="80"><path data-name="Rectangle 202" fill="#dad4c8" d="M0 0h80v80H0z"/><path data-name="Path 124" d="M55.815 24.904h-8.11a1.588 1.588 0 1 0 0 3.175h6.522v27.745H26.176V28.079H32.7a1.588 1.588 0 1 0 0-3.175h-8.112A1.588 1.588 0 0 0 23 26.496v30.92a1.588 1.588 0 0 0 1.588 1.58h31.227a1.588 1.588 0 0 0 1.585-1.584V26.496a1.588 1.588 0 0 0-1.588-1.588" fill="#424242"/><path data-name="Path 125" d="M33.821 40.149a1.59 1.59 0 0 0-2.246 2.25l7.5 7.5.01.009c.034.034.07.066.107.1l.022.017q.044.035.091.067l.045.029.077.045.048.027c.038.019.077.038.116.054q.07.029.142.051h.007c.044.013.089.024.133.033h.019c.037.007.074.012.111.016l.042.006h.176c.044 0 .088 0 .131-.006h.021a1.582 1.582 0 0 0 .948-.455l7.5-7.5a1.588 1.588 0 0 0-2.245-2.245l-4.787 4.795V22.588a1.588 1.588 0 0 0-3.175 0v22.354Z" fill="#424242"/></svg>