<svg xmlns="http://www.w3.org/2000/svg" width="80" height="80"><defs><clipPath id="a"><path data-name="Rectangle 204" fill="#424242" d="M0 0h42.383v41.214H0z"/></clipPath></defs><g data-name="Group 91"><path data-name="Rectangle 202" fill="#dad4c8" d="M0 0h80v80H0z"/><g data-name="Group 90"><g data-name="Group 89" clip-path="url(#a)" transform="translate(19 10.393)"><path data-name="Path 123" d="M2.626 41.214a3.693 3.693 0 0 1-.668-.058 2.25 2.25 0 0 1-1.871-1.612c-.476-1.752 1-4.273 4.061-6.917a29.006 29.006 0 0 1 10.629-5.661 59.961 59.961 0 0 0 3.766-8.4 28.014 28.014 0 0 1-2.955-6.366c-1.523-4.983-.748-9.861.842-11.521a1.855 1.855 0 0 1 1.832-.626C19.438.357 20.4 1.887 21.11 4.6c1.131 4.3.335 9.22-1.219 13.86a40.206 40.206 0 0 0 5.451 6.769 37.715 37.715 0 0 1 12.329 1.229 9.624 9.624 0 0 1 3.8 2.141 2.491 2.491 0 0 1 .807 2.616c-.625 1.819-3.862 2.868-8.627 1.23a25.959 25.959 0 0 1-8.751-5.982q-.785.042-1.593.114a41.172 41.172 0 0 0-7.664 1.394 72.271 72.271 0 0 1-4.8 7.651c-2.874 3.938-6.06 5.592-8.217 5.592m11.3-12.7a27.148 27.148 0 0 0-8.986 5.028c-3.122 2.7-3.95 4.707-3.685 5.684a1.047 1.047 0 0 0 .922.739c1.75.323 4.954-1.311 7.689-5.059a71.168 71.168 0 0 0 4.054-6.39M26.568 26.4a23.269 23.269 0 0 0 7.471 4.9c4.041 1.389 6.713.615 7.089-.478.184-.534-.254-1.094-.531-1.381a8.309 8.309 0 0 0-3.32-1.841 35.587 35.587 0 0 0-10.71-1.2m-7.177-6.522a59.732 59.732 0 0 1-2.963 6.629A43.056 43.056 0 0 1 23.2 25.37q.287-.025.573-.047a42.013 42.013 0 0 1-4.387-5.445m-1.54-18.669a.776.776 0 0 0-.542.3c-1.181 1.233-2.032 5.509-.559 10.33a26.064 26.064 0 0 0 2.3 5.209c1.282-4.149 1.873-8.432.9-12.142-.66-2.509-1.456-3.548-1.98-3.683a.422.422 0 0 0-.113-.016" fill="#424242"/></g></g><path data-name="Rectangle 205" fill="#424242" d="M0 57h80v23H0z"/><text transform="translate(25 73)" fill="#dad4c8" font-size="14" font-family="Montserrat-Bold, Montserrat" font-weight="700"><tspan x="0" y="0">PDF</tspan></text></g></svg>