<svg xmlns="http://www.w3.org/2000/svg" width="133" height="179.334"><defs><clipPath id="a"><path data-name="Rectangle 204" fill="#424242" d="M0 0h133v129.334H0z"/></clipPath></defs><g data-name="Group 818"><g data-name="Group 90"><g data-name="Group 89" clip-path="url(#a)"><path data-name="Path 123" d="M8.241 129.334a11.589 11.589 0 0 1-2.1-.183 7.061 7.061 0 0 1-5.87-5.06c-1.494-5.5 3.152-13.41 12.744-21.706 10.15-8.779 21.958-14.308 33.356-17.765a188.162 188.162 0 0 0 11.822-26.371 87.909 87.909 0 0 1-9.277-19.978c-4.778-15.637-2.348-30.943 2.642-36.155A5.823 5.823 0 0 1 57.31.168c3.689.954 6.7 5.756 8.936 14.27 3.548 13.485 1.05 28.934-3.826 43.493a126.168 126.168 0 0 0 17.106 21.24c16.686-.731 31.375 1.344 38.689 3.858 5.374 1.847 9.381 4.108 11.91 6.72 3.437 3.55 3.062 6.668 2.532 8.21-1.963 5.708-12.118 9-27.074 3.86-8.164-2.806-18.076-9.678-27.428-18.777q-2.464.133-5 .356A129.2 129.2 0 0 0 49.1 87.774a226.79 226.79 0 0 1-15.075 24.011c-9.018 12.356-19.016 17.549-25.786 17.549m35.45-39.855A85.192 85.192 0 0 0 15.5 105.258c-9.8 8.473-12.4 14.77-11.563 17.838a3.284 3.284 0 0 0 2.893 2.319c5.492 1.012 15.545-4.113 24.128-15.874l.007-.01a223.332 223.332 0 0 0 12.726-20.053m39.681-6.626c8.1 7.421 16.448 12.967 23.445 15.373 12.68 4.358 21.067 1.928 22.246-1.5.577-1.675-.8-3.434-1.668-4.333-1.45-1.5-4.434-3.713-10.415-5.769-5.451-1.874-18.073-4.058-33.608-3.77M60.849 62.378a187.443 187.443 0 0 1-9.3 20.8 135.114 135.114 0 0 1 21.27-3.567q.9-.08 1.8-.148a131.839 131.839 0 0 1-13.77-17.085M56 3.8a2.435 2.435 0 0 0-1.7.948c-3.7 3.869-6.377 17.288-1.754 32.417a81.79 81.79 0 0 0 7.209 16.345c4.024-13.019 5.879-26.461 2.815-38.1C60.5 7.532 58 4.272 56.358 3.846A1.326 1.326 0 0 0 56 3.8" fill="#424242"/></g></g><text transform="translate(33 171.334)" fill="#424242" font-size="30" font-family="Montserrat-Bold, Montserrat" font-weight="700"><tspan x="0" y="0">PDF</tspan></text></g></svg>