<svg xmlns="http://www.w3.org/2000/svg" viewBox="0 0 82 26.58"><defs><clipPath id="a"><path data-name="Rectangle 406" fill="#424242" d="M0 0h82v26.58H0z"/></clipPath></defs><g data-name="Group 162"><g data-name="Group 161" clip-path="url(#a)" fill="#424242" fill-rule="evenodd"><path data-name="Path 205" d="M78.026 7.992a3.974 3.974 0 0 0 0-7.947H65.447a3.973 3.973 0 0 0-3.227 1.666c-.021.029-.045.057-.065.087s-.023.04-.036.059a3.937 3.937 0 0 0-.645 2.158v18.547a3.974 3.974 0 0 0 7.947 0v-4.051h5.726a3.974 3.974 0 0 0 0-7.947h-5.726V7.992Z"/><path data-name="Path 206" d="M55.602 18.586a3.985 3.985 0 0 0-3.974 3.974 3.974 3.974 0 0 0 7.947 0 3.985 3.985 0 0 0-3.973-3.974"/><path data-name="Path 207" d="M58.414 1.2a3.984 3.984 0 0 0-5.619 0l-9.046 9.046a1.978 1.978 0 0 1-1.25.445 1.979 1.979 0 0 1-1.377-.558L32.189 1.2a3.985 3.985 0 0 0-5.619 0 3.946 3.946 0 0 0-1.128 2.321c0 .036-.012.072-.016.109s0 .057 0 .086c-.008.1-.016.2-.016.308v18.538a3.974 3.974 0 0 0 7.948 0v-8.956l6.339 6.339a3.985 3.985 0 0 0 5.607-.013l13.11-13.111a3.985 3.985 0 0 0 0-5.619"/><path data-name="Path 208" d="M17.1 14.547a1.976 1.976 0 0 1-.445-1.25 1.979 1.979 0 0 1 .558-1.377l5.141-5.142a3.985 3.985 0 0 0 0-5.619 3.985 3.985 0 0 0-5.619 0L7.947 9.945V4.018a3.974 3.974 0 0 0-7.947 0v18.544a3.974 3.974 0 0 0 7.947 0v-5.925l8.784 8.784a3.985 3.985 0 0 0 5.62 0 3.985 3.985 0 0 0 0-5.619Z"/></g></g></svg>