<svg data-name="Group 164" xmlns="http://www.w3.org/2000/svg" viewBox="0 0 111.361 30.989"><defs><clipPath id="a"><path data-name="Rectangle 408" fill="#424242" d="M0 0h111.361v30.989H0z"/></clipPath></defs><g data-name="Group 163" clip-path="url(#a)" fill="#424242"><path data-name="Path 209" d="m43.256 20.798-.8.256a1.878 1.878 0 0 0-1.795-1.186 1.391 1.391 0 0 0-1.554 1.33c0 .657.449 1.137 1.33 1.442l.769.273c1.618.577 2.4 1.186 2.4 2.419a2.081 2.081 0 0 1-.849 1.762 3.372 3.372 0 0 1-2 .609 2.767 2.767 0 0 1-2.916-2.179l.8-.224a2.138 2.138 0 0 0 2.131 1.586c1.025 0 1.906-.545 1.906-1.522 0-.721-.529-1.25-1.6-1.618l-.929-.321c-1.314-.465-1.971-1.2-1.971-2.227a1.946 1.946 0 0 1 .705-1.538 2.618 2.618 0 0 1 1.762-.609 2.66 2.66 0 0 1 2.612 1.747"/><path data-name="Path 210" d="M53.125 23.378a4.247 4.247 0 1 1-4.246-4.326 4.236 4.236 0 0 1 4.246 4.326m-1.987-2.532a3.284 3.284 0 0 0-2.259-.913 3.351 3.351 0 0 0-2.275.913 3.679 3.679 0 0 0 0 5.063 3.351 3.351 0 0 0 2.275.913 3.284 3.284 0 0 0 2.259-.913 3.637 3.637 0 0 0 0-5.063m-4.47-4.534h.945v.929h-.945Zm3.477 0h.945v.929h-.945Z"/><path data-name="Path 211" d="m58.124 26.214 3.012-7h1.026l-3.653 8.332-1.362 3.044h-.993l1.474-3.285-3.557-8.091h1.025Z"/><path data-name="Rectangle 407" d="M63.508 16.216h.978v11.328h-.978z"/><path data-name="Path 212" d="M70.157 19.052a4.31 4.31 0 0 1 2.852 1.138 4.215 4.215 0 0 1 1.25 3.589h-7.322a3.146 3.146 0 0 0 1.122 2.259 3.521 3.521 0 0 0 2.275.8 3.441 3.441 0 0 0 2.676-1.041l.593.529a3.957 3.957 0 0 1-3.269 1.378 4.558 4.558 0 0 1-3.06-1.137 4.038 4.038 0 0 1-1.3-3.189 4.217 4.217 0 0 1 4.182-4.326m0 .865a3.283 3.283 0 0 0-3.22 3.06h6.441a2.989 2.989 0 0 0-1.074-2.243 3.3 3.3 0 0 0-2.147-.817"/><path data-name="Path 213" d="M80.988 25.333a2.441 2.441 0 0 1-2.483 2.355l-.593.593a1.343 1.343 0 0 1 1.41 1.314 1.241 1.241 0 0 1-.753 1.153 2.668 2.668 0 0 1-1.795.161l.161-.4c.9.144 1.522-.321 1.522-.913a.811.811 0 0 0-1.218-.705l-.352-.369.673-.865a2.692 2.692 0 0 1-2.34-2.131l.8-.224a2.138 2.138 0 0 0 2.131 1.586c1.026 0 1.906-.545 1.906-1.522 0-.721-.529-1.25-1.6-1.618l-.929-.321c-1.314-.465-1.971-1.2-1.971-2.227a1.948 1.948 0 0 1 .7-1.538 2.619 2.619 0 0 1 1.763-.609 2.66 2.66 0 0 1 2.612 1.746l-.8.257a1.878 1.878 0 0 0-1.795-1.186 1.391 1.391 0 0 0-1.554 1.33c0 .657.449 1.137 1.33 1.442l.769.273c1.618.577 2.4 1.186 2.4 2.419"/><path data-name="Path 214" d="M82.414 16.22h.978v.993h-.978Zm0 3h.978v8.332h-.978Z"/><path data-name="Path 215" d="M7.986 6.381a3.913 3.913 0 0 0-3.719-1.026q.154.339.313.674a3.184 3.184 0 0 1 2.893 5.37 3.506 3.506 0 0 1-.169.156q.158.34.311.684a3.9 3.9 0 0 0 .372-5.858"/><path data-name="Path 216" d="m2.493 9.775-.766.079a4.172 4.172 0 0 0 .782 1.853l.583-.5a3.4 3.4 0 0 1-.6-1.429"/><path data-name="Path 217" d="M0 9.124A5.163 5.163 0 0 1 5.231 3.65a4.577 4.577 0 0 1 4.217 2.453h.061v-2.25h1.237v10.543H9.509v-2.25h-.061a4.577 4.577 0 0 1-4.217 2.453A5.163 5.163 0 0 1 0 9.124m9.55 0a4.079 4.079 0 0 0-4.156-4.339 4.068 4.068 0 0 0-4.157 4.339 4.068 4.068 0 0 0 4.156 4.339A4.079 4.079 0 0 0 9.55 9.124"/><path data-name="Path 218" d="M18.023 3.711v1.156a1.976 1.976 0 0 0-.527-.061c-1.926 0-3.447 1.521-3.447 3.994v5.6h-1.235V3.853h1.237v2.453a3.428 3.428 0 0 1 3.426-2.656 1.943 1.943 0 0 1 .548.061"/><path data-name="Path 219" d="m22.607 9.611-1.783 1.926V14.4h-1.238V0h1.238v9.956l5.6-6.1h1.521L23.378 8.78l5.069 5.62h-1.48Z"/><path data-name="Path 220" d="M28.183 9.124a5.163 5.163 0 0 1 5.231-5.474 4.577 4.577 0 0 1 4.217 2.453h.061v-2.25h1.237v10.543h-1.237v-2.25h-.061a4.577 4.577 0 0 1-4.217 2.453 5.163 5.163 0 0 1-5.231-5.474m9.55 0a4.16 4.16 0 1 0-8.313 0 4.16 4.16 0 1 0 8.313 0"/><path data-name="Path 221" d="M63.036 9.574h-9.062a4.115 4.115 0 0 0 4.319 3.933 4.341 4.341 0 0 0 3.345-1.419l.649.669a5.3 5.3 0 0 1-4.136 1.845 5.208 5.208 0 0 1-5.353-5.495 5.166 5.166 0 0 1 5.211-5.454c2.676 0 5.373 1.946 5.028 5.92m-9.063-.999h7.948a3.778 3.778 0 0 0-3.913-3.832 3.983 3.983 0 0 0-4.035 3.832"/><path data-name="Path 222" d="M80.047 8.151v6.245H78.81V8.274c0-2.109-.933-3.487-2.859-3.487-1.906 0-3 1.379-3 3.487v6.123h-1.237V8.274c0-2.109-.933-3.487-2.859-3.487s-3 1.379-3 3.487v6.123h-1.237V3.853h1.237v1.721a3.76 3.76 0 0 1 6.752.385 3.716 3.716 0 0 1 3.629-2.312c2.19 0 3.812 1.379 3.812 4.5"/><path data-name="Path 223" d="M82.115 0h1.237v1.2h-1.237Zm0 3.852h1.237V14.4h-1.237Z"/><path data-name="Path 224" d="M49.823 5.676a5.422 5.422 0 0 0-4.141-1.877 5.25 5.25 0 0 0-5.359 5.4 5.211 5.211 0 0 0 2.129 4.367l.223-.323.432-.629a4.164 4.164 0 0 1-1.564-3.415 4.142 4.142 0 1 1 8.28 0 4.079 4.079 0 0 1-4.141 4.28 4.252 4.252 0 0 1-2.027-.508l-.449.655-.2.29a5.575 5.575 0 0 0 2.675.683 5.246 5.246 0 0 0 5.232-4.134 6.171 6.171 0 0 0 .128-1.266 5.343 5.343 0 0 0-1.219-3.522"/><path data-name="Path 225" d="M45.704 6.502a2.7 2.7 0 1 0 2.611 2.7 2.572 2.572 0 0 0-2.611-2.7m0 .4a2.14 2.14 0 0 0-1.518.635h-.22a.342.342 0 0 1 .036-.04 2.305 2.305 0 0 1 1.7-.757 2.347 2.347 0 0 1 2.171 1.5h-.174a2.184 2.184 0 0 0-2-1.342"/><path data-name="Path 226" d="M49.824 6.327a4.841 4.841 0 0 0-4.126-2.389 5.062 5.062 0 0 0-4.9 5.206 5.319 5.319 0 0 0 1.882 4.1l.432-.628.489-.714a3.411 3.411 0 1 1 2.107.7 3.521 3.521 0 0 1-1.55-.36l-.5.726-.449.655a4.675 4.675 0 0 0 2.491.721 4.967 4.967 0 0 0 4.745-3.881 5.518 5.518 0 0 0 .16-1.323 5.412 5.412 0 0 0-.779-2.817"/><path data-name="Path 227" d="M51.043 0v9.2a6.172 6.172 0 0 1-.129 1.266h-1.091V0Z"/><path data-name="Path 228" d="M86.717 25.489c.174.03.236-.038.234-.216a2.623 2.623 0 0 1 .583-1.647 7.7 7.7 0 0 1 .776-.938c.32-.312.8-.418 1.057-.81.045-.068.143-.037.218-.04.175 0 .334.024.471-.17.1-.148.342-.048.519-.054s.3.014.3-.237c0-.211.22-.322.381-.436.134-.095.267-.123.015-.267-.224-.128-.259-.429-.4-.642a1.329 1.329 0 0 0-.177-.289.841.841 0 0 1-.3-.788.208.208 0 0 0-.15-.241.692.692 0 0 0-.1-.051.818.818 0 0 1-.677-1.064 7.578 7.578 0 0 0 .01-.883c0-.144-.076-.329.178-.38.086-.017.047-.152.048-.233V14.42c0-.138-.023-.292.161-.357.078-.028.074-.111.065-.173a.643.643 0 0 1 .288-.638c.03-.023.069-.049.078-.082.189-.62.851-.6 1.261-.913a1.845 1.845 0 0 1 1.233-.231h2.3a.449.449 0 0 1 .4.174.729.729 0 0 0 .492.319c.068.007.148.034.146.112-.008.263.278.408.26.679-.009.133.128.083.2.084.244 0 .519-.061.5.336 0 .057.076.134.136.175a.812.812 0 0 1 .312.8c-.036 1.007.024 2.014.05 3.02a.88.88 0 0 1-.291.8c-.06.045-.133.118-.192.111-.283-.031-.282.14-.262.331a.767.767 0 0 1-.287.75 1.581 1.581 0 0 0-.393.736c-.067.189-.126.278-.327.251-.053-.007-.128-.024-.158.031s.014.133.066.172a1.581 1.581 0 0 1 .489.586c.068.142.2.106.323.127.19.032.459-.137.546.194.005.02.089.033.132.027a.684.684 0 0 1 .673.278.6.6 0 0 0 .308.2.665.665 0 0 1 .469.457c.122.347.229.363.491.1.147-.15.276-.379.453-.426.415-.11.588-.6 1.046-.6.076 0 .092-.054.09-.117s-.008-.1-.071-.1c-.64 0-.61-.587-.843-.942a3.066 3.066 0 0 1-.11-.292 1 1 0 0 1 .232-1.268.414.414 0 0 0 .11-.334 1.093 1.093 0 0 1 .2-.836c.074-.081.042-.159-.056-.235a.694.694 0 0 1 .021-.91c.093-.071.063-.151.064-.228 0-.428.012-.855 0-1.283a.442.442 0 0 1 .263-.462.289.289 0 0 0 .2-.347.476.476 0 0 1 .21-.492.617.617 0 0 0 .288-.41.229.229 0 0 1 .169-.18 1.237 1.237 0 0 0 .529-.379 2 2 0 0 1 1.021-.584 3.456 3.456 0 0 0 .93-.342 1.106 1.106 0 0 1 .9-.034c.553.18 1.1.392 1.641.594a.756.756 0 0 1 .372.26c.267.385.78.487 1.009.958a7.482 7.482 0 0 1 .572 1.041 5.615 5.615 0 0 1 .191 1.624.3.3 0 0 0 .127.289.8.8 0 0 1-.021.877.255.255 0 0 0-.114.361 1.916 1.916 0 0 0 .28.524.715.715 0 0 1 .189.544.7.7 0 0 0 .128.535.333.333 0 0 1 0 .427.758.758 0 0 0-.138.471 1.42 1.42 0 0 1-.564.989c-.186.137-.145.227.009.313a6.085 6.085 0 0 1 1.308 1.054.759.759 0 0 1 .17.627c0 .07-.047.1-.113.1-.1 0-.209.016-.267-.07-.315-.462-.895-.6-1.251-1.01-.076-.087-.149-.11-.22.02s-.211.247-.229.421a.175.175 0 0 1-.147.158.892.892 0 0 0-.557.378c-.21.27-.565.307-.792.536a.08.08 0 0 1-.053.017 4.37 4.37 0 0 0-1.519.432 1 1 0 0 1-.707 0c-.334-.152-.7-.189-1.026-.357a.218.218 0 0 0-.077-.037 2.637 2.637 0 0 1-1.573-.869c-.021-.019-.047-.046-.071-.046-.357-.006-.431-.3-.551-.537-.137-.276-.17-.291-.35-.048a3.376 3.376 0 0 1-.966.747c-.133.087-.125.132-.047.26a2.745 2.745 0 0 0 .557.774c.137.112.049.326.06.494s-.022.312.145.43c.1.072.088.222.087.347 0 .542.007 1.084 0 1.625 0 .18.055.22.228.22q4.721-.007 9.442 0a.979.979 0 0 0 .693-.727 4.261 4.261 0 0 0-.328-1.661 2.261 2.261 0 0 1-.132-.52c-.028-.233.1-.309.286-.325s.342.019.405.229c.084.28.308.514.251.845-.022.129.116.119.214.106v1.826a3.967 3.967 0 0 0-.864.913H87.638a3.015 3.015 0 0 1-.921-.97Zm6.819 2.054h5.582c.086 0 .22.059.252-.061.084-.318.331-.588.251-.958a2.892 2.892 0 0 1-.007-.626.382.382 0 0 0-.071-.268.764.764 0 0 1-.154-.509 1.734 1.734 0 0 0-.56-1.227c-.155-.164-.352-.3-.381-.551-.009-.08-.089-.121-.171-.131a.581.581 0 0 1-.337-.2 2.15 2.15 0 0 0-.495-.334 4.407 4.407 0 0 1-.687-.339c-.206-.165-.376-.056-.371.2a1.9 1.9 0 0 1-.18.812.8.8 0 0 1-.781.512c-.293 0-.679.264-.907-.166-.016-.031-.105-.032-.161-.032h-1.669c-.066 0-.163-.012-.182.054-.066.224-.243.171-.4.173h-.719a.367.367 0 0 1-.346-.162 1.742 1.742 0 0 1-.421-1.161c.01-.09.067-.23-.057-.277a.34.34 0 0 0-.323.076.478.478 0 0 1-.36.15.631.631 0 0 0-.532.22 1.643 1.643 0 0 1-.658.49.165.165 0 0 0-.1.1c-.09.313-.372.474-.563.707-.06.073-.15.131-.162.229-.051.415-.336.777-.263 1.222a.95.95 0 0 1-.073.36 1.9 1.9 0 0 0 .05 1.437.387.387 0 0 0 .42.259q2.763-.007 5.525 0m-1.753-11.631a1.627 1.627 0 0 1-.3 1.145.562.562 0 0 1-.855.073.382.382 0 0 0-.373-.084c-.155.023-.065.169-.083.259a1.039 1.039 0 0 0 0 .2c0 .441 0 .441.438.5a.54.54 0 0 1 .48.517c.01.18 0 .361 0 .541 0 .085-.013.175.06.24a3.766 3.766 0 0 1 .467.625 3.376 3.376 0 0 0 1.09.774 2.161 2.161 0 0 0 .416.162 1.467 1.467 0 0 0 1.059-.011 1.931 1.931 0 0 0 .929-.557.15.15 0 0 1 .1-.047c.3-.024.423-.222.5-.471a.52.52 0 0 1 .211-.3.52.52 0 0 0 .239-.558c-.015-.131 0-.266 0-.4a.5.5 0 0 1 .4-.527c.336-.04.3-.219.294-.434a1.72 1.72 0 0 1 0-.285c.022-.183-.042-.268-.235-.236a.535.535 0 0 1-.584-.264.448.448 0 0 0-.443-.2c-.383.01-.767 0-1.15 0-.084 0-.206.035-.244-.042-.118-.239-.324-.183-.517-.185a.392.392 0 0 1-.236-.088 9.95 9.95 0 0 1-1.192-.961.37.37 0 0 0-.4-.09c-.133.043-.059.179-.069.274-.012.113 0 .228 0 .414m14.971 1.269v-1.139a1.006 1.006 0 0 0-1.264-.781 2.725 2.725 0 0 0-1.017.712.463.463 0 0 1-.4.163c-.45-.007-.9 0-1.351 0a.493.493 0 0 0-.561.526 3.945 3.945 0 0 0 .162 1.657.81.81 0 0 1 .05.364c-.034.481.329.678.658.873a1.021 1.021 0 0 1 .382.277.4.4 0 0 0 .385.187c.44-.011.881-.007 1.322 0a.352.352 0 0 0 .338-.151c.09-.127.2-.288.369-.294a.509.509 0 0 0 .407-.277 2.011 2.011 0 0 0 .53-1.63 2.387 2.387 0 0 1 0-.483m-16.353-2.011c0 .323.009.647 0 .97-.006.169.035.234.22.229s.268-.028.247-.23a1.658 1.658 0 0 1 .174-.846c.112-.259.071-.589.493-.567.015 0 .029-.066.05-.1a.212.212 0 0 1 .171-.09 1.538 1.538 0 0 1 1.406.642.585.585 0 0 0 .344.279c.3.062.555.309.894.228.017 0 .048 0 .054.013.212.37.569.159.859.208a.2.2 0 0 0 .232-.077c.1-.171.2-.114.32-.021a3.516 3.516 0 0 1 .472.416.522.522 0 0 0 .291.17c.13.025.227 0 .226-.164v-2c0-.079 0-.167-.112-.152a1.619 1.619 0 0 1-.817-.212.29.29 0 0 1-.223-.307.789.789 0 0 0-.764-.79c-.806-.014-1.612-.03-2.417.005a2.392 2.392 0 0 0-1.533.608c-.188.172-.247.465-.519.578-.088.037-.063.151-.063.235v.97m10.593.441c0 .549.068.6.539.519a.162.162 0 0 0 .153-.135.649.649 0 0 1 .715-.545 9.394 9.394 0 0 1 .949.005 1.664 1.664 0 0 0 1.311-.506 1.608 1.608 0 0 1 1.017-.418 3.157 3.157 0 0 1 1.374.486c.145.063.168.222.16.372a1.069 1.069 0 0 0 .234.629.321.321 0 0 0 .38.128c.145-.041.085-.174.081-.268a2.776 2.776 0 0 0-.618-1.554c-.3-.391-.544-.861-1.062-1.038-.433-.148-.865-.3-1.309-.417a2.147 2.147 0 0 0-.956 0c-.342.057-.633.258-.969.291a.692.692 0 0 0-.5.223 6.8 6.8 0 0 0-1.3 1.561 1.194 1.194 0 0 0-.2.67m.418 6.7c1.11 1.47 2.641 1.626 4.251 1.337a3.022 3.022 0 0 0 1.825-1.328 2.1 2.1 0 0 1-1.05-.251c-.7-.26-.814-.4-.838-1.153 0-.07.034-.2-.053-.2-.261 0-.544-.107-.778.068a.4.4 0 0 1-.347.073c-.158-.034-.312-.09-.468-.133-.5-.14-.68-.037-.649.416a.7.7 0 0 1-.46.7c-.444.25-.848.6-1.434.468m1.2-1.654a.929.929 0 0 0-.462-1.017c-.068-.052-.117-.127-.185-.178a.6.6 0 0 1-.274-.611c.027-.163-.045-.214-.207-.206s-.328.045-.456-.1c-.059-.069-.121-.188-.22-.139s-.044.174-.036.262a.8.8 0 0 1-.354.855.449.449 0 0 0-.079.621c.365.509.487 1.28 1.329 1.323a.165.165 0 0 1 .078.034c.213.148.4.044.619-.016.337-.094.23-.334.246-.542v-.284m5.758-.76c-.053-.281.136-.654-.192-.926.035-.49-.27-.394-.566-.328a1.426 1.426 0 0 1-.258.007c-.055 0-.139-.007-.129.071.064.5-.451.755-.525 1.2a.1.1 0 0 1-.119.1c-.335-.064-.288.161-.285.359s.007.4 0 .6c-.009.229-.038.457.307.455.054 0 .113.064.161.108a.2.2 0 0 0 .257.034c.359-.192.79-.213 1.07-.611.15-.214.321-.363.283-.643a3.4 3.4 0 0 1 0-.415m-13.739 1.606c-.1.139-.239.112-.375.112h-1.09a.523.523 0 0 1-.509-.184c-.032-.047-.111-.136-.174-.017-.108.2.145.852.364.878a.7.7 0 0 1 .485.316c.128.163.22.257.364.012a.74.74 0 0 1 .276-.242c.311-.175.663-.306.64-.757 0-.027.061-.047.018-.118m1.067.939v-.6a.2.2 0 0 0-.121-.18c-.088-.037-.152.019-.2.077a1.37 1.37 0 0 0-.166.263 1.724 1.724 0 0 1-.463.644.4.4 0 0 0-.18.492c.07.158.258.069.39.071.239 0 .5.076.676-.189.134-.2.032-.427.065-.578m-3.914-.869c-.213.11-.419.215-.449.426a1.924 1.924 0 0 0 .033.788c.1.358.186.427.55.428h.315c.256 0 .348-.155.219-.376a.742.742 0 0 0-.174-.187c-.334-.275-.628-.566-.495-1.077m15.664-4.276v.57c0 .066-.007.141.105.11a1.834 1.834 0 0 0 .607-.737.181.181 0 0 0-.055-.124.641.641 0 0 1-.228-.381c-.043-.18-.2-.15-.331-.143-.157.009-.092.14-.1.221-.01.161 0 .323 0 .484m-5.988.009v-.566c0-.084-.015-.136-.121-.148-.373-.043-.279.383-.509.488a.144.144 0 0 0-.038.223 2.34 2.34 0 0 0 .468.6c.046.035.09.077.151.057s.047-.093.048-.145v-.509"/><path data-name="Path 229" d="M95.539 3.813c1.727 0 3.454-.017 5.181.01a1.953 1.953 0 0 1 1.521.674.307.307 0 0 1 .08.115c.1.518.459.584.919.578 1.506-.019 3.013-.033 4.518 0a2.34 2.34 0 0 1 1.693 1 .492.492 0 0 1 .067.33v2.652a.447.447 0 0 1-.178.391c-.151.122-.314.252-.3.49.009.148-.115.13-.222.151a33.508 33.508 0 0 1-5.521.208c-.193.007-.249.069-.234.249.013.161-.017.326.007.484.045.3-.148.45-.338.612a.173.173 0 0 1-.214.022c-.191-.127-.435-.177-.589-.35-.316-.354-.767-.567-1.019-.989a.511.511 0 0 0-.439-.237 1 1 0 0 1-.826-.539.269.269 0 0 0-.265-.15h-4.087c-.3 0-.424.189-.513.417a.666.666 0 0 1-.525.5c-.1.014-.117.072-.141.151-.2.647-.757.605-1.241.459-.152-.046-.172-.189-.171-.329 0-.285-.018-.572.005-.855.022-.265-.045-.356-.335-.348-.805.023-1.612.021-2.417 0a1.786 1.786 0 0 1-1.344-.768.38.38 0 0 1-.055-.246c0-.151.025-.285-.155-.408-.2-.139-.064-.719.162-.814.264-.11.431-.042.486.235a3.366 3.366 0 0 1 .191.944.268.268 0 0 0 .038.127c.307-.055.469.272.783.261.891-.031 1.784-.011 2.676-.011a.615.615 0 0 1 .654.625c.007.152-.011.305.006.456.012.107-.1.292.146.288.157 0 .314.046.327-.223a.519.519 0 0 1 .406-.439.589.589 0 0 0 .519-.549c.015-.191.156-.158.276-.158h3.4c.23 0 .461-.01.691 0 .184.011.228-.058.216-.23-.043-.617.011-1.236 0-1.852a1.221 1.221 0 0 1 .894-1.291 2.507 2.507 0 0 1 1.243-.283c.081.012.185.021.174-.117-.009-.115.051-.275-.132-.3a9.6 9.6 0 0 0-1.376-.285c-3.252.033-6.5.017-9.757.017a1.176 1.176 0 0 0-1.247.93 1.938 1.938 0 0 1-.369.793c-.081.091-.129.082-.207.013a.8.8 0 0 1-.117-1.076 1.388 1.388 0 0 0 .226-.483c.107-.426.5-.451.78-.626a2.53 2.53 0 0 1 1.419-.238c1.545.006 3.089 0 4.634 0m6.839 6.947v-.482c0-.552.211-.76.78-.76h5.123a.912.912 0 0 0 .776-.757V7.01a.946.946 0 0 0-.924-.926q-3.77-.006-7.54 0a.494.494 0 0 0-.519.539v2.281c0 .395.154.573.549.609.276.025.462.261.735.291.03 0 .066.092.072.144a.48.48 0 0 0 .287.368 3.691 3.691 0 0 1 .661.433"/><path data-name="Path 230" d="M94.237 6.215h-3.45a.478.478 0 0 1-.436-.534c.052-.228.22-.273.436-.272q3.076.008 6.153 0h.661a.946.946 0 0 1 .2.011.5.5 0 0 1 .374.343c.039.119-.333.469-.461.469h-3.477v-.017"/><path data-name="Path 231" d="M92.612 7.007c.642 0 1.283.006 1.924 0 .178 0 .248.035.247.23 0 .562.008.577-.558.6q-1.723.057-3.445 0a.507.507 0 0 1-.354-.745c.065-.1.17-.072.262-.072h1.924"/><path data-name="Path 232" d="M104.451 7.463c-1.064 0-2.127-.006-3.191.005-.213 0-.3-.05-.266-.266.031-.182-.094-.43.276-.428 2.041.01 4.082.005 6.123 0a.435.435 0 0 1 .44.206c.174.324.085.479-.277.479h-3.105"/><path data-name="Path 233" d="M102.797 8.832c-.517 0-1.033-.009-1.549 0-.2.005-.283-.048-.252-.25a.888.888 0 0 0 0-.227c-.017-.152.03-.216.2-.215q1.592.011 3.185 0a.318.318 0 0 1 .359.347c0 .206-.085.36-.366.347-.525-.025-1.052-.007-1.578-.007"/></g></svg>