<svg xmlns="http://www.w3.org/2000/svg" width="1402.219" height="772"><g data-name="Group 52" fill="#7a7975"><path data-name="Rectangle 88" d="m1380.38 771.515 21.445-17.794.357.43-21.445 17.794z"/><path data-name="Path 68" d="M386.438 762.5Zm-341.321-4.05.621 4.582-2.307 5 .164.067-.163-.065-1.211 2.661Zm212.636-.455Zm102.234 6.143 14.095-7.628-2.651 13.324Zm14.572-7.711 11.416 6.071-14.068 7.256Zm-189.007-1.367-5.753 12.8-18.945.388ZM141 767.767l24.817-12.758-6 13.257Zm25.429-13.025 18.741.034-24.733 13.211Zm154.955 9.376 14.445-9.614-3.442 13.383Zm14.964-9.819 10.915 4.454-14.363 8.942Zm-131.082-.1-5.518 12.365-18.866 1.231Zm-83.724 12.116 24.726-12.3-6.25 13.718Zm64.631-11.543 18.674-.83-24.421 13.62Zm-39.3-1.006 18.6.936-24.85 12.774Zm121.575-1.07-4.539 11.482-10.366 5.435Zm-43.678-.219-5.294 11.942-18.6 2.03Zm33.168 5.661 10.174-5.726-14.786 16.783Zm-52.042-4.249 18.422-1.646-23.933 13.992Zm-103.189 9.992 24.416-11.829-6.506 14.184Zm25.015-12.062 18.251 1.864-24.757 12.312Zm-81.544 11.328 5.59-12.1 14.882 5.123-22.544 11.464Zm263.748-2.015 14.532-10.412-3.715 13.2Zm38.274-2.437 14.134-8.091-2.974 13.231Zm14.623-8.207 11.106 5.614-14.085 7.623ZM325 750.454l10.708 3.612-14.427 9.6Zm-81.112-.512-5.082 11.538-18.163 2.766Zm-18.48 2.2 18-2.407-23.284 14.327Zm149.455 3.963 13.887-6.921-2.479 12.987Zm-290.14 4.359 23.88-11.353-6.766 14.648Zm24.477-11.575 17.677 2.8-24.443 11.842Zm170.557-.286-4.473 11.984-10.432 3.275Zm-10.457 3.156 10.233-3.557-14.827 15.179Zm29.291 7.61 14.632-11.36-3.959 12.975Zm15.207-11.7 10.543 2.6-14.509 10.4Zm-22.862-.984-4.346 12.38-10.49 1.391Zm-28.463-.028-4.883 11.156-17.578 3.438Zm24.86 12.4 14.736-12.475-4.169 12.707Zm-42.793-9.484 17.429-3.106-22.5 14.618Zm35.961-1.688 10.275-1.651-14.782 13.723Zm22.185-1.741 10.419 1.407-14.6 11.337Zm-11.078-.02h10.332l-14.7 12.442Zm-28.636-.051Zm73.694 7.894 14.193-8.659-3.283 13.11ZM67.82 756.072l23.118-10.883-7.022 15.1Zm283.543-10.922 10.836 5.036-14.121 8.084Zm-259.836-.166 16.879 3.742L84.5 760.095Zm271.607 5.179 13.91-7.31-2.811 12.922Zm14.39-7.39 11.066 6.009-13.878 6.913Zm-210.349 11.548 24.454-12.3-5.757 12.329Zm43.95-12.742-5.538 11.906-18.626.828Zm-63.553 11.8 24.549-11.831-5.985 12.765Zm44.676-11.62 18.451-.439-24.2 12.754Zm-19.517-.457 18.509.441-24.49 12.311Zm152.6 8.816 14.27-9.347-3.568 12.957ZM27.023 761.895l9.084-21.289-4.031 29.035Zm313.1-21.337 10.607 4.319-14.177 8.65Zm-66.616-.114-4.569 11-10.174 5.726Zm-221.3 10.3 22.143-10.428-7.274 15.545Zm178.209-10.5-5.327 11.5-18.37 1.642Zm32.733 5.966 9.979-6.007-14.605 16.573Zm-188.22-6.092 15.871 4.665-23.14 10.893Zm53.436 11.337 24.436-11.349-6.221 13.21Zm83.384-10.172 18.207-1.276-23.737 13.163Zm-58.346-1.4 18.366 1.354-24.583 11.848ZM36.7 739.625l4.836 8-8.858 20.978Zm8.711 17.616 8.085-19.018-3.978 16.625-3.426 7.419Zm203.939-19.158-5.13 11.112-17.945 2.4Zm-18.285 1.844 17.8-2.057-23.119 13.535ZM109.8 748.555l24.1-10.86-6.458 13.659Zm24.7-11.068 18.011 2.29-24.467 11.364Zm179.652 9.829 14.365-10.168-3.826 12.77Zm37.532-2.491 13.954-7.8-3.124 12.828Zm-297.42-7.88.736 6.172-3.565 7.572.149.062-.149-.061-.957 2.073Zm311.862-.031 10.773 5.529L363 749.748Zm-37.062-.039 10.419 3.454-14.251 9.335Zm-44.383-.87-4.527 11.528-10.231 3.562Zm93.155 6.446 13.7-6.6-2.177 10.369-.469 2.235Zm-103.43-3 10.036-3.835-14.671 15Zm-6.654-4.316-4.941 10.745-17.373 3.1ZM250 737.732l17.237-2.781-22.352 13.866Zm321.733-2.9v.005h-.016Zm-268.67 10.934 14.473-11.139-4.058 12.544Zm-34.805-11.2ZM59.63 734.34l14.632 5.544-22.156 10.437Zm32.448 10.331 23.55-10.371-6.7 14.107Zm226.048-10.393 10.274 2.417-14.341 10.151Zm-201.911-.171 17.436 3.233-24.133 10.872Zm179.477-.32-4.417 11.939L281 747.377Zm10.928-.36-4.258 12.268h-10.329Zm-21.16 1.828 10.065-1.909-14.63 13.536Zm21.793-2.281 10.17 1.2-14.441 11.114Zm-10.867.232 10.1-.237-14.543 12.239ZM19.8 754.429l9.433-21.845-2.643 28.832Zm320.649-14.2 14.019-8.386-3.418 12.7Zm-310.68-8.502 6.533 7.281-9.175 21.5Zm325.212-.04 10.521 4.924-13.941 7.784Zm-279.548 8.138 22.773-9.894-6.935 14.548Zm23.354-10.073 16.638 4.169-23.575 10.382Zm267.656 6.843 13.733-7.01-2.966 12.535Zm14.214-7.088 10.728 5.945-13.695 6.594ZM173.49 740.895l24.231-11.429-5.767 11.868Zm43.527-11.479-5.563 11.461-18.4.439Zm-18.677-.2 18.243-.066-24 11.919Zm80.306-.6-4.6 10.532-9.98 6.007Zm-124.527 10.895 24.306-10.938-5.98 12.289Zm82-11.049-5.365 11.069-18.154 1.271Zm32.32 6.25 9.779-6.274-14.411 16.357Zm-89.41-6.365 18.294.831-24.266 11.447Zm38.615.794 18.006-.919-23.56 12.362ZM42.026 747.616l8.493-19.82-5.408 28.555ZM329.4 736.539l14.1-9.095-3.681 12.551Zm14.637-9.308 10.309 4.184-14 8.376Zm-292.859-.513 2.917 8.935-8.312 19.551Zm83.974 10.425 24.172-10.434-6.2 12.719Zm119.712-10.493-5.178 10.7-17.737 2.045Zm-94.943-.145 18.146 1.757-24.34 10.953Zm76.84 1.654 17.6-1.724-22.959 12.77ZM10.845 747.795l9.791-22.37-1.3 28.631Zm10.278-23.126 8.2 6.6-9.5 22Zm38.955 9.389 21.78-9.439-7.167 14.976Zm22.355-9.605 15.623 5.081-22.794 9.9Zm190.67-.407-5 10.342-17.178 2.771Zm45.383 9.886 14.208-9.937-3.938 12.357Zm-201.663-.138 23.822-9.925-6.419 13.153Zm238.482-2.422 13.783-7.516-3.268 12.436Zm-99.779-5.049 17.055-2.469-22.22 13.138Zm34.167-2.489-4.58 11.082-10.035 3.833Zm79.891-.092 10.451 5.439-13.722 7Zm-36.328-.027 10.14 3.294-14.084 9.082Zm-192.023-.032 17.787 2.7-24.2 10.447Zm132.388-.193Zm5.97 4.09 9.842-4.107-14.515 14.815Zm101.386 1.615 13.531-6.293-2.81 12.235Zm13.852-6.678Zm160.385-.736 21.384 35.5 4.771 9.691Zm-247.568 10.814 14.323-10.929-4.156 12.129Zm-7.106-11.288-4.488 11.507-10.063 1.909Zm22.029-.006 10.015 2.238-14.182 9.92Zm-32.069 1.738 9.861-2.166-14.485 13.356Zm20.769-2.353-4.342 11.848-10.1.237Zm-10.015.014 9.882-.47-14.4 12.047Zm10.665-.484 9.931.99-14.29 10.9Zm-212.58 9.238 23.25-9.426-6.64 13.588Zm23.83-9.594 17.212 3.648-23.851 9.937Zm221.2 7.047 13.855-8.128-3.552 12.31Zm14.37-8.288 10.215 4.811-13.769 7.508ZM36.813 738.953l8.841-20.438-4 28.439Zm27.667-14.716 2.884-6 14.4 5.953-21.8 9.448Zm158.465-6.542-5.591 11.027-18.192.065Zm-176.7-.115 4.633 8.242-8.63 20.141Zm8.325 18.115 7.9-18.278-4.914 20.278-2.191 4.654Zm125.236-7.734 24.031-10.593-5.784 11.422Zm104.045-10.742-4.617 10.057-9.779 6.274Zm-79.4-.08 18.049.294-23.824 11.112Zm37.419-.031-5.407 10.649-17.953.917Zm31.93 6.514 9.567-6.524-14.2 16.112Zm-50.227-6.179 17.819-.578-23.4 11.587Zm146.333 5.977 13.564-6.725-3.12 12.16Zm14.049-6.8 10.4 5.876-13.522 6.289Zm-320.741-.388.826 7.883-4.74 9.865.16.067-.161-.066-.792 1.682Zm97.433 9.919 24.085-10.074-5.981 11.827Zm24.689-10.28 18.095 1.206-24.07 10.61Zm75.113-.233-5.23 10.29-17.548 1.718Zm-17.933 1.185 17.425-1.4-22.821 12.03ZM82.94 724.164l22.458-8.944-6.86 14.018Zm23.031-9.1 16.415 4.585-23.276 9.438Zm227.636 8.308 13.948-8.858-3.813 12.151Zm14.487-9.075 10.021 4.048-13.838 8.117Zm-206.188 9.05 23.932-9.548-6.183 12.244Zm24.525-9.732 17.942 2.145-24.121 10.09Zm112.1-.276-5.063 9.95-16.994 2.46Zm-17.418 1.977L278 713.149l-22.1 12.433Zm17.947-2.521Zm15.731-.741-4.63 10.641-9.84 4.106Zm-9.933 4.038 9.648-4.373-14.356 14.636Zm38.085 4.853L337 711.227l-4.047 11.957Zm36.136-2.648 13.62-7.252-3.411 12.06Zm-21.5-7.362 9.872 3.135-13.927 8.845Zm35.625 0 10.139 5.347-13.553 6.719Zm-249.406 8.621 23.566-9.024-6.392 12.663Zm24.148-9.188 17.581 3.1-23.966 9.561Zm236.343 5.941 13.364-6-2.971 11.876ZM29.851 731.161l9.173-20.977-2.639 28.257Zm37.968-13.2 21.454-8.489-7.073 14.434Zm-28.265-8.594 6.3 7.563-8.934 20.649Zm50.283-.035 15.4 5.49-22.475 8.953Zm215.648-.1-4.558 11.086-9.858 2.165Zm6.848 10.6 14.184-10.737-4.255 11.722Zm240.467-.307-5.545-10.615 22.686 39.2Zm-257.156-8.3 9.66-2.419-14.343 13.182Zm31.491-2.5 9.764 2.053-14.031 9.7Zm-11.1-.376-4.428 11.437-9.878.47Zm-9.8.248 9.667-.7-14.256 11.866Zm10.474-.737 9.7.782-14.151 10.703ZM51.363 725.825l8.29-19.055-5.372 27.994Zm153.931-9.1 23.623-10.31-5.626 10.6Zm-98.758-1.945 22.978-8.512-6.592 13.089Zm182.594-8.56-4.629 9.578-9.566 6.524Zm-9.89 6.71 9.337-6.749-13.962 15.838Zm-31.561-6.758-5.453 10.238-17.761.585Zm-117.593-.05 17 4.051-23.6 9.035Zm218.35 7.851 13.7-7.883-3.683 11.93Zm14.219-8.046 9.92 4.7-13.606 7.244Zm-133.109.249 17.644-.25-23.26 10.835Zm-169.241-.419 2.76 9.134-8.119 18.794Zm125.825 9.738 23.852-9.781-5.8 10.984Zm24.468-9.992 17.867.642-23.665 10.332Zm55.507-.474-5.288 9.891-17.366 1.4Zm-17.776.875 17.256-1.1-22.7 11.312Zm125.2 4.717 13.4-6.455-3.27 11.8Zm13.891-6.529 10.083 5.8-13.355 6Zm-220.25 9.189 23.888-9.239-5.989 11.379Zm24.49-9.424 17.908 1.569-23.891 9.8Zm92.38-.815-5.129 9.563-16.822 2.162Zm-17.268 1.689 16.722-1.886-22 11.751Zm-193.33 1.114 1.543-3.144 14.187 6.352-21.473 8.5 5.62-11.453Zm-52.253 18.314 9.511-21.483-1.313 28.078Zm263.389-21.649Zm53.356 8.1 13.8-8.634-3.934 11.765Zm-306.748-8.657 7.925 6.914-9.238 21.128Zm321.1-.2 9.743 3.91-13.681 7.873Zm-203.656 8.309 23.718-8.692-6.176 11.784Zm24.307-8.854 17.754 2.522-23.925 9.253Zm-82.582 7.856 22.173-8.025-6.793 13.507Zm22.738-8.153 16.207 4.984-23 8.522Zm186.886-.22-4.679 10.204-9.646 4.372Zm-9.765 4.329 9.449-4.634-14.19 14.443Zm37.308 3.352 13.918-9.518-4.158 11.569ZM363 705.619l13.466-7-3.552 11.695Zm-20.977-7.064 9.61 2.974-13.777 8.62Zm34.949-.052 9.836 5.253-13.39 6.449Zm10.787 5.289 13.207-5.729-3.129 11.53Zm-257.038 2.048 23.334-8.151-6.363 12.194Zm23.912-8.293 17.391 3.485-23.752 8.7Zm155.9 0-4.626 10.67-9.657 2.419ZM63.537 714.939l7.727-17.594-5.878 23.974-.969 2.018Zm-17.178 1.946 8.625-19.655-3.99 27.9Zm254.512-17.078 9.463-2.672-14.2 13.015Zm16.262 7.661 14.049-10.548-4.354 11.33Zm14.679-10.938 9.522 1.869-13.889 9.5Zm-10.907-.133-4.514 11.036-9.664.7Zm-265.339-.045 4.444 8.477-8.427 19.366Zm16.429-.1.886 9.717-5.838 11.9.105.045-.105-.044-.709 1.477Zm239.313.628 9.459-.935-14.123 11.693Zm10.29-.994 9.472.573-14.009 10.519Zm-36.839 6.757 9.081-6.941-13.679 15.513Zm-31.21-6.985-5.5 9.836-17.586.249Zm40.936-.022-4.629 9.091-9.337 6.748Zm-83.026 9.478 23.479-9.55-5.666 10.189Zm24.111-9.77 17.48.065-23.135 10.1Zm-160.124 7.094 21.154-7.573-6.99 13.915Zm196.385-7.606-5.348 9.5-17.195 1.091Zm-174.671-.079 15.2 5.89-22.2 8.033Zm157.041.656 17.1-.8-22.591 10.612Zm-61.732 8.094 23.69-8.993-5.831 10.559Zm24.306-9.185 17.7.976-23.522 9.567Zm135.862 7.115 13.552-7.653-3.814 11.561Zm14.08-7.818 9.633 4.579-13.45 6.992Zm-77.084-.484-5.2 9.184-16.655 1.88Zm-175.967 7.511 22.732-7.629-6.552 12.607Zm158.838-6.1 16.57-1.613-21.9 11.085Zm-135.539-1.655 16.814 4.444-23.365 8.164Zm153.218-.278Zm-116.494 8.273 23.712-8.425-6 10.941ZM198 692.295l17.737 1.921-23.732 9.009Zm179.31 5.9 13.249-6.2-3.419 11.449Zm13.741-6.272 9.775 5.731-13.2 5.724ZM80.4 690.395l-.383 1.275-1.617 3.225Zm261.995 7.829 13.66-8.424L352 701.195Zm-37.144-8.514-4.718 9.768-9.447 4.632Zm51.363-.138 9.473 3.772-13.534 7.642Zm-60.959 4.755 9.243-4.883-14.009 14.243Zm-140.325 2.928 23.525-7.858-6.175 11.335Zm24.11-8 17.581 2.887-23.75 8.44Zm-98.217-.04v.054l-.029.058ZM39.639 708.78l8.939-20.177-2.642 27.739Zm9.468-20.953 6.077 7.833-8.716 19.863Zm33.395-.118 13.992 6.743-21.177 7.58Zm15.18 6.788 21.913-7.136-6.736 13.017Zm22.471-7.24 16.021 5.381-22.758 7.638Zm212.061 8.919L346 686.85l-4.268 11.193Zm14.384-9.633 9.357 2.812-13.636 8.409Zm20.469 6.763 13.318-6.764-3.691 11.341ZM60.5 704.833l8.11-18.348-5.349 27.486Zm320.4-18.408 9.543 5.157-13.243 6.193Zm-65.219-.178-4.693 10.263-9.46 2.671Zm75.718 5.379 13.054-5.467-3.286 11.195Zm-85.2-2.854 9.266-2.922-14.059 12.845Zm-15.836 3.973 8.779-7.084-13.322 15.108Zm-53.856 2.181 22.978-9.375-5.558 9.444Zm-167.258-9.382 2.61 9.328-7.946 18.095Zm230.659-.087-4.611 8.585-9.079 6.941Zm-162.3 7.163 23.127-7.3-6.348 11.736Zm23.7-7.423 17.216 3.861-23.561 7.87Zm56.352 8.745 23.352-8.809-5.708 9.781Zm104.386 1.553 13.921-10.375-4.452 10.948Zm-44.411-10.464-5.412 9.114-17.033.8Zm-35.988-.1 17.328.369-23.027 9.395Zm84.238-.1-4.6 10.642-9.455.935Zm-65.744.49 16.949-.517-22.49 9.929Zm76.475-.606 9.284 1.68-13.755 9.3Zm-20.126.836 9.253-1.168-13.991 11.527Zm10.11-1.256 9.254.363-13.875 10.337Zm-127.77 7.661 23.55-8.226-5.864 10.141Zm96.483-8.351-5.27 8.808-16.5 1.606Zm-72.318-.048 17.543 1.3-23.4 8.826Zm55.318 1.2 16.426-1.352-21.821 10.437Zm17.562-1.657Zm61.1 6.158 13.412-7.435-3.944 11.2Zm13.948-7.6 9.355 4.461-13.3 6.757Zm-190.707 7.3 23.557-7.634-6.023 10.514Zm24.154-7.781 17.578 2.261-23.594 8.24Zm-121.4 6.289 20.887-6.685-6.913 13.414Zm-51.72 13.965 9.257-20.666-1.332 27.58Zm73.156-20.744 15.018 6.281-21.938 7.144Zm16.333 6.317 22.511-6.769-6.52 12.14Zm260.5-.879 13.1-5.957-3.567 11.11Zm-237.432-5.99 16.641 4.827-23.159 7.311Zm251.032-.039 9.474 5.654-13.044 5.464Zm-353.85-.02 7.674 7.219-9 20.324Zm269.619-.956-4.754 9.33-9.241 4.882Zm-9.427 4.9 9.027-5.121-13.808 14.025Zm235.652-5.393 34.686 56.287 4.662 20.578Zm-189.853 7.587 13.527-8.224-4.174 11.034Zm-274.652 8.707 7.578-16.963-6.674 26.875Zm89.695-10 23.356-7.046-6.18 10.9Zm199.054-7.168 9.211 3.63-13.393 7.424Zm-175.115 0 17.42 3.242-23.6 7.647Zm-105.342-.8.789 10.063-7.446 16.738Zm-24.931 18.671 8.429-18.929-3.984 27.411Zm486.8 4.169-7.418-23.633 38.586 75.377ZM296.055 683.23l8.411-7.15-12.858 14.58ZM64.7 675.863l4.267 8.707-8.245 18.654Zm177.916 8.664 22.882-8.679-5.618 9.047Zm62.787-8.838-4.565 8.049-8.779 7.083Zm-21.876-.074-5.48 8.732-16.881.515Zm-17.369.014 16.809-.245-22.412 9.269Zm54.771-.3-4.758 9.857-9.262 2.921Zm16.107 9.03 13.66-9.145-4.378 10.827ZM223.9 683.195l23.244-8.086-5.759 9.381Zm87.723-5.087 9.067-3.169-13.912 12.68Zm-63.844-3.184 17.184.662-22.931 8.7Zm103.521-.029 9.113 2.648-13.5 8.209Zm19.976 6.457 13.179-6.54-3.83 11Zm13.7-6.657 9.258 5.058-13.091 5.951Zm10.218 5.11 12.908-5.218-3.44 10.869Zm-94.107-5.341-5.347 8.431-16.353 1.345Zm-16.88.9 16.29-1.1-21.752 9.8Zm124.25-1.149ZM104.94 680.45l21.682-6.272-6.689 12.543Zm22.23-6.355 15.85 5.768-22.54 6.777Zm174.492-.126Zm232.4-.266v.005l-.021.006Zm-206.991 10.185 13.8-10.21-4.55 10.572Zm3.905-10.264-4.676 10.259-9.251 1.167Zm-186.508 6.257 22.945-6.474-6.34 11.29Zm60.75.971 23.429-7.476-5.9 9.73Zm-37.238-7.545 17.055 4.227-23.391 7.061Zm173.56-.052 9.057 1.5-13.626 9.122Zm-251.61-.018 13.812 7.127-20.907 6.692Zm139.332-.017 17.4 1.612-23.291 8.1Zm92.516 1.363 9.051-1.4-13.863 11.368Zm9.945-1.516 9.04.152-13.753 10.176ZM81.861 687.109l6.933-15.305-2 6.556-4.605 8.969.172.077-.172-.076-.423.843Zm7.724-16.357-.249 2.664-1.383 2.693Zm97.168 6.717 23.421-6.86-6.049 10.094Zm24.017-6.988 17.432 2.591-23.473 7.49Zm150.679 6.961 13.28-7.228-4.074 10.857Zm13.824-7.4 9.084 4.341-13.163 6.531Zm-59.2-1.131-4.783 8.884-9.025 5.119Zm-9.251 5.181 8.793-5.339-13.577 13.774Zm78.515.306 12.965-5.726-3.713 10.78Zm13.465-5.8 9.182 5.574-12.9 5.214Zm-271.032 5.258 22.316-5.931-6.5 11.688Zm393.53-5.97 20.779 32.09 7.2 13.791Zm-370.663-.039 16.481 5.2-22.978 6.484Zm-101.444 19.37 8.73-19.441-2.653 27.274Zm41.216-14.216 20.647-5.824-6.856 12.941Zm21.184-5.886 14.849 6.667-21.707 6.279Zm-53.144-.074 5.871 8.1-8.52 19.132Zm243.393 7.054 7.929-7.09-12.211 13.85ZM69.448 684.581l7.952-17.693-5.34 27.027Zm99.266-11.53 23.207-6.252-6.194 10.469Zm23.786-6.356 17.273 3.588-23.462 6.872Zm97-.1-5.551 8.354-16.737.245Zm-40.717 7.951 22.8-8-5.681 8.66Zm102.919.021 13.4-8.035-4.294 10.683Zm-40.755-8.219-4.477 7.464-8.41 7.15Zm-38.7-.005 16.678.017-22.343 8.62Zm93.439-.054 8.956 3.487-13.264 7.219Zm-287.653-.274 2.47 9.523L72.7 692.98Zm228.929-.314-5.425 8.066-16.212 1.1Zm-76.762 7.181 23.15-7.377-5.813 8.983Zm59.99-6.531 16.16-.861-21.692 9.186Zm-36.2-1.015 17.051.945-22.854 8.014Zm72.288-.565-4.819 9.454-9.064 3.169Zm-9.115 3.052 8.864-3.413-13.755 12.507Zm24.812 5.075 13.54-8.974-4.49 10.471Zm14.169-9.3 8.874 2.483-13.378 8.014Zm-144.5 6.588 23.324-6.74-5.947 9.324Zm163.994-.442 13.047-6.327-3.968 10.665Zm23.515-1.428 12.77-4.982-3.594 10.552Zm-163.57-5.009 17.263 1.914-23.2 7.393Zm153.627-.012 8.979 4.956-12.952 5.72Zm23.078-.335Zm-76.105-.173-4.764 9.877-9.048 1.4Zm-3.968 9.866 13.685-10.058-4.648 10.206Zm-5.036-8.669 8.851-1.634-13.73 11.211Zm19.414-1.826 8.832 1.307-13.5 8.949Zm-9.63.042 8.831-.061-13.632 10.015Zm-185.649 5.412 22.784-5.665-6.34 10.856Zm23.347-5.745 16.91 4.587-23.246 6.263Zm350.18 14.185-7.746-14.215 25.621 42.01Zm-412.7-9.162 21.475-5.429-6.652 12.086Zm22.017-5.488 15.692 6.148-22.35 5.938Zm59.161 5.029 23.306-6.1-6.082 9.679Zm23.9-6.212 17.3 2.913-23.379 6.753Zm-176.16 19.317 9.03-19.916-1.356 27.135Zm52.79-13.751 3.431-6.521 13.65 7.507-20.668 5.83Zm-12.882 9.8 7.447-16.378-6.658 26.455Zm240.649-16.506-4.791 8.427-8.79 5.338Zm-9.064 5.449 8.528-5.53-13.294 13.475Zm-261.977-5.565 7.441 7.513-8.8 19.586Zm315.49 7.013 13.154-7.034-4.2 10.519Zm13.708-7.212 8.82 4.217-13.03 6.319Zm-72.047 6.584 7.245-6.8-11.24 12.744Zm-218.618-7.053.68 10.228-7.32 16.157Zm184.228 7.621 22.228-7.96-5.627 7.977Zm-18.319-.949 22.732-7.333L272 665.91Zm134.558-1.965 12.833-5.506-3.859 10.459Zm-73.053-5.553-4.321 6.8-7.93 7.09Zm-38.1 0 16.552.269-22.289 7.977Zm124.494-.023 8.9 5.491-12.765 4.978Zm-89.983-.113-5.506 7.7-16.077.856Zm-16.663.42 16.036-.63-21.642 8.576ZM64.823 675.109l8.258-18.266-3.989 26.974Zm171.727-12.125 23.074-6.682-5.874 8.593Zm-61.139-1.355 23.082-5.473-6.215 10.048Zm84.854-5.479 16.927 1.218-22.787 7.351Zm-125.5 5.033 22.144-5.111-6.483 11.247Zm64.3-5.112 17.143 3.924-23.35 6.113Zm-125.416 0 4.1 8.933-8.079 17.991Zm83.806-.053 16.337 5.571-22.819 5.674Zm199.091 7.253 13.284-7.859-4.415 10.34Zm13.879-8.11 8.708 3.343L366 665.522Zm-38.693-.575-4.875 9.049-8.857 3.407Zm-8.932 3.309 8.654-3.65-13.584 12.323Zm-225.032 1.147 20.429-4.982-6.8 12.477Zm20.959-5.021 14.7 7.048-21.5 5.436Zm99.388 5.919 23.238-6.019-6 8.922ZM90.24 668.614l6.835-14.8-3.64 11.8-3.544 6.735Zm151.729-14.819 17.139 2.209-23.126 6.7Zm105.072 8 13.428-8.813-4.6 10.119Zm-249.21-8.91-.542 5.417-.307.57.14.066-.141-.065-2.408 4.576Zm263.285-.246 8.64 2.315-13.256 7.841Zm42.162 4.505 12.638-4.756-3.747 10.244Zm-23.129 1.325 12.922-6.126-4.107 10.341Zm-38.643-6.168-4.845 9.5-8.848 1.633Zm52.1-.079 8.707 4.852-12.819 5.5Zm22.689-.2Zm-83.6 1.72 8.65-1.868-13.6 11.06Zm18.357-1.872-4.746 9.845-8.826.061Zm-8.728-.186 8.623-.275-13.514 9.863Zm9.447-.277 8.615 1.115L347 661.306Zm-193.624 4.388 22.647-4.87-6.348 10.429Zm155.57 1.174 6.154-6.061-9.62 10.907Zm-132.365-6.106 16.777 4.94-23.121 5.483Zm18.553 4.961 23.209-5.356-6.12 9.271Zm23.8-5.449 17.174 3.226-23.287 6.032Zm55.846 6.666 22.18-7.333-5.708 7.6Zm38.837-1.706 8.218-5.677-12.935 13.1Zm8.859-5.7-4.784 7.95-8.524 5.527Zm-8.239-.331-5.592 7.329-15.947.627Zm-199.729 4.507 21.293-4.6-6.623 11.64Zm21.827-4.641 15.554 6.525-22.175 5.119Zm120.222 6.631 22.676-6.677-5.823 7.889Zm41.113-6.3 15.917-.409-21.6 7.979Zm19.637-.43-4.041 5.992-7.245 6.8Zm-37.4-.115 16.435.511-22.24 7.353Zm86.137 5.9 13.036-6.849-4.333 10.19ZM78.236 665.017l7.806-17.091-5.335 26.618Zm306.186-17.2 8.563 4.092-12.9 6.117ZM58.537 666.41l8.544-18.763-2.673 26.859Zm184.43-12.909 23.011-6-5.939 8.2Zm23.657-6.133 16.81 1.483-22.734 6.694Zm-179.959-.252L89 656.833l-7.66 16.847Zm-19.06-.164 5.68 8.352-8.349 18.467Zm326.369 4.985 12.705-5.3-4 10.147Zm13.216-5.371 8.618 5.4-12.626 4.752Zm-225.067 4.083 22.975-4.708-6.243 9.634Zm23.548-4.775 17.017 4.258-23.254 5.363Zm-105.316 7.691 4.208-7.793 13.5 7.884-20.451 4.988Zm124.282-3.443 23.168-5.308-6.054 8.522Zm95.181-1.146 4.065-4.194-6.4 7.261Zm17.484-4.224-4.924 8.64-8.65 3.649Zm-88.88-.042 17.025 2.495-23.067 6.01Zm-106.685 4.261 22-4.306-6.478 10.816Zm22.538-4.344 16.207 5.934-22.682 4.878Zm197.262 7.686 13.172-7.691-4.537 10Zm-32.98-3.986 8.431-3.878-13.388 12.12Zm46.762-3.966 8.464 3.2-13.013 6.834Zm159.081 29.47 111.837-29.636-74.474 90.257Zm112.429-29.663 55.691 68.427-130.246 21.935Zm-294.6 6.869 13.32-8.661-4.709 9.776Zm-5.291-8.871-4.924 9.124-8.646 1.867Zm19.279-.148 8.411 2.145-13.128 7.672Zm-80.361 6.55 22.14-6.715-5.792 7.223Zm121.7-2.275 12.511-4.541-3.9 9.942Zm-69.232-2.448 8.446-2.1-13.464 10.905Zm-13.124-2.168-5.68 6.96-15.822.407Zm59.6 5.849 12.8-5.933-4.244 10.023Zm-28.474-6.05-4.843 9.49-8.62.274Zm41.816-.008 8.44 4.745-12.69 5.292Zm-89.419.187 15.8-.2-21.568 7.389Zm-203.661 3.91 20.239-4.159-6.759 12.029Zm20.759-4.174 14.558 7.425-21.32 4.61Zm201.685-.052-3.512 4.9-6.152 6.06Zm-1.651-.122.007.006.121.1-.128-.091ZM89.468 656.895l7.332-15.842-6.653 26.08Zm117.065-11.238 23.131-4.621-6.164 8.859Zm141.277-4.146 8.418-.491-13.4 9.716Zm-80.079 5.534 22.632-6.029-5.9 7.5Zm89.351-6.052 8.4.922-13.274 8.632Zm-126.826-.032 17.061 3.532-23.217 5.316Zm60.791-.1 16.323.744-22.2 6.735Zm33.294 5.656 7.833-5.753-12.451 12.6Zm8.623-5.93-4.742 7.438-8.215 5.674Zm-167.983 3.849 22.531-4.089-6.364 10.009Zm23.084-4.131 16.657 5.287-23.017 4.715Zm-90.589-.071.575 10.4-7.211 15.617ZM50.64 658.406l8.828-19.228-1.386 26.741Zm198.816-13.973 22.964-5.322-6.01 7.807Zm23.613-5.438 16.7 1.739-22.694 6.046Zm-213.116-.435 7.224 7.8-8.609 18.906Zm13.833 16.725 8.1-17.649-4 26.584Zm52.6-14.086 21.134-3.794-6.6 11.206Zm21.66-3.81 15.423 6.894-22.024 4.312Zm227.673 6.668 12.923-6.674-4.463 9.868Zm13.5-6.864 8.31 3.964-12.783 5.924Zm-306.765-.282 3.943 9.156-7.939 17.383ZM98.5 650.717l6.756-14.349-5.315 17.017-2.1 3.882Zm90.358-10.612 22.888-3.952-6.279 9.223Zm42.358.618 23.113-4.6-6.116 8.124Zm-18.9-4.618 16.907 4.583-23.179 4.63Zm186.211 5.085 12.585-5.1-4.15 9.841Zm-143.578-5.159 16.917 2.772-23.021 5.335Zm156.681-.013 8.345 5.316-12.5 4.537Zm-305.653-.446-.884 8.315-.825 1.486.2.1-.2-.1-3.209 5.942Zm237-.289-4.962 8.222-8.426 3.876Zm-8.548 3.829 8.186-4.091-13.158 11.89Zm-1.993-4.441-2.373 3.1-4.063 4.193Zm-.918-.239-3.238 3.7-2.534 2.892-15.7.2Zm-39.237 6.058 22.11-6.1-5.88 6.845Zm22.847-6.288h15.69l-21.542 6.807Zm51.534 7.49 13.064-7.532-4.657 9.676Zm13.691-7.8 8.226 3.045-12.9 6.661Zm-231.66 3.319 21.87-3.513-6.481 10.393Zm22.405-3.531 16.089 6.295-22.567 4.09Zm103.122 5.01 22.6-5.39-5.985 7.12Zm23.295-5.531 16.216.969-22.178 6.124Zm-185.726-.412 13.367 8.26-20.26 4.163Zm240.723-.367-5 8.748-8.443 2.1Zm-22.1 5.673 7.322-5.709-11.754 11.889Zm27.161 2.569 13.215-8.516-4.82 9.436ZM213.21 635.91l23.071-3.894-6.221 8.461Zm130.883-1.61 8.238-2.332-13.316 10.747Zm-107.22-2.342 16.957 3.832-23.168 4.615Zm101.877-.018-4.651 6.872-7.829 5.751Zm32.73-.209 8.186 1.971-13.029 7.512Zm-9.735-.3-4.939 9.136-8.415.491Zm50.271 4.326 12.389-4.336-4.05 9.649Zm-22.4 1.157 12.688-5.751-4.383 9.713Zm-133.591-1.129 22.929-4.653-6.088 7.413Zm146.828-4.75 8.18 4.635-12.57 5.093Zm-123.243-.007 16.6 1.986-22.667 5.405Zm73.817.652 8.213-.709-13.278 9.572Zm9.1-.762 8.186.724-13.164 8.483Zm-190.7 2.592 22.435-3.315-6.386 9.593Zm22.984-3.339 16.55 5.629-22.932 3.959Zm309.921-.218 29.127 43.842 7.509 23.922Zm-417.85 16.136 7.683-16.532-5.345 26.255Zm46-16.88 14.434 7.8-21.162 3.8Zm-20.582 3.343 20.07-3.349-6.725 11.6Zm-17.124-3.739 2.208 9.913-7.541 16.289Zm417.557 25.02-9.26-25.277 35.934 66.473ZM67.7 646.295l8.379-18.137-2.7 26.489Zm170.17-14.555 23.076-3.909-6.186 7.725Zm23.7-3.98 16.818 3.043-22.991 4.665Zm54.948 6.014 21.443-6.208-5.28 5.593-.586.62ZM76.6 627.508l5.5 8.6-8.2 17.847Zm222.21 5.3 22.087-5.5-5.973 6.462Zm22.84-5.668 15.58.2-21.52 6.23Zm59.121 6.446 12.816-6.509-4.594 9.552Zm13.406-6.705 8.063 3.833-12.668 5.742Zm-198.548 3.114 22.822-3.2-6.322 8.814Zm23.389-3.233 16.807 4.9-23.121 3.9Zm129.743-.585-4.983 7.787-8.183 4.09Zm-193.778-.127 15.309 7.264-21.9 3.518Zm-21.518 2.991 21-3-6.594 10.781Zm147.346 1.7 22.58-4.755-6.074 6.731Zm59.615-.491 7.911-4.281-12.872 11.612Zm152.2-4.327 19.706 28.11 9.167 16.823Zm-188.526-.067 16.113 1.185-22.161 5.517Zm99.147 4.9 12.471-4.911-4.3 9.543Zm13-4.985 8.068 5.224-12.377 4.332Zm85.957-.039v.005l-.021.007ZM336.6 629.949l6.573-5.432-10.658 10.778Zm35.33 1.446 12.962-7.382-4.78 9.352Zm-27.362-7.664-4.472 6.212-7.317 5.7Zm40.97 0 7.991 2.89-12.788 6.5Zm-122.856 3.8 22.908-3.99-6.17 7.018Zm23.571-4.078 16.5 2.226-22.649 4.77Zm213.783 16.859-9.523-16.862 27.207 42.345ZM97.85 638.788l7.238-15.338-6.662 25.75Zm122.088-12.206 23.028-3.172-6.281 8.057Zm23.621-3.214 16.862 4.125-23.133 3.918Zm-65.619-.212 15.985 6.651-22.474 3.322Zm-22.3 2.728 21.765-2.728-6.492 9.975Zm202.56-2.958-5.068 8.368-8.232 2.331Zm-252.456-.215.472 10.571L99.1 648.4Zm244.236 2.378 8.02-2.56-13.15 10.577Zm13.059 5.441 13.112-8.379-4.93 9.1Zm13.834-8.773 7.964 1.794-12.923 7.36Zm-9.586-.057-5.034 8.785-8.21.709Zm49.34 3.8 12.273-4.135-4.2 9.36Zm-57.45-3.334 8.006-.93-13.155 9.43Zm8.935-1.016 7.975.525-13.056 8.342Zm-45 5.58 21.419-5.637-5.964 5.833Zm71.47-.138 12.58-5.578-4.522 9.409Zm13.14-5.71 7.924 4.522-12.455 4.9Zm-102.267 4.643 22.07-4.9-6.068 6.076Zm22.843-5.053 15.47.382-21.5 5.659Zm-149.608 2.533 22.36-2.549-6.419 9.183Zm22.906-2.555 16.453 5.967-22.867 3.208Zm-89.23 11.279.737-1.29 5.869-10.275 13.245 8.635-20.093 3.353Zm132.228-8.546 23.053-3.216-6.262 7.324Zm23.68-3.271L285 623.218l-22.974 4Zm-161.607 13.466 6.691-13.923-7.027 22.205-.672 1.211Zm-46.648 4.6 8.649-18.594-1.423 26.394Zm227.492-14.783 22.568-4.126-6.167 6.338ZM82.6 636.1l7.971-17.08-4.026 26.239Zm228.2-17.136 16.011 1.392-22.15 4.917Zm470.207-.1 84.328 80.508-161.915 13.113Zm-133.77 25.093 133.2-25.095-77.511 93.533ZM69.153 618.795l7.022 8.082-8.445 18.281Zm44.891-.022-1.235 11-.844 1.757-.461.809.184.092-.185-.09-4.075 7.343Zm-22.916-.43 3.795 9.38-7.815 16.816Zm27.951-.342-1.187 3.15-2.534 4.437Zm83.361 2.3 22.773-2.46-6.372 8.407Zm23.339-2.474 16.717 5.217-23.081 3.179Zm-106.038-.309-.2.792-.272.462Zm20.183-.053 14.322 8.176-21.028 3ZM119.5 619.99l19.926-2.55-6.7 11.17Zm235.152-2.562-4.98 7.329-7.906 4.278Zm-8.1 4.3 7.585-4.431-12.5 11.254Zm.623-2.471 2.3-2.065-3.252 4.238-6.567 5.427Zm38.79 4.173 12.714-6.352-4.727 9.242Zm13.32-6.556 7.819 3.7-12.559 5.569Zm-129.848 2.831 22.9-3.329-6.26 6.619Zm23.571-3.4 16.406 2.456-22.643 4.139Zm115.11 4.311 12.361-4.73-4.442 9.25Zm12.894-4.806 7.811 5.127-12.26 4.136Zm-194.279 1.867 23-2.454-6.349 7.651Zm23.6-2.479 16.777 4.411-23.114 3.225Zm-88.409-.07 15.207 7.632-21.8 2.732Zm-21.4 2.18 20.886-2.2-6.593 10.364Zm189.32 2.78 21.394-5.068-4.382 3.937-1.68 1.509Zm-17.618-1.43 22.058-4.3-6.168 5.684Zm22.854-4.441 15.356.556-21.484 5.089Zm42.263 7.2 12.862-7.239-4.9 9.032Zm13.531-7.535 7.761 2.734-12.684 6.336Zm-26.859-.073-5.129 7.981-8.015 2.559Zm-8.009 2.4 7.787-2.782-12.958 10.39Zm-171.2-3.156 15.892 7.005-22.4 2.554Zm-22.206 1.942 21.684-1.949-6.513 9.562Zm131.727 1.083 22.564-3.5-6.265 5.938Zm74.324 4.69 13.011-8.247-5.04 8.77Zm-117.247-5.721 23.045-2.527-6.345 6.92Zm66.222-2.56 15.909 1.589-22.143 4.32Zm-42.546-.006 16.641 3.562-22.969 3.34Zm97.888-.174-5.127 8.433-8 .93Zm9.447-.2 7.746 1.614-12.819 7.215Zm-17.349.9 7.8-1.152-13.025 9.288ZM95.4 627.754l7.576-16.014-5.365 25.934Zm278.442-16.029 7.764.321-12.947 8.205Zm47.568 3.833 12.161-3.953-4.356 9.076ZM399.7 616.6l12.477-5.414-4.662 9.11Zm-191.272-5.438 16.368 6.3-22.821 2.464Zm-22.846 1.776 22.306-1.787-6.459 8.772Zm-82-1.877 2.087 10.112-7.443 15.772Zm309.167-.011 7.672 4.406-12.344 4.723Zm64.856-.112ZM276.3 612.307l22.9-2.672-6.353 6.214Zm23.583-2.728 16.315 2.679-22.644 3.51Zm36.843 4.279 21.365-4.5-2.006 1.646-4.155 3.407Zm-104.114-4.533 16.636 5.528-23.059 2.46Zm-23.312 1.717 22.744-1.718-6.431 8ZM76.691 626.831l8.234-17.56-2.733 26.166Zm399.114-17.726 1.618 1.96.807 1.07Zm-115.174-.043-4.938 6.831-7.579 4.428Zm-9.366 6.526.9-.805 4.211-3.453 3.616-2.276-11.971 10.769Zm-265.821-6.93 5.332 8.856-8.062 17.273Zm233.693 3.553 22.047-3.708-6.272 5.284Zm22.87-3.832 15.239.722-21.464 4.522Zm-222.055 10.116 6.167-10.473 13.139 9.013-19.95 2.553Zm113.648-9.289 22.994-1.738-6.424 7.243Zm23.589-1.746 16.7 4.694-23.11 2.534Zm134.126 6.135 12.616-6.2-4.859 8.935Zm13.239-6.415 7.579 3.56-12.453 5.4Zm-45.5 1.952 3.381-2.511-.575.747-2.812 1.77Zm-57.782.247 22.567-2.873-6.367 5.533Zm23.322-2.95 15.808 1.778-22.14 3.723Zm-218.462 14.81 7.157-14.875-6.689 25.463Zm307.024-10.451 12.257-4.558-4.59 8.962Zm-266.2-4.632 14.224 8.552-20.916 2.207Zm279-.005 7.55 5.029-12.148 3.948Zm-299.3 1.716 19.8-1.759-6.689 10.755Zm-12.732-2.157.372 10.753-7.041 14.653Zm144.385 1.624 23.05-1.84-6.434 6.511ZM282 605.473l16.559 3.811-22.975 2.68Zm87.954-.421-5.177 7.582-7.777 2.78Zm-7.785 2.639 7.531-2.996-12.723 10.173Zm20.735 4.082 12.767-7.1-5.026 8.717Zm-214.034-7.125 15.119 8-21.719 1.947Zm-21.3 1.375 20.8-1.418-6.6 9.952Zm248.793-1.666 7.532 2.573-12.582 6.187Zm-52.6 3.683 21.327-3.937-1.665 1.237-4.6 3.414Zm19.968-2.387 2.369-1.758.687-.457-3.492 2.785Zm-172.019-2.258 15.811 7.359-22.348 1.79Zm-22.14 1.137 21.622-1.173-6.54 9.153Zm113.706.8 22.912-2.014-6.455 5.8Zm23.609-2.053 16.226 2.893-22.653 2.883Zm71.9-.041-5.214 8.078-7.793 1.151Zm-4.379 8.088 12.911-8.119-5.15 8.44Zm-48.208-5.145 22.035-3.114-6.376 4.876Zm-211.451 10.38 6.64-13.53-7.879 24.57Zm234.342-13.6 15.114.877-21.436 3.957Zm22.013 1.2 7.579-1.375-12.881 9.14Zm17.008-1.393 7.528 1.43-12.718 7.077Zm-8.392-.15 7.553.113-12.837 8.064Zm-257.679-.148-1.319 11.176-6.538 13.329Zm93.279-.168 16.293 6.634-22.795 1.722Zm-22.809 1 22.271-1.026-6.507 8.363Zm-71.354 10.474L127 602.127l-3.823 10.016-2.818 4.785Zm305.2-7.869 12.054-3.774-4.51 8.8ZM127.6 601.811l-1.291 5.038-.459.755.183.1-.185-.1-1.307 2.219Zm311.252-.044Zm-33.873 5.137 12.379-5.258-4.8 8.816Zm12.964-5.4 7.423 4.286-12.238 4.552Zm-178.419-.256 16.564 5.834-23.053 1.741Zm-23.3.957 22.734-.976-6.5 7.587Zm-124.953 15.3 7.856-16.554-4.058 25.944Zm217.082-14.4 22.573-2.246-6.476 5.116Zm23.352-2.308 15.7 1.956-22.135 3.128Zm-232.024-.471 3.654 9.606-7.707 16.291Zm-30.462 17.877 8.49-18.008-1.467 26.09Zm194.933-18.055 16.625 4.969-23.119 1.845Zm-23.6 1.012 23-1.02-6.508 6.829Zm-162.36-1.522 6.836 8.357-8.3 17.7Zm272.791 3.007 21.275-3.372-6.359 4.236Zm-85.66-2.591 23.068-1.15-6.529 6.091Zm23.717-1.159 16.482 4.052-22.992 2.021Zm666.562-.566 134.844 100.181-224.134.82Zm-174.136 20.37 173.565-20.384-89.215 100.916Zm-410.443-18.081 2.3-1.531 1.6-.948-4.11 5.657-7.527 2.99Zm-37.6-.03 22.016-2.521-6.483 4.456Zm63.4 3.474 12.521-6.061-4.993 8.633Zm-40.485-6.087 14.974 1.02-21.395 3.391Zm53.649-.2 7.341 3.418-12.352 5.247Zm-119.6 1.014 22.932-1.356-6.561 5.38Zm23.645-1.377 16.138 3.1-22.67 2.256Zm104.33 3.833 12.157-4.395-4.739 8.678Zm12.709-4.475 7.292 4.926-12.04 3.769Zm-302.233 6.779 4.408-7.245 13.043 9.392-19.828 1.761Zm186.753-6.27 22.581-1.621-6.587 4.692Zm23.389-1.664 15.589 2.123-22.128 2.533Zm49.643 6.812 12.673-6.974-5.149 8.4Zm-234.633-7.161 14.138 8.93-20.826 1.42Zm-20.189.9 19.7-.971-6.686 10.346Zm268.218-1.045 7.306 2.408-12.484 6.043Zm-43.628 2.574 21.2-2.808-3.987 2.355-2.465 1.457Zm-182.547-3.11 15.041 8.368-21.66 1.175Zm-21.223.572 20.725-.633-6.618 9.543Zm230.13-.664-5.3 7.717-7.575 1.374ZM103.817 609.97l7.483-15.535-5.4 25.656Zm276.505-7.77 12.807-7.995-5.259 8.107Zm-181.66-8.047 15.74 7.71-22.315 1.032Zm-22.094.344 21.581-.4-6.579 8.743Zm199.315 3.076 4.358-2.578 4.4-.956-12.717 8.983Zm-153.6-3.71 16.228 6.964-22.787.978Zm-110.383-.045 1.969 10.318-7.358 15.293Zm87.594.262 22.257-.263-6.565 7.95Zm194.475-.346 7.309 1.24-12.618 6.944Zm-8.214.085 7.338-.1-12.72 7.94Zm-139.226-.216 16.5 6.136-23.063 1.023Zm-23.3.2 22.739-.233-6.572 7.171Zm117.6 1.639 21.987-1.928-6.59 4.025Zm22.935-2 14.82 1.151-21.331 2.826Zm-92.53-.166 16.559 5.239-23.142 1.154Zm-23.626.276 23.023-.3-6.6 6.408Zm183.882 2.981 11.953-3.6-4.665 8.524Zm36.388-3.732 18.425 24.088 10.656 18.871Zm-171.658-.029 16.407 4.285-23.027 1.358Zm-23.756.446 23.1-.458-6.635 5.666Zm137.966 4.293 12.27-5.116-4.947 8.525Zm12.885-5.258 7.176 4.162-12.146 4.38Zm66.1 33.965-1.62-2.148-9.995-13.244-10.863-18.619 27.863 41.164ZM297.63 592.695l22.959-.695-6.674 4.948Zm23.693-.7 16.045 3.292-22.682 1.628Zm181.212 33.835 97.688-34.287-66.141 81.779Zm-115.676-34.285-1.371 1.878-3.912.85Zm214.022-.108 45.561 52.267-111.791 29.622Zm-123.893-.249L502 625.828l9.4 25.668Zm-110.984 2 21.083-2.245-6.536 3.374Zm-280.463 14.77 8.109-17.028-2.775 25.885Zm237.443-16.049 22.586-.994-6.7 4.254Zm23.43-1.019 15.465 2.278-22.108 1.939Zm140.276 25.788-10.508-26 33.784 59.207Zm-392.523-26.32 5.174 9.107-7.946 16.744Zm20.161 13.847 7.092-14.446-6.72 25.219Zm234.08-13.45 21.937-1.335-6.693 3.58Zm22.949-1.389 14.638 1.268-21.234 2.26Zm-249.318-.178.272 10.944-6.978 14.222Zm280.447 5.643 12.429-5.926-5.128 8.332Zm13.1-6.161 7.106 3.271-12.256 5.1Zm-27.847 2.425.558-.288 5.049-2.234-6.882 4.266Zm35.992.907 12.06-4.238-4.889 8.4Zm12.624-4.322 7.037 4.818-11.937 3.6Zm-62.506 1.482 20.911-1.682-6.6 2.922Zm-70.326-2.067 16.333 4.511-23.053.7Zm-180.763 13.14 6.6-13.169-7.93 24.391Zm206.017-13.183 15.948 3.476-22.7 1Zm-23.748.015 22.989-.03-6.792 4.5Zm-26.61-.225 16.5 5.5-23.178.46Zm1.294-.017 23.14.238-6.746 5.23Zm-150.7 11.285 5.861-11.414-6.44 16.657-1.323 2.173Zm201.547-11.1 22.581-.367-6.817 3.8Zm23.471-.371 15.326 2.42-22.073 1.336Zm-224.047-.022-1.406 11.367-6.5 12.964Zm264.511 6.78 12.579-6.851-5.273 8.09Zm-259.08-6.852-2.413 9.3-.022.034.176.1-.177-.094-3.224 5.3Zm260.757.784 2.241-.828-4.686 6.792-7.334.1Zm-142.545-.934 16.444 6.434-23.09.3Zm1.123-.019 23.059.423-6.7 5.979Zm153.081-.183 7.08 2.238-12.388 5.907Zm-178.512-.338 16.171 7.293-22.8.234Zm.98-.028 22.763.515-6.662 6.753Zm125.908.722 21.856-.742-6.792 3.121Zm22.949-.773 14.414 1.369-21.083 1.7Zm-173.488-.443 15.681 8.064-22.3.264Zm.858-.042 22.261.5-6.632 7.535Zm192.608.939 2.6-.961 5.332.786-12.516 6.816Zm-265.058 8.744 2.455-3.9 2.815-4.47 1.008-1.6 12.96 9.777-19.73.972Zm48.774-10.033 14.976 8.738-21.621.4Zm.75-.061 21.56.382-6.626 8.333Zm-22.572-.085 14.064 9.311-20.757.635Zm.655-.085 20.677.152-6.645 9.138Zm-20.757.183 19.625-.184-6.691 9.942Zm-.8-.3.14.08Zm241.831 1.022 20.653-1.124-.981.362-2.727 1.007-2.919 1.078-.02.008Zm54.82 1.822 11.854-3.439-1.177 2.016-3.644 6.238Zm519.4 10.776 253.723-14.435-118.825 114.66Zm-540.144-9.811 12.193-4.968-5.091 8.237ZM99.835 599.466l7.758-16.067-4.1 25.677Zm329.006-16.184 6.93 4.033-12.038 4.23Zm-67-.406L377 585.421l-22.009.748Zm-253.7-.051 3.521 9.835-7.617 15.8Zm294.424 2.141 1.512-.559 5.6-1.663-2.059 2.966Zm-38.325-2.116 21.725-.154-6.877 2.647Zm22.924-.157 14.134 1.45-20.85 1.135Zm-48.836-.1 22.562.264-6.933 3.335Zm-1.926-.008 15.841 3.647-22.7.368Zm114.3-.306.014-.013Zm-60.332.317 20.25-.575-6.64 1.974Zm-77.78-.683 23.02.636-6.91 4.046Zm-1.6-.023 16.257 4.726-23.09.03ZM78.262 599.024l8.353-17.471-1.515 25.832Zm8.838-17.993 6.658 8.636-8.174 17.165Zm200.014-.13 23.189.94-6.866 4.78Zm-8.154 5.494 6.786-5.521 16.439 5.759Zm131.4-3.853 1.939-.576 6.5-1.46-10.419 4.9Zm-14.966-2.41 13.764 1.507-20.487.582Zm12.922 5.771 12.34-5.8-5.263 8.035Zm-9.148-5.784 19.614-.046-6.557 1.474Zm22.1-.132.278-.042 6.678 3.032-12.161 4.955Zm-48.726-.312 21.517.427-6.94 2.156Zm-110.521-.014 23.111 1.155-6.806 5.537Zm-7.915 6.283 6.738-6.3 16.393 6.729Zm115.748-6.315 14.964 2.653-21.9.154Zm59.424 3.408 11.967-4.089-5.041 8.12Zm12.546-4.177 6.782 4.707-11.839 3.428Zm-95.508-.171 22.517.894-7.045 2.85Zm-9.076 3.468 6.979-3.539 15.721 3.8Zm85.081-2.33 7.148-1.1 1.94-.159-2.729 4.143Zm-184.851-1.532 22.8 1.27-6.751 6.317Zm-7.723 7.095 6.7-7.1 16.124 7.62Zm178.731-7.163 18.556.442-5.946.913.036.208-.037-.208-.382.058Zm-4.617-.107 13.245 1.53-19.9.046Zm41.963-.1.007-.006-.007.006Zm-3.575.6 2.245-.627 5.042 4.514-.509.816Zm-10.283-.107 6.479-.533 1.883-.022.91.531-11.938 4.09Zm9.2-.566.716-.008-.2.307Zm1.251-.014.742-.009-.9.252Zm-330.276 14.762 7.413-15.092-5.441 25.419ZM445.3 577.521l.021-.019-.021.019Zm-124.957-.271 23.045 1.308-7.041 3.57Zm-8.671 4.213 6.954-4.292 16.177 4.932Zm69.476-4.406 21.188.993-6.967 1.649Zm-261.01 0 1.857 10.528-7.295 14.845Zm298.462-.062 16.632.831-5.787.476Zm-212.535 7.861 6.68-7.914 15.632 8.417Zm7.57-7.922 22.284 1.276-6.707 7.112Zm157.443 2.286 7.007-2.3 14.713 2.734Zm35.052-1.47 6.452-1.053 12.466 1.5Zm24.239-1.193 12.532.955-.61.007-1.9.022-1.94.022Zm9.631-.312.429.024.755.1Zm16.759 12.155.009-.007-1.324-1.464-8.569-10.941L465 597.495l-7.19-7.949-1.038-1.149-.009.008Zm-311.591-12.443-.821 2.123-.5.762Zm270.442.468 5.96-.536 11.168 1.392Zm10.518-.614 4.719-.079 8.563 1.092Zm-242.908 8.642 6.681-8.73 14.921 9.112Zm7.458-8.76 21.561 1.166-6.684 7.919Zm103.988-.237 23.244 1.649-6.99 4.314Zm-8.346 4.991 6.9-5.067 16.382 6.01Zm68.215-5.126 22.431 1.519-7.149 2.349Zm-9.4 2.9 7.094-3.044 15.578 3.943Zm95.4-2.364-3.593-.769 4.975.912.06.042Zm-299.919 7.479 4.476-8.28-2.876 6.292-2.032 3.11Zm249.51-8.3 20.654 1.528-6.925 1.13Zm56.392-.164 10.782 11.823 9.277 11.982Zm-67.009 1.684 7.044-1.78 14.382 2.784Zm-218.124 7.731 6.709-9.544 14 9.7Zm7.385-9.6 20.65.941-6.682 8.731Zm-24.022 3.6 2.719-4.161 12.885 10.169-19.653.184Zm3.308-4.25 19.569.606-6.707 9.541Zm251.536-.369 19.762 2-6.761.608Zm-277.139 13.988 7.042-14.048-6.769 25.013Zm308.056-14.181 2.521.316 4.391.953Zm-161.093-.069 23.175 1.894-6.923 5.085Zm-8.077 5.8 6.839-5.862 16.349 7.021Zm169.553-3.893-9.549-2.017 14.841 2.314Zm-42.647-.837 7.021-1.242 13.924 2.792Zm-258.151-1.355.176 11.145-6.931 13.821Zm198.189-.013 23.06 1.983-7.17 3.077ZM94.268 589.634l8-16.536-2.826 25.646Zm315.514-16.609 18.154 2.332-6.339.107Zm-90.428 3.745 7.078-3.809 16.09 5.124Zm-216.571-4.2 5.024 9.36-7.847 16.25Zm260.243-.051 22.279 2.137-7.236 1.828Zm34.345.5 6.883-.7 13.243 2.735Zm-44.116 1.794 7.2-2.529 15.406 4.06Zm64.308-2.534 5.55.276 10.013 2.151Zm-10.542-.031 6.507-.168 12.133 2.563Zm-270.194 10.647 5.892-11.2-8.841 22.568Zm6.373-11.21-3.015 11.493-4.048 7.684-1.189 1.887Zm293 .056.093-.116-.094.117Zm3.805-.2Zm-309.287 12.827 6.583-12.834-8 24.251Zm302.412-10.99-6.42-1.973 10.156 2.723Zm-188.384-2.157 22.863 2.034-6.854 5.875Zm-106.858-.032-1.5 11.573-6.483 12.624Zm99 6.655 6.784-6.672 16.084 7.946Zm65.5-7.337 23.3 2.364-7.124 3.833Zm-8.56 4.464 7.021-4.6 16.325 6.251Zm77.995-4.655 22.022 2.736-7.293 1.291Zm-10.206 1.641 7.3-2 15.187 4.152Zm73.883-2.044-.031.034Zm-14.042-.356 4.175.819 7.174 2.224Zm-85.01-.057 23.056 2.661-7.3 2.564Zm97.682-.066Zm-106.9 3.155 7.208-3.306 15.991 5.3Zm107.177-3.5Zm-.724-.02-.013.014Zm-212.862-.048 22.326 2.058-6.793 6.68Zm-7.673 7.465 6.746-7.491 15.592 8.772Zm210.046-4.352-10.822-3.279 16.9 4.04Zm-42.2-3.368 21.592 3.3-7.294.74Zm59.9 5.46.016-.015-.406-.363-5.531-5.56 10.455 9.969-.717-.642-.065-.059-.121.118.121-.118-.346-.31-.239-.213-.28-.251-.157.152.136-.17-.007-.005-.578-.517-.027.026.027-.026-.565-.506-.052-.046-.313-.28-.054.053-.018-.011.047-.061-.01-.007-.832-.745-.042.041.043-.041-.131-.116-.017.016-.024-.016.02-.019-.132-.118-.028.027.027-.027-.057-.05-.037-.051-.082-.074-.016.015Zm-70.635-4.531 7.364-1.439 14.9 4.2Zm59.057-1.492Zm-38.685-.278 20.857 3.781-7.19.186Zm22.96 3.729-12.661-3.759 19.541 4.1Zm-136.632-4.019 23.249 2.644-7.048 4.616Zm132.07-.016 6.326.742 11.261 3.461Zm-140.326 5.3 6.949-5.405 16.308 7.306Zm160.99-3.453-4.135-2.162 6.791 3.318Zm-50.477-1.406 7.384-.867 14.5 4.207Zm-181.4-1.135 21.581 1.96-6.75 7.5Zm-7.534 8.317 6.728-8.319 14.877 9.488Zm208.12-8.32 7.043.274 12.976 3.93Zm-9.843.191 7.309-.288 13.912 4.134Zm69.115 19.334-11.849-19.69 27.975 39.222Zm-112.816-19.979 23.019 3.337-7.423 2.029Zm80.913 3.5-8.733-3.557 13.942 4.989Zm20.3-3.623 17.135 20.354 11.76 20.155ZM108.3 581.935l7.676-15.617-4.154 25.457Zm227.016-12.991 7.338-2.782 15.873 5.461Zm-25.016-2.865 23.364 3.088-7.264 3.328Zm-8.8 3.916 7.151-4.109 16.264 6.484Zm-184.984-4.2 3.394 10.068-7.541 15.352Zm313.093 0-.016.017Zm2.766-.586 6.086 5.41 1.226 1.24.6.607.477.482.009-.008-.009.008 2.461 2.489.018-.015-.018.015.11.111.2.2.02-.016-.019.017.157.159.019-.017-.02.017.073.075.02-.017-.02.017.128.129.075.076.021-.018-.021.018.265.269.022-.019-.022.019.288.291.023-.02-.023.02.352.356.024-.021.015.016-.023.02.281.285Zm-263.925 9.039 6.735-9.143 13.95 10.09Zm7.436-9.172 20.645 1.74-6.73 8.321Zm76.256-.47 22.936 2.81-6.967 5.419Zm-8 6.136 6.881-6.231 16.051 8.271Zm168.657-6.3 5.593 1.5 9.378 3.855Zm-59.255-.4 22.926 4.005-7.534 1.472Zm66.159-.074 3.372 1.452 2.272 1.2 1.423.748.557.293.725.381.272.143Zm-271.889 9.633 3.019-4.441 2.04-3 1.711-2.517 12.827 10.564Zm195.821-7.741 7.466-2.235 15.728 5.6Zm-188.442-2.279 19.535 1.4-6.734 9.141Zm-68.026 16.814L95.4 563.42l-1.573 25.615Zm328.307-12.447-11.915-4.787 18.765 6.13Zm-319.59-5.019 6.494 8.914-8.067 16.672Zm334.409 4.409-6.048-4.884 10.652 8.1Zm-145.634-4.98 23.335 3.4-7.184 4.137Zm77.881-.09 22.745 4.654-7.623.9Zm-44.123-.074 23.418 3.819-7.406 2.809Zm-42.209 4.926 7.069-4.934 16.271 7.589Zm33.151-1.6 7.289-3.6 16.2 6.7Zm-156.387-3.759-3.122 8.049-1.893 2.784Zm247.67-.006 7.079 1.319 12.332 5.022ZM352.2 563.38l7.586-1.663 15.543 5.7Zm-124.1-1.83 22.388 2.852-6.89 6.24Zm177.438 5.233-13.38-5.288 20.81 6.155Zm-185.228 1.765 6.823-7.066 15.56 9.13Zm-99.923 7.358 7.356-14.681-5.5 25.22Zm251.515-14.7 22.423 5.264-7.669.3Zm24.04 5.2-14.219-5.5 21.849 5.794Zm-267.631-5.673 1.747 10.747-7.236 14.434Zm19.964 8.42 4.692-8.449-6.635 14.334-.809 1.238Zm212.781-7.619 7.686-1.069 15.3 5.772Zm28.811-1.156 7.581.791 13.69 5.5Zm73.733 26.106-11.37-26.177 32.01 53.163Zm-10.937-26.32 21.871 27.624 10.69 26.453Zm-34.1 5.391-10.587-5.482 17.122 7.78Zm-38.752-5.593 7.739.176 14.464 5.711Zm-9.57.413 7.751-.451 14.959 5.784Zm54.153 5.247-1.1-.569-8.507-5.532 14.251 8.511-.763-.4-.01.017.01-.017-2.692-1.4v.008l.005-.008-1.188-.617Zm176.869 25.583 112.351-32.072-66.787 84.342Zm112.97-32.142 66.282 59.355-133.148 25.086Zm-387.473-.173 23.457 4.557-7.552 2.261Zm-121.742-.295 21.622 2.765-6.829 7.072Zm-7.622 7.867 6.785-7.905 14.842 9.869Zm120.016-4.863 7.432-3.07 16.122 6.911Zm-57.743-3.134 23.025 3.6-7.089 4.948Zm-8.163 5.632 6.986-5.776 16.024 8.6Zm153.088-6.035 6.879 2.361 11.153 5.833Zm-274.07 13.493 7.007-13.681-6.831 24.851Zm162.012-13.951 23.427 4.178-7.327 3.62Zm-154.424-.141.078 11.356-6.9 13.449Zm145.755 4.349 7.2-4.443 16.233 7.862Zm166.811-4.515-.014.006Zm-299.7-.082-3.122 11.78-5.842 10.807Zm-6.366 10.88 5.937-11-8.989 22.637Zm266.334-11.37 6.293 3.22 9.3 6.09Zm-272.311 12.207 6.577-12.524-8.078 24.149Zm18.3-9.86 1.668-2.826-2.165 4.015-.351.495Zm178.421-2.877 23.473 5.3-7.7 1.688Zm-189.59-.028-1.587 11.794-6.479 12.307Zm262.108 6.514-12.838-6.556 20.456 8.6Zm31.05 7.775-.124-.123-11.343-14.264 22.862 25.747-.007.006.007-.006-2.191-2.184-.8-.8-.037.032.036-.032-.636-.634-.034.03.034-.03-.226-.225-.022.019.022-.019-.424-.423-.031.027.031-.027-.3-.294-.029.026.029-.026-.409-.409-.023.019.023-.02-.371-.369-.026.022.026-.023-.154-.153-.017.014.017-.015-.054-.055-.166-.165-.025.022.024-.022-.132-.132-.122-.122-.024.021.023-.021-.081-.08-.023.02-.015-.015.024-.02-.066-.066-.016.014-.023-.01-.007-.007.023-.021-.2-.2-.148-.149-.021.019.021-.019-1.676-1.67-1.007-1-.009.008.009-.008-.468-.467-.008.007.007-.007-.63-.628-1.087-1.084Zm-255.875-14.57 20.66 2.548-6.787 7.907Zm-7.5 8.737 6.772-8.741 13.91 10.483Zm-72.663 7.2 7.911-16.084-2.885 25.446Zm222.8-13.572 7.58-2.512 16.031 7.1Zm-214.374-3 4.884 9.616-7.765 15.8Zm281.227-.638 7.83 2.009 13.225 6.848Zm-157.044-.07 22.465 3.652-7 5.786Zm191.171-.026 12.279 12.059 11.751 15Zm-199.096 6.538 6.911-6.629 15.537 9.488Zm116.664-6.9 23.446 6.035-7.838 1.089Zm53.352 6.609-13.973-7.016 21.961 8.5Zm-242.651 2.379 3.584-5.052 3.2-4.514 12.781 10.966Zm179.26-7.648 7.731-1.928 15.918 7.265Zm-171.844-1.957 19.52 2.2-6.771 8.74Zm138.253-.14 23.524 4.966-7.48 3.09Zm-139.094-.254.073.047Zm130.186 3.88 7.341-3.932 16.194 8.13Zm-24.353-4.2 23.129 4.4-7.225 4.459Zm86.09-.014 23.35 6.755-7.963.464ZM259 557.936l7.1-5.305 16 8.917Zm128.667 1.787-14.644-7.209 22.73 8.052Zm-6.088-7.223 8.131 1.386 14.271 7.289Zm30.1 7.55-12.046-7.744 19.826 11.094Zm-33.592-.55L363 552.242l23.137 7.442Zm-35.114-6.11 7.878-1.312 15.766 7.4Zm85 10.524.011-.011-1.862-1.477L415.3 551.66l19.826 17.91-.67-.532-.451-.358-.045.05.045-.049-2.022-1.606-.033.036.033-.036-2.059-1.634-.913-.725-.016.018-.3.321-.013.013.917.744 2.029 1.649 1.323 1.075-12.586-9.577 5.456 3.784 2.606 2.117.242.2.012-.013.007.006.3-.321.016-.018-1.015-.805-.011.012Zm-56.69-12.469 8.184.7 14.89 7.477Zm-19.23.527 8.016-.668 15.569 7.492Zm9.416-.672h8.127l15.293 7.528Zm-149.169-.591 21.684 3.584-6.918 6.635Zm262.76 37.06 86.553-37.064-59.412 74.657Zm-57.566-28.174-11.194-8.948 19.259 13.829Zm-212.916-1.479 6.854-7.485 14.818 10.256Zm357.763-7.611 38.146 40.5-97.649 34.273ZM397 550.338l8.083 3.388 12.53 8.147Zm-88.113-.565 23.62 5.766-7.64 2.531Zm-192.2 15.1 7.611-15.2-4.215 25.275Zm183.028-12.1 7.492-3.4 16.152 8.387Zm113.674-3.432 9.6 7.513 11.415 11.475Zm-288.554-.147 3.272 10.307-7.482 14.934Zm278.941-.9 8.5 5.052 11.773 9.507ZM243 548.002l22.565 4.486-7.117 5.316Zm-82.232-.022-4.246 10.915-4.032 7.043-.453.667Zm74.163 6.039 7.01-6.178 15.522 9.849Zm40.249-6.31 23.245 5.226-7.369 3.948Zm125.374 8.522-13.573-8.6 21.977 11.484Zm-133.918-3.966 7.231-4.816 15.984 9.237Zm-76.367-5.145 20.7 3.37-6.856 7.487Zm-7.574 8.3 6.82-8.336 13.885 10.884Zm-26.761-.051 4.9-8.576-9.084 19.367Zm161.466-8.614 23.71 6.579-7.807 1.947Zm-9.466 2.348 7.652-2.832 16.1 8.631Zm76.954-3.051 8.6 2.816 13.931 8.956Zm54.412 20.262-12.565-20.267 27.775 36.941Zm-273.9-20.3-2.861 5.662-.95 1.314Zm-69.45 16.263 8.133-16.522-1.632 25.44Zm8.616-16.977 6.34 9.193-7.976 16.217Zm24.01 14.257 7.312-14.3-5.564 25.06Zm298-14.457 15.929 17.016 12.566 20.879Zm-290.128-.274 1.64 10.974-7.2 14.049Zm253.43 8.662-14.41-8.975 22.987 11.174Zm-63.695-9.1 23.784 7.4-7.979 1.329Zm-161.155 4.717 3.862-5.2 12.742 11.39-19.552-2.207.788-1.061.692-.932.908-1.223Zm4.513-5.2 19.528 3.02-6.819 8.335Zm146.848 2.127 7.822-2.239 16.038 8.859Zm-96.706-2.764 21.765 4.421-7.018 6.185Zm154.014-.093 8.705 2.064 14.7 9.313Zm-161.857 7.026 6.933-7.054 14.8 10.646Zm71.358-7.072 23.373 6.069-7.526 3.411Zm-124.445-.006-3.24 12.078-5.9 10.615Zm246.566 10.241-13.109-10.34 22.092 14.936Zm-252.939.327 5.992-10.82-9.154 22.737Zm122.055-6.586 7.372-4.305 15.968 9.552Zm60.824-4.373 23.828 8.227-8.15.679Zm44.355 9-14.927-9.115 23.491 10.578Zm-241.065 4.148 6.986-13.339-6.908 24.719Zm7.547-13.671-.018 11.578-6.878 13.108Zm179 1.4 8-1.61 15.956 9.064Zm-74.451-1.654 22.682 5.333-7.248 4.828Zm-86.159 4.308 2.641-4.338-5.933 10.87Zm195.687 4.613-15.508-9.042 23.822 9.047Zm9.549.011-15.269-9.12 23.727 9.842Zm-127.312-3.435 7.122-5.712 15.513 10.212Zm-95.887 6.451 6.583-12.237-8.177 24.085Zm7.106-12.378-1.682 12.029-6.481 12.013Zm209.5-.074 8.65 1.276 15.171 9.448Zm27.086-.3 9.252 4.589 13.513 10.8Zm-56.129.722 8.177-.945 15.847 9.24Zm89.227 14.689-12.692-15.68L435.2 567.13Zm-70.254-15.837 8.518.5 15.482 9.453Zm-9.663.17 8.355-.241 15.7 9.375Zm69.167 12.128-12.763-12.52 22.751 19.445Zm-2.882-13.787 12.384 10.759 13 16.343Zm-118.257-.107 23.51 6.932-7.694 2.849Zm-180 15.349 7.838-15.666-2.962 25.283Zm86.143-15.694 20.75 4.211-6.937 7.058Zm84.853 3.705 7.526-3.769 15.952 9.864Zm-92.52 4.14 6.879-7.923 13.86 11.3Zm208.273-8.088 10.357 7.009 13.175 13.1Zm-278.407-.179 4.75 9.878-7.7 15.378Zm273.947 10.133-14.09-10.937 23.31 14.8ZM258.448 536.42l22.815 6.2-7.392 4.317Zm-31.27-.125 21.868 5.281-7.132 5.72Zm22.852 5.078 7.247-5.229 15.51 10.579Zm-30.83 1.365 7.026-6.611 14.8 11.045Zm158.724-6.767 9.4 3.75 14.41 11.367Zm64.965 25.915-11.974-26.007 30.523 48.04Zm-143.021-26.151 23.652 7.815-7.874 2.254Zm131.186-.467 19.428 22.147 11.575 26.648Zm-140.463 3.171 7.693-3.2 15.933 10.168Zm-113.807-3.755 19.558 3.853-6.879 7.924Zm-7.527 8.75.7-.895 6.154-7.886 12.709 11.805Zm-.678-8.864-4.5 11.508-5.007 8.485Zm214.032 10.287-14.671-11.181 23.873 14.195Zm-257.606 3.4 7.562-14.819-4.288 25.133Zm38.6-6.314 5.1-8.667-9.519 20.024Zm-30.5-8.929 3.156 10.556-7.438 14.545Zm175.456-.019 23.8 8.722-8.065 1.623Zm120.766-.029h-.011Zm-130.341 2.029 7.871-2.6 15.91 10.462Zm67.453-2.713 9.317 2.826 14.943 11.6Zm-192.563-.07-4.347 8.593-3.323 5.263Zm225.868 13.191-13.761-13.274 23.941 19.322Zm-133.326-13.98 22.965 7.1-7.55 3.781ZM371.97 542.33l-15.042-11.235 24.112 13.382Zm-114.17-6.528 7.385-4.721 15.512 10.946Zm59.734-4.85 23.934 9.647-8.264.955Zm-112.592-.067 20.834 5.069-7.031 6.616Zm-7.766 7.385 6.949-7.505 13.849 11.723Zm187.352-7.875 10.423 5.966 14.086 13.816Zm-76.906 1.8 8.065-1.968 15.876 10.742Zm47.948-2.343 9.144 1.91 15.281 11.645Zm-120.77-.051 21.99 6.163-7.258 5.237Zm-98.071 13.824 7.285-13.95-5.644 24.937Zm190.079-13.958 24.056 10.589-8.473.244Zm34.937 11.151-15.292-11.169 24.178 12.479Zm-135.076-5.083 7.131-6.155 14.8 11.45Zm-60.123-6.352-3.363 12.4-5.96 10.435Zm-21.985-.075 1.535 11.212-7.171 13.69Zm277.856 20.419-13.08-20.492 27.406 34.56Zm-70.52-9.495-15.463-11.026 24.145 11.537Zm-191.744-.569 6.06-10.649-9.338 22.868Zm248.693 5.579-13.478-16.326 25.219 25.51Zm-92.316-15.155 8.27-1.289 15.829 11Zm28.679-1.564 8.933 1.034 15.5 11.578Zm-240.562 16.1 8.051-16.1-1.709 25.3Zm67.427-10.814 3.388-5.383-7.662 13.847Zm163.21-5.632 8.709.208 15.656 11.434Zm-9.546.547 8.487-.565 15.76 11.237Zm-212.558-.625 6.2 9.476-7.9 15.8Zm295.751-.091 14.834 14.087 13.143 21.2Zm305.732 30.849 139.556-30.992-73.26 90.36Zm140.162-31.038 100.16 70.076-173.5 20.38Zm-708.271 12.787 6.982-13.024-7 24.629Zm7.523-13.28-.116 11.816-6.873 12.778Zm.329 11.931 6.6-11.971-8.294 24.057Zm239.96-11.974 12.084 9.147 13.739 16.974Zm-232.866-.042-1.781 12.282-6.5 11.738Zm113.076-.246 23.131 8.018-7.722 3.215Zm-8.847 3.771 7.538-4.189 15.518 11.312Zm-81.646-4.887 19.609 4.7-6.951 7.506Zm-7.6 8.314 6.9-8.382 12.691 12.242Zm211.1 5.175L373.23 525.78l24.435 18.59Zm-206.227-14.322-2.644 4.288-1.211 1.672Zm190.542-.825 10.246 4.813 14.627 14.11Zm-129.345-.411 22.134 7.074-7.4 4.73Zm-8.295 5.4 7.25-5.679 14.806 11.86Zm-21.847-5.77 20.936 5.955-7.136 6.159Zm-7.885 6.909 7.035-7.075 13.847 12.155Zm78.421-7.18 23.312 8.973-7.908 2.616Zm-9.1 3.124 7.707-3.626 15.524 11.68Zm-153.968 11.275 7.782-15.282-3.03 25.163Zm8.286-15.69 4.624 10.146-7.651 14.991Zm57.734-.275-2.722 3.76-1.094 1.328Zm-9.488-.073-4.747 12.1-5.2 8.534ZM376 534.741l-14.72-13.658 24.6 17.6Zm-204.71-5.86 5.3-8.732-9.955 20.653Zm120.268-8.9 23.5 9.959-8.111 1.979Zm68.486-.32 9.98 3.677 14.968 14.174Zm35.212 16.375-13.973-16.57 25.389 24.3Zm-113.075-13.62 7.892-3.029L305.6 531.43Zm-99.981-3.28-5.171 10.2-3.9 5.969Zm268.815 38.237 77.585-38.648-53.87 68.6Zm78.377-38.943 32.551 31.671-86.515 37.049Zm-278.921-.086 22.3 8.017-7.555 4.2Zm-8.482 4.838 7.384-5.182 14.82 12.279Zm138.28-5.287 11.646 7.531 14.214 17.216Zm-15.334 13.483-14.964-13.583 24.583 16.5Zm-231.656.666 7.529-14.464-4.371 25.026Zm167.145-14.549 23.7 10.978-8.329 1.3Zm-108.968 0 19.683 5.581-7.036 7.076Zm-7.694 7.868 2.753-3.153 4.213-4.824 12.681 12.691Zm-42.43-8.156 3.043 10.812-7.408 14.186Zm149.412 1.969 8.095-2.392 15.533 12.4Zm58.073-2.677 9.682 2.6 15.191 14.1ZM220 516.461l21.059 6.869-7.256 5.685Zm-35.029 1.984 1.452-2.054-3.986 6.163Zm27.007 4.429 7.133-6.63 13.854 12.6Zm212.16 18.978-12.4-25.616 29.251 43.62Zm-249.776-25.875-3.494 12.735-6.036 10.262Zm135.225-.223 23.913 12.033-8.564.571Zm44.756 13.408-15.126-13.415 24.473 15.368Zm52.448 6.984-13.447-20.468 26.951 32.2Zm-227.1-14.435 3.989-6.12-9.065 16.155Zm-11.758 4.284 6.14-10.488-9.542 23.027Zm243.724-10.676 17.48 17.772 12.186 26.466Zm-112.09 1.314 8.315-1.709 15.528 12.751Zm34.814 11.109-15.3-12.908 24.116 13.119Zm9.791.242-15.233-13.189 24.308 14.234Zm-6.038-13.421 9.381 1.6 15.335 13.922ZM144.848 528.08l7.273-13.625-5.736 24.852Zm247.935-13.758 13.862 11.525 13.555 21.236Zm-240.128-.174 1.432 11.462-7.161 13.359Zm410.053 36.107 96.676-36.126-58.528 76.627Zm97.346-36.276 53.7 44.674-112.308 32.058Zm-351.373.839 8.553-.975 15.514 13.086Zm19.24-1.119 9.089.674 15.427 13.683Zm-9.8.117 8.813-.183 15.484 13.4Zm92.038-.342h-.008Zm-151.589-.038 22.483 9-7.728 3.635Zm-89.18-.142-1.89 12.552-6.533 11.481Zm-7.1 11.679 6.639-11.723-8.429 24.064Zm87.588-7.295 7.535-4.658 14.841 12.7Zm-95.33 8.022 6.99-12.731-7.106 24.575Zm7.512-12.913-.215 12.067-6.883 12.476Zm220.371 15.908-14.3-16.579 25.322 22.891Zm-269.177-1.291 7.986-15.722-1.788 25.2Zm8.467-16.108 6.061 9.765-7.847 15.411Zm69.746-.6-5.3 8.6-2.879 3.88Zm175.667-.067 11.179 6.01 14.524 17.224Zm-139.416-.658 21.206 7.815-7.393 5.187Zm-8.176 5.894 7.246-6.168 13.869 13.055Zm-20.628-6.314 19.779 6.485-7.135 6.632Zm-7.8 7.408 7.042-7.562 12.681 13.155Zm75.749-7.841 22.688 10.013-7.917 3.038Zm-82.582-.276-5 12.68-5.381 8.553Zm73.658 3.884 7.7-4.1 14.865 13.134Zm-63.881-2.86 1.066-1.3-3.559 4.746ZM179 516.157l5.489-8.766-10.387 21.245Zm11.462-9.521-5.885 11.594-4.393 6.464Zm179.83 16.359-14.51-16.435 25.132 21.425Zm-172.169-16.539-7.589 10.481-.858.982-2.161 2.475Zm-69.837 14.6 7.742-14.93-3.116 25.08Zm8.243-15.3 4.5 10.421-7.617 14.632Zm138.857-.335 22.914 11.081-8.126 2.4Zm79.419-.277 10.718 4.614 14.727 17.078Zm37.44 19.98-13.7-20.27L405 534.787ZM266.2 508.358l7.889-3.516 14.892 13.57Zm-30.62-4.369 21.377 8.8-7.545 4.665Zm-43 3.7 2.94-3.981-8.095 12.342Zm34.656 1.652 7.374-5.685 13.89 13.52Zm150.651-5.881 13 9.293 13.842 21.07Zm-190.53 6.49 4.49-6.64-10.255 18.015Zm-5.138-7.059-3.634 13.1-6.124 10.1Zm176.535 15.849-14.649-16.195 24.877 19.961Zm-74.594-16.321 23.159 12.181-8.355 1.718Zm-108.42 10.236 6.233-10.335-9.766 23.212Zm-34.22 3.561 7.511-14.137-4.466 24.957Zm64.957-14.165 19.9 7.423-7.249 6.17Zm-7.923 6.932 7.133-7.136 12.69 13.635Zm-49.007-7.23 2.934 11.078-7.395 13.852Zm125.144 2.864 8.1-2.885 14.921 14.009Zm68.465-3.391 10.283 3.344 14.861 16.825Zm63.854 24.362-12.69-25.078 28.147 39.752Zm-113.8-25.443 23.421 13.34-8.605.981Zm54.536 15.63-14.731-15.88 24.589 18.53ZM177.3 499.665l-1.993 12.842-6.581 11.241Zm-24.345 13.23 7.276-13.323-5.842 24.8Zm17.229-1.866 6.689-11.494-8.583 24.108Zm223.886-11.641 15.9 14.211 12.607 26.048Zm-110.64 2.162 8.326-2.207 14.944 14.452Zm-122.677-2.227 1.329 11.725-7.166 13.047Zm1.786 11.82 7.014-12.46-7.229 24.557Zm140.046-12.472 23.7 14.553-8.88.185Zm29.515-.01 9.879 2.19 14.935 16.51Zm-162.045-.088-.315 12.335-6.906 12.2Zm73.564-.026 21.572 9.828-7.716 4.112Zm93.6 15.427-14.781-15.529 24.29 17.148Zm-102.141-10.655 7.521-5.178 13.921 14Zm92.046 9.9-14.812-15.143 23.988 15.819Zm-126.3-15.145-7.135 11.554-3.835 4.93Zm191.943-.143h-.005Zm-100.314 1.286 8.579-1.474L316 512.628Zm29.111-1.918 9.507 1.143 14.977 16.141Zm-10.088-.294 9.167.193 14.991 15.741Zm-9.69.671 8.861-.678 14.987 15.322Zm-100.118 2.91 3.109-3.591-10.419 13.689Zm-9.455-4.1-5.254 13.272-5.574 8.552Zm186.421 19.843-13.875-19.95 25.95 27.758Zm476.7 11.325 190.5-31.465-90.3 101.564Zm191.118-31.5 163.243 87.218-253.617 14.423ZM121.8 510.584l7.938-15.371-1.875 25.14Zm92.361-15.564 20.043 8.4-7.378 5.688Zm-27.395 8.74 5.689-8.782-10.829 21.826Zm177.28-8.787 12.239 7.343 14.035 20.762Zm-233.829-.113 5.934 10.061-7.807 15.055Zm75.883 6.595 6.491-6 .746-.69 12.708 14.13Zm-7.392-6.794-6.513 12.808-4.808 6.8Zm9.783-.232-10.517 14.518-1.019 1.095-3.126 3.358Zm43.356-.755 21.792 10.9-7.906 3.523Zm177.822 39.347 70.225-39.456-49.228 63.391Zm-186.582-35.188 7.686-4.64 13.958 14.5Zm257.674-4.665 28.223 24.886-77.548 38.63Zm-300.491 4.105 3.94-5.1-10.888 16.36Zm-5.181 1.24 4.924-7.006-11.3 19.564Zm-58.435 6.412 7.717-14.606-3.211 25.032Zm53.477-14.813-3.78 13.475-6.223 9.937Zm-45.261-.117 4.389 10.707-7.6 14.3Zm220.954 19.44-13.988-19.548 25.453 25.708Zm-182.238-9.792 6.338-10.191-10.009 23.428Zm76.7-10.228 22.037 12.03-8.117 2.892Zm-9 3.5 7.871-4.065 14 15.007Zm99.815-4.394 11.569 5.632 14.158 20.358Zm-129.119-.043 20.218 9.417-7.526 5.181Zm-8.221 5.912 6.474-5.48.887-.75 12.732 14.648Zm177.482 18.085-12.886-24.449 27.174 36.328ZM209.369 491.68l4.313-4.693-14.5 18.758Zm-59.624 9.056 7.509-13.838-4.574 24.925Zm228.241-13.941 14.6 11.27 12.89 25.473Zm-220.221-.17 2.827 11.358-7.4 13.542Zm52.061-.092-8.533 13.806-4.547 5.551Zm-24.562-.19-2.105 13.152-6.643 11.014Zm-7.154 11.068 6.753-11.281-8.756 24.188Zm90.857-11.595 22.308 13.218-8.351 2.214Zm107.876-.178ZM259.7 488.604l8.081-3.45 14.043 15.528Zm94.027 15.617-14.053-19.09 24.969 23.788Zm-192.663-6.174 7.295-13.048-5.963 24.79Zm7.8-13.238 1.227 12-7.184 12.762Zm1.684 12.1 7.054-12.209-7.37 24.577Zm7.537-12.25-.42 12.62-6.944 11.933Zm22.115-.214-5.515 13.866-5.766 8.527Zm17.883-.394-12.567 17.344-4.914 4.917Zm120.841-.236 10.974 4.125 14.23 19.887Zm-131.95-.686-7.093 13.92-5.182 7.017Zm70.945-.209 22.609 14.475-8.613 1.479Zm-83.33 8.757 5.889-8.776-11.278 22.387Zm35.371-9.231 20.409 10.482-7.694 4.644Zm38.391 2.5 8.314-2.786 14.089 16.061Zm-46.793 2.862 7.5-5.744 12.764 15.184Zm120.686 12.673-14.085-18.593 24.508 21.982Zm-134.192-13.277 4.687-5.776-12.993 19.23Zm79.131-6.392 22.931 15.8-8.9.681Zm40.236-.175 10.449 2.79 14.263 19.375ZM202.9 487.4l5.314-7.257-12.245 20.885Zm128.415 10.65-14.092-18.074 24.077 20.287Zm-54.034-16.055 8.576-2.066 14.136 16.606Zm252.467 36.17 84.532-38.407-51.98 70.079Zm-218.9-21.6-14.058-17.011 23.283 17.2ZM615 479.522l44.572 34.078-96.635 36.111Zm-294.134 17.263-14.081-17.546 23.665 18.7ZM130.3 494.124l7.906-15.053-1.97 25.119Zm186.19-15.335 9.983 1.6 14.266 18.833Zm-177.8-.036 5.814 10.368-7.783 14.729Zm147.829 1.072 8.87-1.279 14.181 17.16Zm90.114 22.2-13.012-23.763 26.311 33.269Zm-70.558-23.9 9.567.542 14.252 18.279Zm-9.974.382 9.2-.415 14.221 17.719Zm-78.9 4.667 5.146-5.243L205 499.995Zm-19.078-5.546-3.937 13.879-6.337 9.783Zm165.046-.652 13.508 8.806 13.072 24.8Zm-125.038 0 20.633 11.605-7.881 4.071Zm422.334 36.779 115.49-36.8-61.78 81.48Zm-468.976-26.816 6.458-10.052-10.278 23.67Zm585.1-10.108 77.644 50.6-139.5 30.979ZM229.52 481.74l2.11-1.439 5.553-3.789 12.8 15.74Zm132.638-5.679Zm-143.491-.25L209 491.431l-5.107 5.9ZM145 489.13l7.71-14.31-3.319 25.023Zm82.336-14.342-14.161 19.526-.9.836-4.589 4.244Zm-74.131-.253 4.28 11-7.6 14Zm257.3 38.979 64.091-39.749-45.286 58.866Zm-217.217-40.219-2.227 13.485-6.718 10.8Zm282.251-.042 24.8 19.563-70.19 39.435Zm-289.456 10.842 6.833-11.082-8.951 24.3Zm22.2-11.362-5.783 14.462-5.96 8.48Zm38.206-.659 20.885 12.79-8.093 3.456Zm-31.187-.039-7.634 14.946-5.52 7.143Zm-57.332 13.549 7.523-13.562-4.694 24.93Zm8.03-13.789 2.723 11.65-7.416 13.25Zm71.662 4.423 7.847-4.679 12.85 16.32Zm-21.716 1.264 5.285-6.182-14.692 21.4Zm-13.45 2.429 6.1-8.753-11.745 22.937Zm-16.326-8.868-.525 12.924-7 11.688Zm-7.57 11.95 7.108-11.976-7.528 24.631Zm184.4 10.85-13.082-23.042 25.535 30.512Zm-193.81-10.329 7.329-12.791-6.1 24.814Zm7.827-12.924 1.124 12.3-7.219 12.5Zm48.135 4.47 5.786-5.486-19.529 24.448Zm124.248-5.565 12.587 6.716 13.185 24.084Zm-138.595 7.108 5.673-7.418-13.123 22.036Zm137.707-7.827Zm-93.424-.976 21.169 14.046-8.331 2.792Zm-1.03-.623 12.9 16.922L246 471.268l2.266-1.15Zm-17.586-.82-15.5 21.353-1.044.884-4.923 4.166Zm-9.006-.615-10.637 17.17-5.578 6.068Zm-21.283-.324-4.1 14.3-6.462 9.631Zm144.033 22.193L337.1 465.302l24.841 28.018Zm-150.756-13.08 6.591-9.918-10.568 23.938Zm64.491-10.314 21.485 15.378-8.6 2.072Zm72.6-.2 11.8 4.926 13.242 23.322Zm-81.967 2.93 8.292-3.449 12.956 17.548Zm81.174-3.493Zm-196.986 14.541 7.892-14.763-2.076 25.135Zm8.37-15.046 5.7 10.685-7.776 14.43Zm86.124 4.416 6.315-5.531-21.346 26.261Zm-9.308.735 5.793-6.407-16.141 23.135Zm114.207 14.975-13.122-21.574 24.209 25.741Zm-65.052-21.7 21.835 16.807-8.9 1.283Zm-49.4-.044-8.152 15.918-5.839 7.2Zm-7.246-.015-6.06 15.084-6.163 8.416Zm830.633 34.691 295.079-34.848-131.753 122.112Zm-783.676-32.7 8.558-2.753 13.013 18.2Zm-62.035-2.774-2.355 13.841-6.809 10.6Zm123.083-.281 11.128 3.379 13.261 22.555Zm-130.357 10.814 6.929-10.9-9.168 24.451Zm129.64-11.255Zm-113.271 8.621 6.309-8.712-12.211 23.475Zm-57.141 5.218 7.719-14.04-3.437 25.052Zm8.21-14.285 4.174 11.315-7.608 13.715Zm121.061-.013 22.222 18.333-9.235.417Zm44.139 20.667-13.106-20.846 23.638 23.659Zm-81.142-21.364-16.683 22.967-2.941 2.251-3.441 2.634Zm-26.79 7.47 6.014-7.507-13.959 23.062Zm53.746-5.719 8.86-1.99 13.073 18.871Zm120.549 37.544 58.9-39.7-41.9 54.9Zm-87.582-20.283-13.034-19.43 22.649 19.974Zm10.365.6-13.075-20.13 23.121 21.743Zm-2.835-20.3 10.546 2.028 13.252 21.789Zm-118.754-.282-.636 13.249-7.065 11.461Zm118.1-.056Zm140.639 0 22.051 15.309-64.05 39.726Zm-266.366 11.73 7.18-11.763-7.707 24.723Zm-20.477 1.372 7.553-13.31-4.827 24.972Zm8.048-13.492 2.626 11.956-7.444 12.993Zm107.793 1.087 1.679-.209 7.524-.938 13.128 19.57Zm20.19-1.336h.019l8.483.712 1.535.129 13.226 21.03Zm-10.317.16 2.577-.055 7.016-.153 13.18 20.291Zm-114.571 12.124 7.378-12.557-6.252 24.878Zm7.862-12.634 1.021 12.61-7.268 12.245Zm51.092-.394-11.511 18.549-5.994 6.108Zm5.254 3.86 6.787-5.442-22.956 27.721Zm-27.2-6.617-4.283 14.758-6.6 9.481Zm286.752 39.4L576 453.31l-46.67 64.468Zm75.678-39.908 37.738 26.192-84.494 38.39Zm-369.269 9.423 6.739-9.79-10.885 24.236Zm24.6-3.331 6.245-6.5-17.433 24.56Zm22.727-7.465-17.784 24.458-5.7 3.888-1.062.726Zm-22.61-.606-8.657 16.861-6.147 7.191Zm-7.465-.807-6.348 15.716-6.373 8.333Zm-6.188 7.048 6.534-8.656-12.707 24.022Zm8.38-1.289 6.342-7.538-14.767 23.991Zm23.088-2.659 7.227-5.247-24.447 28.953Zm-40.469-5.274-2.491 14.221-6.916 10.408Zm-62.348 14.149 7.9-14.5-2.191 25.191Zm54.99-3.856 7.042-10.723-9.409 24.636ZM155.6 447.423l5.594 11.014-7.78 14.158Zm89.633-.158-12.321 19.83-6.377 6.046Zm131.969 38.376 54.469-39.421-38.956 51.4Zm55.598-40.172 19.8 11.869-58.867 39.674Zm-168.553-.259L245.4 471.095l-3.254 1.94-3.876 2.311ZM161.7 458.458l7.746-13.794-3.568 25.117Zm40.838-13.875-.752 13.6-7.15 11.244Zm-32.607-.125L174 456.095l-7.637 13.459Zm24.914 11.537 7.268-11.564-7.906 24.851Zm45.6-5.585 6.665-6.5-18.627 25.785Zm-65.965 5.743 7.6-13.079-4.976 25.051Zm11.075-.846L193 442.964l-6.424 24.973Zm7.917-12.364.917 12.94-7.333 12.012Zm-10.9 0 2.52 12.285-7.491 12.75Zm76.2 4.031 7.655-4.964-25.878 30.026Zm-36.121-5.15-4.474 15.237-6.758 9.332Zm18.255-.769-9.159 17.783-6.45 7.134Zm-25.229 9.506 6.9-9.663-11.225 24.557Zm58.186-11.1-19.892 27.289-5.915 3-1.579.8Zm-40.641-.078-6.648 16.366-6.594 8.233Zm382.168 39.894 97.751-39.894-53.172 73.979Zm98.436-40.088 62.2 37.3-115.448 36.773Zm-459.512-.4-13.1 21.048-6.74 5.9Zm-19.055 7.319 6.67-7.522-15.57 24.855Zm-8.445.246 6.769-8.585-13.225 24.568Zm135.719 29.7 50.632-38.989-36.375 48.284Zm414.525.572 149.42-39.875-71.748 90.492Zm150.065-39.977 118.593 59.134L855.3 527.226Zm-659.375 4.511 8.086-4.6-27.3 30.991Zm146.638-4.979 17.94 9.042-54.426 39.383Zm-196.5-.411-2.635 14.629-7.04 10.226Zm31.076 6.35 7.07-6.411-19.776 26.859Zm-38.538 3.717 7.173-10.561-9.676 24.856Zm73.327-11.465-20.953 28.7-7.866 3.272Zm192.128 38.608 67.092-40.05-42.291 59.604Zm67.936-40.485 32.485 20.173-74.86 39.562ZM155.7 446.624l7.917-14.266-2.32 25.287Zm8.39-14.481 5.493 11.36-7.81 13.91Zm112.922 3.739 8.53-4.162-28.734 31.88Zm-66.154-4.162-.872 13.967-7.251 11.042Zm-7.776 11.167 7.372-11.381-8.126 25.018Zm46.655-11.426-9.662 18.7-6.754 7.03Zm13.837-.676-13.869 22.228-7.1 5.692Zm-32.494-.378-4.68 15.746-6.93 9.182Zm117.82 38.337 47.284-38.449-34.094 45.486Zm-54.93-38.767-22.045 30.145-2.637.848-5.62 1.808Zm-123.89 13.554 7.788-13.574-3.713 25.223Zm8.269-13.739 3.973 11.984-7.684 13.219Zm23.471-.313.809 13.293-7.417 11.8Zm-7.988 12.116 7.531-12.145-6.612 25.108Zm30.123-2.62 7.086-9.538-11.6 24.915Zm173.554-9.711 16.378 6.693-50.587 38.952Zm-153.79 7.3 7-7.461-16.375 25.666Zm-60.919 5.269 7.664-12.871-5.142 25.169Zm8.143-12.958 2.418 12.629-7.557 12.526Zm50.882-.032-6.963 17.039-6.821 8.113Zm15.865 5.352 7.47-6.261-20.9 27.831Zm28.914-2.992 9-3.644-30.221 32.714Zm-51.419 4.524 7.019-8.5-13.769 25.119Zm69.388-9.382-23.182 31.64-8.674 1.949Zm31.587 37.05 44.331-37.849-32.057 42.969Zm45.77-39.036 15.054 4.723-47.239 38.413Zm-85.364 2.822 9.5-3.045-31.782 33.511Zm-70.244-3.442-2.79 15.064-7.181 10.05Zm89.3-.2-24.389 33.214-3.507.437-5.617.7Zm-42.559-.263-14.634 23.4-7.459 5.415Zm-54.326 10.319 7.321-10.408-9.97 25.113Zm105.448 26.128 41.709-37.2-30.231 40.684Zm-65.417-37.482L248.6 441.858l-7.064 6.883Zm68.429-.6-25.676 34.874-9.618.209Zm-20.252 2.225L317 421.505l-33.441 34.278Zm60.507-2.7 13.918 3.057-44.283 37.807Zm-54.581 36.338 39.356-36.518-28.574 38.592Zm-2.088-.222-8.65-.726 37.232-35.814-27.065 36.665Zm-44.126-30.597 7.877-6.05-22.028 28.731Zm-14.287.654 7.338-7.361-17.2 26.441Zm65.43-6.014 10.653-1.558-35.228 35.028Zm36.121-1.883 12.938 1.633-41.659 37.152Zm-114.245-.2-4.9 16.287-7.119 9.029Zm-20.377-.163-1 14.364-7.371 10.852Zm109.9.587 11.325-.643-37.171 35.754Zm12.001-.671 12.079.412-39.3 36.464Zm-129.782 11.026 7.5-11.211-8.372 25.222Zm39.206-11.426-7.294 17.74-7.074 7.977Zm-18.251 9.048 7.289-9.414-12.008 25.3Zm221.016 29.688 60.665-40.064-38.614 55.377Zm-289.2-26.007 7.954-14.057-2.456 25.428Zm8.426-14.236 5.4 11.721-7.855 13.686Zm71.107 8.3 7.286-8.4-14.347 25.678Zm271.238-8.65 28.356 15.472-67.057 40.029Zm-232.13-.473-15.414 24.583-7.829 5.077Zm-72.563-.033.7 13.669-7.517 11.605Zm-8.077 11.882 7.633-11.965L203 441.432Zm-23.682.73 7.85-13.375-3.874 25.368Zm8.326-13.5 3.875 12.345-7.747 13.01Zm4.357 12.409 7.746-12.683-5.325 25.325Zm8.216-12.724 2.317 12.994-7.639 12.32Zm76.486 4.568 8.3-5.782-23.179 29.578Zm-7.867-6.214-10.7 20.558-7.384 6.7Zm-33.12-1.443-2.956 15.531-7.341 9.88Zm-7.729 9.656 7.491-10.263-10.3 25.406Zm349.977 31.12 84.25-41.4-46.504 67.593Zm-315.916-34.271 7.69-7.225-18.041 27.191Zm400.9-7.4 51.127 27.822-97.707 39.877Zm-369.23-1.27-16.218 25.792-8.218 4.676Zm-33.28-1.135-7.643 18.468-7.338 7.822Zm-11.178-.311-5.131 16.859-7.328 8.874Zm36.984 4.62 8.741-5.458L269.8 437.88Zm-44.484 3.618 7.512-9.289-12.449 25.717Zm11.5-1.235 7.571-8.283-14.957 26.246Zm-24.576-8.68-1.133 14.79-7.509 10.675Zm-8 10.73 7.641-11.056-8.648 25.469Zm213.262 27.784 55.29-39.781-35.487 51.651Zm-155.592-40.271L266.3 426.417l-7.719 6.469Zm211.852-.151 25.054 11.74-60.629 40.04Zm-186.046-.912-17.059 27.041-8.631 4.211Zm-84.514-.651.583 14.071-7.637 11.421Zm-8.186 11.667 7.756-11.8-7.056 25.5Zm59.7-4.967 8.061-7.054-18.925 27.926Zm-97.626 6.363 8.012-13.872-2.612 25.6Zm8.482-14.017 5.3 12.1-7.914 13.485Zm114.112 4.55 9.217-5.076-25.635 31.183Zm-87.345-5.41 2.214 13.383-7.739 12.132Zm-8.308 12.511 7.847-12.513-5.529 25.53Zm-12.66.49 7.929-13.2-4.05 25.555Zm8.4-13.286 3.78 12.727-7.828 12.817Zm48.262-.732-3.134 16.031-7.523 9.717Zm-7.9 9.47 7.683-10.125-10.65 25.742Zm33.1-10.851-8.014 19.233-7.623 7.647Zm45.34-.487-17.946 28.347-9.077 3.676Zm-56.779-.833-5.383 17.469-7.559 8.714Zm3.959 7.9 7.879-8.15-15.613 26.837Zm25.969-8.75-11.816 22.516-8.077 6.2Zm-37.651 8.935 7.757-9.162-12.929 26.159Zm165.009 30.123 50.738-39.309-32.8 48.351Zm-109.134-34.73 9.729-4.632-26.964 31.952Zm160.92-5.332 22.366 8.73-55.254 39.755Zm247.753 43.139 121.11-43.915-58.894 81.225Zm121.782-44.086 90.389 41.464-149.351 39.862Zm-556.3 6.824 8.455-6.847-19.853 28.653Zm-43.123-7.253-1.277 15.245-7.667 10.506Zm-8.152 10.534 7.807-10.912-8.945 25.754Zm97.087-11.18-18.892 29.722-9.561 3.063Zm-9.259 2.262 10.289-4.12-28.4 32.719Zm-88.74-5.714.462 14.5-7.776 11.251Zm316.626 41.888 73.7-41.935-41.212 62.111Zm-146.328-3.274 46.84-38.713-30.458 45.408Zm-178.614-27.14 7.9-11.654-7.316 25.754Zm399.412-11.88 42.927 20.844-84.21 41.376Zm-281.215-.15-19.907 31.182-10.1 2.364Zm-59.049-.159-8.411 20.035-7.928 7.45Zm167.427-.258 20.149 6.269-50.7 39.279Zm-148.3-.234-12.424 23.548-8.458 5.893Zm630.183 47.332 213.939-47.426-95.287 106.589Zm-675.073-47.462-3.326 16.567-7.726 9.553Zm889.692-.065 199.581 71.847-294.949 34.829Zm-897.778 9.358 7.9-9.994-11.051 26.112Zm26.041-2.22 8.212-8-16.314 27.438Zm56.908-4.494 10.909-3.531-29.948 33.484Zm-110.822-3.668 2.11 13.8-7.86 11.96Zm-8.421 12.315 7.969-12.362-5.751 25.765Zm-26.92 1.16 8.088-13.712-2.78 25.823Zm8.555-13.823 5.214 12.5-7.994 13.307Zm99.554 6.282 8.879-6.6-20.838 29.379Zm-22.778-6.611-5.655 18.118-7.811 8.545Zm-71.069 12.877 8.028-13.046-4.245 25.785Zm8.494-13.092 3.685 13.132-7.929 12.642Zm145.864-.478L328.93 419.27l-10.688 1.562Zm-91.262 8.623 8.028-9.032-13.453 26.639Zm123.6 28.868 43.467-38.042-28.406 42.767Zm44.667-39.049 18.3 4.233-46.8 38.681Zm-87.706 2.8 11.6-2.853-31.64 34.247Zm23.927-3.609-22.2 34.421-11.35.644Zm4.646 36.651 40.52-37.324-26.592 40.382Zm-26.215-2.22 35.618-35.826-23.523 36.232Zm10.026-33.864 12.372-2.074-33.5 35.013Zm2.668 34.337 37.923-36.582-24.973 38.215Zm-108.761-36.681-1.427 15.734-7.849 10.345Zm164.084-.044 16.732 2.53-43.425 38.005Zm-172.4 10.4 8-10.78-9.277 26.077Zm70.835-10.883-13.067 24.632-8.869 5.539Zm56.693.685 13.248-1.173-35.57 35.777Zm28.853-1.348 15.4 1.094-40.484 37.28Zm-14.907.122 14.247-.127-37.878 36.537Zm-90.489-.769-8.833 20.881-8.262 7.23Zm11.271 5.829 9.339-6.318-21.893 30.111Zm-19.439.481 8.572-7.831-17.067 28.066Zm-18.231-9.033-3.534 17.14-7.952 9.394Zm-25.371-.182.336 14.962-7.937 11.093Zm-8.466 11.293 8.064-11.523-7.6 26.056Zm25.533-1.985 8.137-9.867-11.486 26.515Zm22.637-9.918-5.95 18.81-8.09 8.369Zm-8.253 7.779 8.326-8.9-14.024 27.15ZM319 375.041l-13.75 25.778-9.319 5.132Zm-93.513-.462 2 14.24-8 11.8Zm289.822 41.865 65.268-41.885-36.907 57.36ZM216.935 386.72l8.113-12.232-6 26.05ZM581.4 374.103l36.678 15.561-73.66 41.914Zm-271.51 5.215 9.842-5.991L296.7 404.18Zm-119.9 7.349 8.184-13.575-2.966 26.089Zm14.268-.672 8.149-12.913-4.46 26.059Zm8.609-12.922 3.59 13.564-8.049 12.487Zm-14.229-.059 5.128 12.93-8.093 13.151Zm99.7-1.226-9.288 21.778-8.624 6.983Zm-43.692-1.276-1.594 16.262L245 396.967Zm35.128 7.428 8.969-7.642-17.88 28.717Zm-43.64 2.755 8.21-10.656-9.644 26.449Zm84.319-11.976-14.493 26.992-9.812 4.672Zm-9.7 3.986 10.393-5.617-24.259 31.607Zm-34.853-5.632-6.268 19.548-8.4 8.182Zm-14.679-.225-3.759 17.758-8.206 9.233Zm-8.551 8.967 8.406-9.744-11.958 26.972Zm14.666-1.117 8.656-8.754-14.649 27.7Zm385.209 36.075 100.694-45.608-49.554 73.44Zm-417.061-45.672.2 15.456-8.121 10.946Zm518.452-.181 71.435 29.647-121.054 43.895Zm-527.094 11.31 8.255-11.4-7.918 26.4Zm72.033-12.861-9.775 22.726-9.021 6.708Zm180.868 41.068 58.411-41.472-33.354 53.214Zm-147.286-41.5-15.293 28.286-10.355 4.146Zm206.568-.525 31.8 11.473-65.225 41.861Zm-249.15 6.93 9.4-7.428-18.77 29.389Zm-65.384-7.94 1.89 14.714-8.163 11.663Zm97.623 5.172 11.006-5.187-25.606 32.379Zm-106.334 6.813 8.278-12.116-6.273 26.38Zm-3.972-14.11 3.495 14.024-8.191 12.35Zm-8.746 12.771 8.292-12.8-4.7 26.38Zm50.946-13.233-1.772 16.827-8.284 10.044Zm-65.243 13.3 8.3-13.463-3.17 26.4Zm8.763-13.506 5.043 13.386-8.213 13.014Zm47.741 10.234 8.453-10.543-10.053 26.862Zm99.823-11.109-16.166 29.675-10.963 3.548ZM296 357.367l-6.614 20.339-8.736 7.981Zm48.031 3.6 11.691-4.7-27.086 33.17Zm-56.946 3.875 9.022-8.6-15.333 28.286Zm-6.162-8.762-4 18.42-8.489 9.069Zm38.914-.779-10.31 23.742-9.459 6.4Zm-47.744 9.594 8.705-9.621-12.484 27.469Zm194.753 30.585 52.743-40.838-30.37 49.571Zm53.664-41.492 27.93 8.246-58.374 41.448Zm-210.157 7.084 9.884-7.189-19.737 30.088Zm58.092-7.883-17.121 31.169-11.64 2.864Zm-113.682-.474.059 15.987-8.329 10.811Zm-8.844 10.98 8.47-11.3-8.267 26.794Zm110.667-7.768 12.457-4.132-28.719 33.983Zm26.037-6.566-18.174 32.786-12.405 2.079Zm63.529 39.649 47.991-40.072-27.835 46.344Zm-202.468-40.658 1.773 15.221-8.351 11.537Zm-8.893 11.843 8.472-12.021-6.579 26.76Zm260.328-12.025 24.8 5.661-52.707 40.81Zm-125.255 3.354 13.325-3.481-30.538 34.817Zm-63.386-3.615-6.991 21.186-9.112 7.764Zm24.808-.321L320.4 372.416l-9.943 6.053Zm-57.658-.316-1.963 17.435-8.543 9.9Zm23.544 7.946 9.426-8.443-16.083 28.92Zm-32.535 1.939 8.724-10.439-10.5 27.326Zm133.112-10.8-19.34 34.538-13.275 1.176Zm-76.483 6.776 10.414-6.919-20.8 30.83Zm-90.347-7.538 3.4 14.517-8.357 12.231Zm-8.907 12.643 8.46-12.709-4.961 26.752Zm68.936-12.74-4.271 19.132-8.8 8.9Zm136.34 39.12 43.964-39.234-25.652 43.465Zm-43.319-36.764 14.313-2.729-32.575 35.67ZM281.8 354.161l9.041-9.5-13.065 28.012Zm190.481-9.654 22.219 3.558-47.95 40.044Zm-264.62 13.188 8.444-13.375-3.4 26.769Zm8.9-13.384 4.96 13.864-8.355 12.9Zm197.41-.013-20.644 36.462-14.268.127Zm205.06 45.334 85.442-46-42.5 66.847Zm-209.066-7.666 40.509-38.36-23.762 40.889Zm-16.014-1.174 37.521-37.472-22.107 38.568Zm311.254-37.482 58.079 21.367-100.644 45.582Zm-306.181 1.681 15.446-1.853-34.87 36.543Zm52.539-2.373 20.083 1.825-43.926 39.2Zm384.984 52 163.231-52.375-72.8 93.86Zm-421.362-51.561 16.757-.826-37.484 37.434Zm17.439-.85 18.284.384-40.471 38.324Zm567.843-.132 140.971 46.552L927.6 436.031Zm-736.183-1.627-.092 16.559-8.566 10.688Zm79-.163-11.517 25.985-10.479 5.662Zm-88.074 11.01 8.717-11.21-8.657 27.238Zm77.454-5.736 11-6.613-21.963 31.6Zm-15.292-6.844-7.4 22.093-9.529 7.527Zm-9.744 7.138 9.872-8.258-16.9 29.578Zm-24.081-9.974-2.172 18.092-8.834 9.763Zm-30.448-.476 1.649 15.766-8.563 11.426Zm21.168 10.23 9.033-10.338-11 27.84Zm-30.27 1.5 8.691-11.941-6.914 27.19Zm57.33-12.034-4.563 19.9-9.156 8.732Zm-9.5 8.526 9.414-9.379-13.706 28.6ZM355.9 333.41l-12.21 27.235-11.077 5.22Zm-11.287 4.978 11.667-6.266-23.253 32.409Zm-104.386-6.393 3.3 15.044-8.548 12.129Zm-9.093 12.536 8.653-12.64-5.251 27.175Zm-5.366-14.449 4.878 14.379-8.523 12.8ZM216.7 343.37l8.611-13.31-3.645 27.187Zm112.034-13.569-7.852 23.068-9.993 7.269Zm-10.234 6.955 10.378-8.077-17.823 30.3Zm-44.422-8.453-.258 17.175-8.832 10.569Zm307.698 45.492 73.714-45.649-37.023 61.215Zm-317.031-34.756 8.994-11.133-9.088 27.735Zm391.511-11.3 48.309 15.356-85.4 45.974Zm-287.034-.732-12.969 28.588-11.753 4.717Zm-12.04 4.631 12.409-5.871-24.685 33.257Zm-45.074-6.734-4.884 20.724-9.547 8.552Zm-18.306-.27-2.4 18.8-9.16 9.627Zm8.4 8.653 9.833-9.255-14.418 29.248Zm-18.009.977 9.374-10.251-11.554 28.408Zm-21.429-11.714 1.519 16.354-8.808 11.327Zm-9.341 11.63 8.941-11.88-7.289 27.677Zm87.21-13.015-8.348 24.121-10.509 6.982Zm42.715-.032-13.813 30.044-12.507 4.148Zm-53.5 6.791 10.938-7.867-18.833 31.064Zm40.61-2.565 13.251-5.418-26.285 34.154Zm-120.7-6.894 3.192 15.611-8.765 12.045Zm-9.308 12.451 8.875-12.59-5.574 27.655Zm308.94 31.179 64.48-44.883-32.664 56.36Zm65.281-45.377 40.945 10.85-73.674 45.624Zm-330.477-.452-.438 17.839-9.133 10.461Zm-49.02-.349 4.793 14.932-8.715 12.73Zm-9.254 13.215 8.805-13.27-3.925 27.661Zm172.489-13.277-14.754 31.634-13.366 3.492Zm-123.852 11.04 9.309-11.068-9.566 28.291Zm48.783-11.993-5.24 21.62-9.986 8.359Zm61.207 4.706 14.207-4.9-28.086 35.087Zm-71.561 3.538 10.3-9.127-15.206 29.948Zm-8.551-9.621-2.651 19.57-9.527 9.49Zm-9.974 9.518 9.76-10.167-12.168 29.034Zm58.676-10.2-8.9 25.258-11.088 6.663Zm-11.408 6.543 11.567-7.633-19.958 31.882Zm72.8-8.153-15.807 33.372-14.347 2.735Zm349.878 53.418 129.318-53.786-57.849 83.449Zm130.019-54.02 105.237 31.2-163.156 52.351Zm-494.867 3.808 15.3-4.292-30.119 36.068Zm-126.837-4.669 1.378 16.987-9.083 11.242Zm248.149 43.875 57.065-43.891-29.123 52.141Zm-257.762-32.323 9.224-11.836-7.7 28.222Zm315.664-12.151 35.255 7.4-64.444 44.858Zm-146.886-1.79-16.995 35.277-15.475 1.856Zm-16.249 2.557 16.565-3.587-32.437 37.094Zm-80.557-4.837-5.626 22.583-10.477 8.154Zm160.4 42.72 51.009-42.783-26.2 48.446Zm-235.927-42.826 3.082 16.22-9.015 11.98Zm106.767-.139-9.5 26.49-11.739 6.305ZM250 317.381l9.129-12.562-5.933 28.2Zm200.687-12.97-18.345 37.377-16.78.827Zm96.671-.049 30.765 4.7-57.029 43.864Zm-252.7-.048-.634 18.557-9.472 10.359Zm29.561 8.885 10.826-8.991-16.088 30.707Zm-39.536 1.663 9.663-11.016-10.1 28.9Zm69.529-3.707 12.275-7.372-21.217 32.756Zm78.744-4.96 18.033-2.759-35.089 38.168Zm-117.46-3.648-2.927 20.392-9.939 9.356Zm157.148 41.59 45.987-41.626-23.754 45.184Zm-39.653-2.342 38.194-39.317-19.889 39.7ZM305.1 311.96l10.2-10.088-12.857 29.723Zm-60.3-10.185 4.707 15.524-8.938 12.678Zm207.12 40.447 41.78-40.462-21.672 42.289Zm67.611-40.484 27.169 2.557-50.974 42.753Zm-284.2 13.2 9.029-13.255-4.23 28.2Zm216.38-11.609 19.752-1.776-38.16 39.282Zm20.459-1.832 21.786-.6-41.736 40.431Zm22.474-.611 24.218.817-45.952 41.595Zm-114.366-3.665L370.1 325.053l-12.472 5.9ZM283 297.047l1.224 17.671-9.394 11.169Zm-9.925 11.488 9.548-11.81-8.167 28.832Zm94.3-5.28 13.077-7.075-22.624 33.69Zm-19.978-7.752-6.058 23.631-11.027 7.931Zm-11.44 7.952 11.417-8.847-17.074 31.529Zm-30.439-11.011-.85 19.336-9.853 10.265Zm-10.359 10.478 10.061-10.975-10.7 29.585Zm31.873-11.227-3.233 21.29-10.399 9.21Zm-57.391-.152 2.964 16.877-9.3 11.929Zm-9.841 12.352 9.419-12.558-6.332 28.8Zm56.366-2.882 10.686-10.018-13.619 30.478Zm78.964-11.018-10.93 29.291-13.305 5.44Zm310.516 53.016L811.1 289.532l-47.348 74.858Zm106.172-53.785 81.843 21.2L764.4 364.195Zm-430.508 6.49 13.989-6.738-24.211 34.689ZM254.7 287.64l4.619 16.163-9.191 12.647Zm-9.724 13.146 9.286-13.265-4.572 28.809Zm115.384-14.664-6.54 24.773-11.647 7.686Zm-12.093 7.8 12.084-8.689-18.168 32.421Zm-54.622-9.559 1.058 18.411-9.745 11.11Zm-10.276 11.447 9.911-11.8-8.684 29.51ZM411 283.218l-11.786 30.884-14.253 4.914Zm-14.864 5.364 15.032-6.348-26.01 35.761Zm-57.025-7.617-3.573 22.266-10.913 9.064Zm-22.29-.323-1.088 20.181-10.28 10.172Zm10.894 9.548 11.231-9.938-14.476 31.3Zm-21.689.874 10.512-10.947-11.363 30.338Zm-25.965-12.969 2.837 17.589-9.619 11.9ZM269.9 290.43l9.748-12.576-6.78 29.481Zm104.161-13.46-7.078 26.008-12.344 7.417Zm53.987-.025L415.3 309.583l-15.341 4.3Zm-66.825 7.655 12.839-8.518-19.406 33.389Zm50.76-2.706 16.237-5.899-28.065 36.9Zm244.684 45.533 87.986-52.33L705 342.786Zm88.722-52.708 65.686 14.341-105.4 53.455Zm-480.5-1.237 4.526 16.853-9.481 12.639Zm-10.012 13.155 9.58-13.3-4.954 29.489Zm49.823-14.942.874 19.214-10.14 11.062Zm696.406 70.147 245.994-70.2-104.933 116.777Zm-707.082-58.72 10.323-11.812-9.262 30.265Zm152.455-11.867-13.851 34.569-16.6 3.6Zm-94.672-.9-3.953 23.327-11.5 8.91Zm77.21 5.355 17.624-5.369-30.422 38.127Zm-89.211 3.785 11.853-9.865-15.439 32.21Zm-11.169-10.6-1.353 21.1-10.766 10.09Zm-11.287 10.38 11.019-10.931-12.111 31.169Zm71.266-11.208-7.685 27.362-13.141 7.11Zm-13.687 7.446 13.7-8.326-20.8 34.437Zm91.584-9.278L451.4 302.944l-18.063 2.763Zm148.555 50.144 74.789-50.78-33.822 61.636ZM447.42 270.112l19.25-4.747-33.148 39.435Zm243.2-4.968 54.058 9.442-87.94 52.3Zm-399.756-.517 2.7 18.36-9.982 11.885Zm-10.522 12.347 10.122-12.617-7.284 30.238Zm208.108-14.967-16.583 39.088-19.779 1.779Zm-21.015 3.177 21.163-4.006-36.326 40.833ZM365.2 259.87l-4.38 24.487-12.16 8.744Zm213.957 48.948 64.558-49.066-29.282 56.47Zm-175.022-49.382-8.371 28.845-14.046 6.765Zm-128.7-.163 4.425 17.6-9.809 12.654Zm369.064-.055 45.408 5.828-74.752 50.749Zm-291.987 9.711 12.558-9.793-16.525 33.2Zm-87.419 3.536 9.907-13.37-5.383 30.249Zm51.14-13.444.67 20.089-10.593 11.027Zm196.415-.308-18.29 41.752-21.811.6ZM305.1 270.451l10.789-11.843-9.913 31.1Zm84.375-3.772 14.682-8.109-22.4 35.576Zm99.866-5.635 23.442-3.115-40.068 42.321Zm-148.316-3.849-1.65 22.1-11.311 10.008Zm206.708 46.8 56.451-47.313-25.666 52.013Zm-218.556-36.448 11.6-10.927-12.953 32.087Zm165.84 32.931 44.553-43.931-20.314 44.748Zm109.971-44.417 38.8 3.092-64.519 49.037Zm-91.472 1.777 26.179-2.029-44.52 43.9Zm6.393 43.51 49.912-45.588-22.731 48.143Zm20.51-45.587 29.513-.694-49.878 45.558Zm30.229-.7 33.63.975-56.417 47.279Zm-268.562-3.945 2.546 19.2-10.392 11.887Zm118.686-.011-9.151 30.477-15.084 6.37Zm-129.622 12.39 10.55-12.682-7.842 31.08Zm113.838-5.385 15.81-7.861-24.212 36.816Zm-25.6-8.61-4.863 25.756-12.909 8.564Zm-13.481 8.979 13.361-9.718-17.757 34.294Zm-37.621-12.152.442 21.041-11.093 11Zm-11.646 11.458 11.317-11.89-10.645 32.028Zm37.424-12.265-1.985 23.2-11.927 9.927Zm-67.711-.541 4.317 18.411-10.182 12.692Zm55.225 10.885 12.248-10.934-13.9 33.1Zm-65.941 2.378 10.3-13.471-5.864 31.1ZM438.7 243.106l-10.045 32.278-16.278 5.911Zm-17.084 6.745 17.117-7.573-26.3 38.157Zm473.375 60.506 181.867-69.612-76.558 100.83Zm182.6-69.85 169.237 30.764-245.879 70.168Zm-683.11-1.242-5.411 27.147-13.763 8.365Zm-14.385 8.9 14.277-9.639-19.157 35.48Zm-66.3-10.638 2.377 20.114-10.856 11.916Zm-11.407 12.454 11.03-12.786-8.476 32.018Zm155.753-14.486-11.076 34.275-17.666 5.381Zm-18.6 6.433 18.638-7.236-28.717 39.622Zm-71.694-8.06-2.364 24.394-12.63 9.849Zm-26.9-.269.185 22.083-11.669 10.993Zm13.684 10.617 12.991-10.954-14.983 34.217Zm-25.917.886 11.915-11.967-11.474 33.06Zm-31-14.533 4.2 19.294-10.605 12.757Zm-11.144 13.367 10.731-13.6-6.402 32.04Zm124.059-14.781-6.037 28.681-14.741 8.142Zm-15.43 8.816 15.331-9.553-20.76 36.79Zm84.158-9.646-12.275 36.5-19.283 4.757Zm-20.388 6.062 20.424-6.837-31.536 41.22Zm-132.906-10.552 2.186 21.114-11.384 11.961Zm-11.945 12.554 11.575-12.907-9.194 33.061Zm68.354-14.169-2.8 25.711-13.423 9.764Zm429.858 66.7L952.8 221.829l-58.574 88.308Zm-309.643-67.24L489 260.668l-21.2 4.013Zm-134.265 10.909 13.84-10.986-16.211 35.451Zm585.109-11.062 123.136 18.835-181.779 69.577Zm-473.35 5.768 22.543-6.358-34.854 42.966Zm-125.89-6.5-.106 23.225-12.317 11Zm-12.9 11.578 12.6-12.062-12.415 34.2Zm86.6-13.193-6.757 30.377-15.866 7.888Zm-16.632 8.728 16.547-9.458-22.607 38.235Zm-101.779-11.902 4.062 20.259-11.087 12.85Zm-11.632 13.511 11.226-13.773-7.023 33.1Zm230.594-13.861-15.353 41.791-23.474 3.12Zm-25.043 5.067 25.074-5.778-38.8 44.876Zm-105.423-10.16-3.293 27.165-14.34 9.681Zm347.79 63.825 112.139-63.933-46.406 78.284Zm-188.41-64L540.1 255.353l-26.21 2.032Zm301.284-.3 93.924 11.329-140.4 67.061Zm-519.783-.08 1.968 22.209-11.982 12.031Zm44.105 10.963 14.815-11.031-17.62 36.818Zm146.28-6.2 28.141-5.065-43.534 46.967ZM326.4 222.695l12.2-13.067-10.01 34.223Zm120.348-13.333-7.594 32.26-17.167 7.6Zm-18.036 8.633 17.961-9.349-24.739 39.821Zm-60.289-10.088-.441 24.482-13.058 11.006Zm-13.674 11.688 13.383-12.186-13.49 35.468Zm235.384-13.553-19.789 48.6-29.543.694Zm-31.883 3.54 31.9-4.177-49.3 49.257Zm132.809 55.213 91.869-60.657-37.775 70.105Zm92.612-61.1 74.246 6.316-112.08 63.9Zm-212.633 50.95 56.452-51.8-22.79 52.776Zm19.877-49.339 36.582-3.056-56.415 51.763Zm54 53.537 76.848-57.494-31.407 63.326Zm-322.9-57.6 3.908 21.317-11.633 12.972Zm283.374 54.42 65.394-54.53-26.566 57.625Zm-295.561-40.718 11.791-13.983-7.719 34.276Zm412.686-14.1 60.357 2.812-91.818 60.624Zm-94.252 1.35 42.514-1.615-65.354 54.5Zm43.285-1.638 50.186.275-76.803 57.463Zm-204.382-.843-8.565 34.357-18.686 7.254Zm-19.685 8.517 19.616-9.222-27.233 41.578Zm-32.68-9.347-3.867 28.774-15.39 9.591Zm-16.12 10.463 15.939-11.091-19.241 38.339Zm-46.107-13.341 1.718 23.416-12.664 12.122Zm-13.261 12.865 12.912-13.263-10.94 35.519Zm44.14-13.978-.826 25.868-13.9 11.037Zm-14.552 11.82 14.279-12.337-14.72 36.88Zm120.635-16.46-9.72 36.71-20.469 6.851Zm-21.635 8.383 21.571-9.07-30.171 43.529Zm-35.061-11.469-4.539 30.561-16.6 9.49Zm-17.418 10.536 17.245-11.165-21.121 40.02Zm-80.311-11.454 3.732 22.482-12.258 13.129Zm-12.83 13.931 12.438-14.241-8.522 35.6Zm44.732-18.392 1.429 24.747L355 218.776Zm32.506-.066-1.273 27.4-14.878 11.077Zm-46.574 13.15 13.73-13.5-12.009 36.968Zm31-1.155 15.309-12.522-16.139 38.455Zm130.285-12.7-11.09 39.363-22.584 6.37Zm-23.961 8.221 23.9-8.886-33.648 45.7Zm-37.874-13.843-5.32 32.557-18.015 9.377Zm-18.931 10.63 18.769-11.256-23.317 41.9Zm108.267-13.986-12.74 42.374-25.113 5.786Zm-26.765 8.018 26.706-8.659-37.826 48.125Zm-166.019-9.1 3.525 23.767-12.971 13.323Zm-13.56 14.218 13.179-14.549-9.44 37.073Zm81.4-16.816-1.8 29.114-16 11.133Zm-16.76 12.208 16.507-12.744-17.784 40.218ZM382.4 167.306l1.09 26.223-14.34 12.389Zm-15 13.354 14.673-13.788-13.241 38.589Zm106.349-17.114-6.25 34.8-19.668 9.249Zm98.909-.16-14.75 45.816-28.18 5.072Zm-119.626 10.909 20.563-11.365-25.9 44.011Zm89.438-3.147 30.128-8.373-42.9 50.852Zm-178.822-15.837 3.283 25.193-13.788 13.558Zm244.171-.18-17.237 49.787-31.94 4.177ZM349.244 169.88l14.032-14.919-10.5 38.731Zm86.21-15.121-2.419 31.025-17.3 11.2Zm137.943 7.8 34.359-8.008-49.143 53.932Zm-156.087 4.67 17.9-13.01-19.706 42.2Zm-18.425-14.723.69 27.866-15.37 12.57Zm-16.079 13.682 15.763-14.131-14.669 40.411Zm114.432-14.585-7.363 37.329-21.62 9.09ZM474.4 162.49l22.692-11.495-28.962 46.386Zm173.911-15.109-20.367 54.409-36.621 3.059Zm-39.749 6.986 39.677-7.536-56.952 57.431Zm-152.794-13.5-3.157 33.172-18.825 11.29Zm-19.772 12.785 19.542-13.327-21.966 44.429Zm259.624-13.367-24.38 59.852-42.556 1.616Zm-46.57 6.4 46.487-6.913-66.9 61.431Zm-125.761-7.146-8.709 40.2-23.949 8.9Zm-143.943-.294 2.994 26.78-14.73 13.842Zm118.554 11.35 25.252-11.648-32.633 49.072Zm-133.934 3.64 15.019-15.358-11.73 40.6Zm52.683-16.916.215 29.7L400.3 179.81ZM1078.32 240.21l290.237-103.115-120.878 133.9Zm-679.011-88.815 17.033-14.538L400 179.324Zm272.683 48.74 79.881-66.074-29.65 66.35Zm24.371-60.483 55.41-6.072-79.836 66.035Zm26.626 60.788 97.172-71.413-36.761 74.227Zm29.63-66.948 67.417-4.911-97.118 71.373Zm201.545 87.7 206.823-93.435-83.6 112.285Zm207.617-93.76 206.419 9.333-290.1 103.068Zm-609.332-.115-10.356 43.5-26.754 8.674Zm-28.49 11.257 28.355-11.831-37.084 52.135Zm-45.932-11.949-4.046 35.6-20.618 11.4Zm-21.7 13.167 21.473-13.706-24.646 46.961Zm327.86 63.522 121.01-77.639-46.7 83.96Zm36.727-74.793 84.126-3.257-120.946 77.6Zm38.4 81.207 155.206-84.93-61.22 96.269Zm46.644-84.5 108.359-.812-155.135 84.89Zm109.332-.815 145.44 2.992L954 220.795Zm-619.09-1.747 2.644 28.555-15.82 14.181Zm-16.521 15.5 16.167-15.88-13.166 42.709Zm56.225-16.5-.356 31.771-17.961 13.051Zm-18.814 14.556 18.522-15.027-18.305 44.8Zm168.337-21.31-12.4 47.3-30.174 8.383Zm-32.3 11.5 32.167-12.049-42.547 55.649Zm-50.514-14.457-5.128 38.361-22.749 11.521ZM478.6 125.583l23.8-14.162-27.857 49.848Zm-64.189-20.1 2.221 30.554-17.089 14.586Zm42.523-.029-1.051 34.11-19.6 13.367Zm-60.378 16.141 17.51-16.5-14.86 45.114Zm39.814-1 20.278-15.6-20.635 47.445Zm186.81-18.325-14.98 51.738-34.407 8.02Zm-37.06 11.785 36.925-12.312-49.353 59.717Zm-56.107-17.3-6.46 41.528-25.305 11.673ZM503.2 110.946l26.6-14.712-31.736 53.161Zm163.791-21.611L648.7 146.31l-39.728 7.545Zm-43.11 12.133 42.969-12.634-57.979 64.48Zm-143.817-12.9-1.9 36.773-21.539 13.744Zm-22.646 15.827 22.372-16.3-23.424 50.483Zm-23.2-16.818 1.7 32.816-18.578 15.069Zm-19.432 16.838 19.093-17.24-16.868 47.857Zm146.064-23.5-8.119 45.191-28.409 11.853Zm-30.23 14.873 30.028-15.382-36.5 57.005Zm188.041-19.763-22.633 63.243-46.54 6.921ZM667.7 88.588l50.81-13.034-69.13 70.12ZM505.729 70.866l-2.954 39.83-23.859 14.2Zm-25.158 16.668 24.892-17.139-26.8 53.991ZM455.91 68.795l1.056 35.393-20.336 15.652Zm-21.3 17.717 20.974-18.117-19.268 51Zm161.34-22.241-10.22 49.469-32.222 12.07Zm-34.475 15.715 34.277-16.209-42.414 61.5Zm219.3-17.759L752.3 133.095l-55.468 6.078Zm-61.389 13.106 61.225-13.545-83.9 76.9ZM534.474 52.157 530.2 95.526l-26.661 14.745Zm-28.216 17.7 27.956-18.162L503.3 109.77Zm-26.382-20.889.247 38.353-22.43 16.339Zm-23.545 18.781 23.228-19.192-22.169 54.658Zm400.878-19.967-36.6 80.333-67.484 4.915Zm-75.692 13.813 75.5-14.216-104.026 85.2ZM636.426 46.612 623.5 101.141l-36.982 12.331Zm-39.832 16.771 39.633-17.244-49.874 66.817ZM954 32.437l-48.329 92.379-84.2 3.26Zm-386.98-.232-5.96 47.508-30.089 15.413Zm290.945 15 95.807-15.14-132.462 95.588Zm-322.939 3.967 31.739-19.419-36.025 62.879Zm-28.434-23.323-.777 41.781-24.952 17.177Zm177.219-.194-16.476 60.594-43.035 12.646ZM480.322 47.929l25.961-20.49L480.57 86.36Zm156.768-2.162 46.518-18.563-59.468 73.2Zm444.065-29.981-66.133 108.209-108.455.813ZM954.776 31.909l126.1-16.461-174.5 108.962ZM604.324 10.695l-8.137 52.4-34.339 16.24ZM567.6 31.248l36.476-21-42.449 68.6ZM740.281 6.995 719.03 74.982l-50.872 13.051ZM684.5 26.853l55.568-20.282-72.079 80.99ZM536.683 5.144l-2.095 45.793-28.018 18.198Zm-29.619 21.68L536.38 4.738 506.285 68.69Zm715.06-26.829-139.374 14.8L1106.376.387l-.247-.354-23.666 14.438 8.346-14.159-.4-.2-8.729 14.809-126.226 16.474L999.16.379l-.274-.337-43.675 30.992L970.383.295l-.411-.177-15.5 31.4-95.909 15.159L915.677.37l-.3-.319-57.025 46.237 19.314-46-.422-.154-19.6 46.694-75.589 14.231L848.5.362l-.316-.3-66.319 60.578L803.654.278l-.429-.135-22.049 61.085-61.3 13.561L793.011.353l-.333-.286L719.7 74.344l21.288-68.105 17.5-5.829-.152-.4L741.5 5.619l4.659-5.274-.349-.27-4.538 5.139 1.344-4.952-.439-.1-1.565 5.761-55.65 20.306L705.7.337l-.362-.254-20.6 25.717 5.8-25.546-.438-.088-5.992 26.379-46.59 18.591L670.282.33l-.374-.235-32.61 44.6L645.69.247l-.446-.074-8.553 45.3-39.7 17.272L638.881.322 638.5.095l-41.728 62.18 8.153-52.51 17.326-9.37-.226-.366-16.707 9.034 5.251-8.75-.394-.207-5.123 8.537.909-8.412-.45-.043-1.011 9.32-36.543 21.035L584.637.307l-.4-.193-16.548 30 2.25-29.889-.452-.03-2.322 30.806-31.8 19.459L560.881.301l-.409-.182-25.388 49.9 2.1-45.884 5.23-3.758-.276-.336-5.313 3.819.138.168-.142-.165L506.7 26.557l.142.165-.146-.162-26.746 21.109.146.162-.15-.159-23.994 19.823.15.159-.154-.156-21.721 18.775.153.154-.157-.151-19.828 17.9.157.151-.16-.148-18.232 17.18.16.148-.162-.145-16.878 16.581.163.146-.166-.142-15.718 16.073.167.143-.17-.14-14.721 15.651.17.14-.172-.137-13.858 15.3.172.137-.176-.134-13.108 15.009.175.133-.177-.13-12.453 14.768.177.131-.18-.129-11.88 14.576.18.128-.182-.126-11.378 14.423.182.126-.185-.123-10.935 14.308.184.123-.186-.121-10.548 14.226.186.121-.188-.118-10.207 14.176.188.118-.189-.116-9.906 14.153.189.116-.191-.114-9.639 14.157.191.114-.192-.112-9.415 14.19.192.111-.193-.109-9.215 14.245.194.11-.2-.108-9.045 14.324.195.107-.2-.105-8.893 14.433.2.106-.2-.1-8.774 14.555.2.1-.2-.1-8.674 14.706.2.1-.2-.1-8.594 14.88.2.1-.2-.1-8.533 15.079.2.1-.2-.1-8.492 15.3.2.1-.2-.1-8.468 15.552.2.095-.2-.093-8.462 15.827.2.095-.2-.094-8.473 16.131.2.093-.2-.092-8.5 16.463.2.092-.2-.091-8.547 16.826.2.091-.2-.089-8.611 17.223.205.09-.205-.089-8.691 17.655.205.088-.206-.087-8.799 18.128.2.085-.2-.084-8.907 18.631.206.087-.207-.085-9.043 19.182.207.085-.208-.084-9.2 19.781.208.084-.208-.083-9.38 20.431.208.083-.208-.082-9.583 21.135.208.083-.209-.082-9.81 21.9.209.082-.21-.081-10.064 22.735.209.081-.21-.08-10.346 23.638.21.08-.21-.08L0 771.714l.42.159 9.871-22.8-1.01 22.712.452.017 1.046-23.522 8.488 6.261-7.326 17.174.421.157 6.824-16-1.436 15.9.451.035 1.52-16.837 6.787 6.987-4.108 9.76.421.154 3.492-8.3-1.122 8.192.449.053 1.271-9.279 5.053 7.745-.595 1.431.422.153.038-.093.327.053.135-.736.3.771.426-.142-.556-1.453 8.72-20.651-4.139 22.138.445.073 4.367-23.355 3.085 8.732-6.073 14.509.421.154 5.043-12.049-2.82 11.927.442.091.011-.048.215.086 1.588-3.5 11.7 3.62.142-.4-11.4-3.527 22.527-11.459-6.917 15.1.416.167 7.1-15.5 16.119 4.227-21.689 11 .215.372 21.611-10.959-4.852 10.69.416.165 5.033-11.089 17.142 3.3-14.728 7.52.217.371 14.7-7.507-3.256 7.24.417.163 3.439-7.646 17.941 2.359-9.681 5.02.219.371 9.7-5.033-2.124 4.766.418.162 2.31-5.185 18.512 1.421-6.593 3.5.224.367 6.659-3.534-1.442 3.27.418.161 1.634-3.7 18.858.5-5.377 2.938.228.366 5.484-3-1.2 2.734.419.16 1.392-3.183 18.988-.389-5.852 3.311.234.362 5.994-3.392-1.356 3.131.42.159 1.557-3.6 18.914-1.238-7.776 4.578.241.358 7.948-4.68-1.9 4.422.42.157 2.106-4.91 18.65-2.035-10.873 6.689.249.354 11.07-6.811-2.784 6.556.42.156 3-7.069 18.216-2.774-14.859 9.591.258.348 15.074-9.73-3.988 9.479.421.154 4.216-10.018 17.632-3.45-19.452 13.219.266.343 19.682-13.376-4.829 11.578-6.657 1.421.1.412 5.751-1.227-1.2.853.274.337 1.416-1.006-.3.764.424.147.546-1.373 10.367-5.435-5.814 6.6.349.268 5.769-6.548-2.388 6.344.427.14 2.775-7.373 10.437-3.263-10.176 10.436.334.285 10.047-10.3-3.582 10.095.429.133 3.873-10.914 10.492-1.391-12.973 12.089.32.3 12.806-11.934-3.9 11.721.433.125 4.123-12.385 10.568.231-14.01 11.935.3.312 13.834-11.784-3.588 11.566.435.119 3.76-12.11 10.676 1.615-13.111 10.273.291.324 12.94-10.14-2.853 9.923.437.11 2.98-10.366 10.823 2.787-10.139 7.357.277.334 9.981-7.242-1.854 7.024.44.1 1.949-7.386 11.009 3.771-5.016 3.393.265.343 4.876-3.3-.739 3.081.442.092.81-3.375 8.63 3.523.181-.388-8.5-3.471 14.376-8.949-2.921 12.569.442.091 2.979-12.815 11.164 5.144-12.693 7.447.24.358 12.595-7.389-1.486 7.17.445.08 1.526-7.367 11.452 5.7-2.595 1.446.231.364 2.519-1.4-.215 1.187.446.07.244-1.343 2.869 1.493.22-.369-2.792-1.453 14.076-7.261-1.528 8.865.072.01.375.057 1.6-9.29 2.617-13.708 2.8-13.323 2.975-12.947 3.149-12.587 3.321-12.237 3.492-11.9 3.66-11.565 3.831-11.247 4-10.935 4.169-10.633 4.337-10.33 4.51-10.043 4.679-9.751 4.856-9.473 5.031-9.194 5.21-8.918.264-.424.315-.505 5.636 5.047 1.958 1.953 15.629 17.28 15.938 19.364 10.611 14.07 24.8 35.728 27.951 43.466 31.284 52.166.017-.008v.005l.071-.036.012.024.411-.177-2.768-5.623 3.187 5.807.175-.084.048.086.4-.2-8.226-14.585-4.621-20.409 17.041 35.187.412-.175-15.179-31.342 18.161 31.53.4-.2-21.141-36.7 130.292-21.95-49.6 58.617.355.263 49.787-58.836 45.065 58.827.367-.246-45.009-58.754L865.315 699.8l-63.172 71.859.35.268 63.349-72.06 71.436 72.07.333-.288-71.262-71.893 224.225-.821-72.232 72.714.332.288 72.441-72.924 93.373 72.943.29-.325-93.007-72.657 310.266 18.2.029-.422-310.466-18.213 118.9-114.737 191.428 108.21.234-.362-190.9-107.913 190.786-1.871v-.423l-191.025 1.874 131.843-122.2 59.1 22.775.172-.391-58.38-22.5 58.314-4.828-.04-.421-58.594 4.851 58.769-52.5-.313-.305-59.132 52.828-199.712-71.893 259.04-48.03-.088-.415-259.176 48.055 105.025-116.882L1402 303.333l.1-.413-153.4-31.716 153.4-39.544-.121-.408-153.569 39.589 120.981-134.018 32.639 2.159.032-.422-31.679-2.095 31.74-10.622-.154-.4-31.958 10.695 32.208-35.534-.346-.273-32.681 36.057-206.592-9.341 239.54-103.216-.189-.384-239.636 103.258L1254.737.33l-.375-.235-92.814 126.912-145.565-2.995L1250.317.395l-.222-.368-234.337 123.614 66.209-108.332L1222.175.421Z"/></g></svg>