<svg xmlns="http://www.w3.org/2000/svg" width="255.925" height="71.239"><g data-name="Group 51"><path data-name="Path 1" d="M0 .396v64.618h24.779v-7.4H12.136V7.692h39.839v49.919H39.21v7.4h24.9V.396Z" fill="#fff"/><path data-name="Path 2" d="M73.316.161v1.485h3.835v12.507h1.829V1.646h3.814V.161Z" fill="#fff"/><path data-name="Path 3" d="m97.286.261-5.139 11.482L87.008.261H85.04v13.891h1.827V3.774l4.637 10.378h1.285l4.617-10.359v10.359h1.826V.261Z" fill="#fff"/><path data-name="Path 4" d="m114.569.261-5.139 11.482L104.291.261h-1.967v13.891h1.825V3.774l4.637 10.378h1.285l4.617-10.359v10.359h1.827V.261Z" fill="#fff"/><g data-name="Group 2"><g data-name="Group 818" fill="#fff"><path data-name="Path 5" d="M122.398 13.379a6.681 6.681 0 0 1-2.539-2.55 7.3 7.3 0 0 1-.934-3.684 7.3 7.3 0 0 1 .934-3.683 6.681 6.681 0 0 1 2.539-2.55 7.4 7.4 0 0 1 7.126 0 6.638 6.638 0 0 1 2.53 2.539 7.353 7.353 0 0 1 .923 3.693 7.355 7.355 0 0 1-.923 3.694 6.638 6.638 0 0 1-2.53 2.539 7.4 7.4 0 0 1-7.126 0m6.193-1.355a4.807 4.807 0 0 0 1.847-1.947 6.15 6.15 0 0 0 .673-2.931 6.135 6.135 0 0 0-.673-2.941 4.845 4.845 0 0 0-1.837-1.937 5.488 5.488 0 0 0-5.3 0 4.84 4.84 0 0 0-1.836 1.934 6.128 6.128 0 0 0-.673 2.941 6.143 6.143 0 0 0 .673 2.931 4.8 4.8 0 0 0 1.846 1.947 5.444 5.444 0 0 0 5.28 0"/><path data-name="Path 6" d="M143.787 7.568a3.658 3.658 0 0 1 1 1.245 3.623 3.623 0 0 1-.171 3.5 3.68 3.68 0 0 1-1.576 1.345 5.624 5.624 0 0 1-2.439.492h-5.22V.16h5.019a5.683 5.683 0 0 1 2.429.472 3.439 3.439 0 0 1 1.505 1.275 3.337 3.337 0 0 1 .5 1.806 3.118 3.118 0 0 1-.661 2.058 3.765 3.765 0 0 1-1.777 1.175 2.953 2.953 0 0 1 1.4.622m-6.583-1.365h3.071a2.961 2.961 0 0 0 1.987-.6 2.076 2.076 0 0 0 .7-1.666 2.076 2.076 0 0 0-.7-1.666 3.028 3.028 0 0 0-2.027-.6h-3.031Zm5.36 5.8a2.209 2.209 0 0 0 .763-1.787 2.271 2.271 0 0 0-.8-1.837 3.238 3.238 0 0 0-2.148-.673h-3.175v4.939h3.232a3.207 3.207 0 0 0 2.128-.642"/><path data-name="Path 7" d="M90.485 23.147V39.52h-3.284V28.87l-4.386 10.65h-2.486l-4.41-10.65v10.65h-3.284V23.147h3.73l5.208 12.175 5.207-12.175Z"/><path data-name="Path 8" d="M96.068 39.52h-3.284V23.147h3.284Zm-2.745-18.39a1.5 1.5 0 0 1-.446-1.1 1.535 1.535 0 0 1 .446-1.114 1.476 1.476 0 0 1 1.1-.457 1.562 1.562 0 0 1 1.571 1.571 1.478 1.478 0 0 1-.457 1.1 1.537 1.537 0 0 1-1.114.445 1.5 1.5 0 0 1-1.1-.445"/><path data-name="Path 9" d="M116.217 23.147V39.52h-3.284V28.87l-4.386 10.65h-2.486l-4.41-10.65v10.65h-3.284V23.147h3.73l5.208 12.175 5.207-12.175Z"/><path data-name="Path 10" d="M128.556 36.401h-6.521l-1.079 3.12h-3.448l5.887-16.4h3.823l5.888 16.4h-3.472Zm-.892-2.627-2.369-6.849-2.369 6.849Z"/><path data-name="Path 11" d="m142.818 39.52-3.612-6.38h-1.547v6.38h-3.284V23.147h6.146a7.18 7.18 0 0 1 3.237.669 4.669 4.669 0 0 1 2.006 1.806 4.935 4.935 0 0 1 .669 2.545 4.877 4.877 0 0 1-.938 2.92 4.821 4.821 0 0 1-2.792 1.795l3.918 6.638Zm-5.16-8.843h2.745a2.741 2.741 0 0 0 1.994-.645 2.4 2.4 0 0 0 .657-1.795 2.29 2.29 0 0 0-.657-1.747 2.812 2.812 0 0 0-1.994-.621h-2.744Z"/><path data-name="Path 12" d="M151.286 36.916h5.395v2.6h-8.679V23.147h3.284Z"/><path data-name="Path 13" d="M168.338 36.401h-6.52l-1.079 3.12h-3.448l5.888-16.4h3.823l5.887 16.4h-3.471Zm-.891-2.627-2.369-6.849-2.369 6.849Z"/><path data-name="Path 14" d="m182.601 39.52-3.612-6.38h-1.548v6.38h-3.284V23.147h6.146a7.184 7.184 0 0 1 3.238.669 4.671 4.671 0 0 1 2.005 1.806 4.935 4.935 0 0 1 .669 2.545 4.874 4.874 0 0 1-.938 2.92 4.821 4.821 0 0 1-2.792 1.795l3.917 6.638Zm-5.16-8.843h2.745a2.739 2.739 0 0 0 1.994-.645 2.4 2.4 0 0 0 .655-1.798 2.29 2.29 0 0 0-.657-1.747 2.81 2.81 0 0 0-1.994-.621h-2.745Z"/><path data-name="Path 15" d="M196.275 38.606a8.05 8.05 0 0 1-3.05-2.991 8.839 8.839 0 0 1 0-8.632 8.059 8.059 0 0 1 3.05-2.991 8.823 8.823 0 0 1 8.455 0 8 8 0 0 1 3.027 2.991 8.918 8.918 0 0 1 0 8.632 7.969 7.969 0 0 1-3.038 2.991 8.8 8.8 0 0 1-8.444 0m6.826-2.522a4.577 4.577 0 0 0 1.759-1.912 6.271 6.271 0 0 0 .633-2.885 6.2 6.2 0 0 0-.633-2.874 4.524 4.524 0 0 0-1.759-1.888 5.073 5.073 0 0 0-2.6-.657 5.137 5.137 0 0 0-2.616.657 4.5 4.5 0 0 0-1.771 1.888 6.2 6.2 0 0 0-.633 2.874 6.271 6.271 0 0 0 .633 2.885 4.554 4.554 0 0 0 1.771 1.912 5.061 5.061 0 0 0 2.616.669 5 5 0 0 0 2.6-.669"/><path data-name="Path 16" d="M220.166 24.156a7.208 7.208 0 0 1 3.026 2.873 8.561 8.561 0 0 1 1.067 4.328 8.429 8.429 0 0 1-1.067 4.3 7.246 7.246 0 0 1-3.026 2.85 9.774 9.774 0 0 1-4.538 1.009h-5.724V23.147h5.724a9.781 9.781 0 0 1 4.538 1.009m-.669 11.165a5.361 5.361 0 0 0 1.407-3.964 5.486 5.486 0 0 0-1.407-4 5.318 5.318 0 0 0-3.988-1.442h-2.322v10.814h2.322a5.394 5.394 0 0 0 3.988-1.407"/><path data-name="Path 17" d="M234.885 36.401h-6.52l-1.079 3.12h-3.448l5.888-16.4h3.823l5.887 16.4h-3.471Zm-.891-2.627-2.369-6.849-2.369 6.849Z"/><path data-name="Path 18" d="M242.332 39.098a5.061 5.061 0 0 1-2.17-1.689 4.452 4.452 0 0 1-.821-2.6h3.519a2.27 2.27 0 0 0 .715 1.6 2.536 2.536 0 0 0 1.771.586 2.725 2.725 0 0 0 1.806-.551 1.793 1.793 0 0 0 .657-1.443 1.67 1.67 0 0 0-.445-1.2 3.141 3.141 0 0 0-1.115-.739 18.49 18.49 0 0 0-1.841-.6 19.606 19.606 0 0 1-2.592-.927 4.534 4.534 0 0 1-1.712-1.384 3.944 3.944 0 0 1-.716-2.475 4.43 4.43 0 0 1 .727-2.533 4.631 4.631 0 0 1 2.041-1.654 7.432 7.432 0 0 1 3-.574 6.513 6.513 0 0 1 4.117 1.232 4.564 4.564 0 0 1 1.745 3.434h-3.612a1.878 1.878 0 0 0-.716-1.4 2.7 2.7 0 0 0-1.771-.552 2.28 2.28 0 0 0-1.536.493 1.781 1.781 0 0 0-.575 1.431 1.48 1.48 0 0 0 .434 1.091 3.306 3.306 0 0 0 1.079.7 19.191 19.191 0 0 0 1.818.622 19.2 19.2 0 0 1 2.6.938 4.681 4.681 0 0 1 1.735 1.407 3.914 3.914 0 0 1 .728 2.463 4.638 4.638 0 0 1-.68 2.44 4.8 4.8 0 0 1-1.994 1.794 6.793 6.793 0 0 1-3.119.669 7.773 7.773 0 0 1-3.085-.586"/><path data-name="Rectangle 1" d="M252.641 23.147h3.284V39.52h-3.284z"/><path data-name="Path 19" d="m81.877 64.881-5.958-7.295v7.295h-3.284V48.508h3.284v7.342l5.958-7.342h3.965l-6.756 8.116 6.944 8.257Z"/><path data-name="Path 20" d="M88.749 63.967a8.053 8.053 0 0 1-3.049-2.991 8.835 8.835 0 0 1 0-8.632 8.062 8.062 0 0 1 3.049-2.991 8.824 8.824 0 0 1 8.456 0 8 8 0 0 1 3.026 2.991 8.913 8.913 0 0 1 0 8.632 7.967 7.967 0 0 1-3.037 2.991 8.8 8.8 0 0 1-8.445 0m6.826-2.521a4.581 4.581 0 0 0 1.759-1.912 6.27 6.27 0 0 0 .633-2.885 6.2 6.2 0 0 0-.633-2.874 4.528 4.528 0 0 0-1.759-1.888 5.074 5.074 0 0 0-2.6-.657 5.135 5.135 0 0 0-2.615.657 4.5 4.5 0 0 0-1.771 1.888 6.2 6.2 0 0 0-.633 2.874 6.271 6.271 0 0 0 .633 2.885 4.55 4.55 0 0 0 1.771 1.912 5.059 5.059 0 0 0 2.615.669 5 5 0 0 0 2.6-.669"/><path data-name="Path 21" d="M116.851 64.886h-3.284l-7.436-11.236v11.236h-3.284v-16.4h3.284l7.436 11.259V48.486h3.284Z"/><path data-name="Path 22" d="m132.168 48.508-5.536 10.673v5.7h-3.284v-5.7l-5.559-10.673h3.706l3.518 7.483 3.5-7.483Z"/><path data-name="Path 23" d="M141.293 61.762h-6.521l-1.079 3.12h-3.448l5.887-16.4h3.821l5.888 16.4h-3.472Zm-.892-2.627-2.369-6.849-2.369 6.849Z"/><path data-name="Path 24" d="M164.056 62.348a4.756 4.756 0 0 1-1.619 1.736 5.9 5.9 0 0 1-2.545.891v1.079a3.524 3.524 0 0 1 2.17.657 2.225 2.225 0 0 1 .88 1.9 2.293 2.293 0 0 1-.9 1.947 3.581 3.581 0 0 1-2.217.68h-3.331v-1.923h2.792a1.792 1.792 0 0 0 .856-.164.614.614 0 0 0 .293-.587.588.588 0 0 0-.293-.575 1.91 1.91 0 0 0-.856-.152h-1.457v-2.838a6.4 6.4 0 0 1-3.659-1.525 4.314 4.314 0 0 1-1.431-3.308h3.519a2.27 2.27 0 0 0 .715 1.6 2.536 2.536 0 0 0 1.771.586 2.725 2.725 0 0 0 1.806-.551 1.793 1.793 0 0 0 .657-1.443 1.671 1.671 0 0 0-.445-1.2 3.13 3.13 0 0 0-1.115-.739 18.516 18.516 0 0 0-1.84-.6 19.591 19.591 0 0 1-2.592-.927 4.539 4.539 0 0 1-1.712-1.384 3.944 3.944 0 0 1-.715-2.475 4.43 4.43 0 0 1 .726-2.533 4.631 4.631 0 0 1 2.041-1.654 7.432 7.432 0 0 1 3-.574 6.513 6.513 0 0 1 4.117 1.232 4.564 4.564 0 0 1 1.747 3.436h-3.612a1.877 1.877 0 0 0-.715-1.4 2.7 2.7 0 0 0-1.771-.552 2.28 2.28 0 0 0-1.536.493 1.78 1.78 0 0 0-.575 1.431 1.48 1.48 0 0 0 .434 1.091 3.306 3.306 0 0 0 1.079.7q.645.27 1.818.622a19.2 19.2 0 0 1 2.6.938 4.681 4.681 0 0 1 1.735 1.407 3.91 3.91 0 0 1 .728 2.463 4.611 4.611 0 0 1-.552 2.2"/><path data-name="Path 25" d="M169.742 48.508v10.134a3.473 3.473 0 0 0 .868 2.545 3.856 3.856 0 0 0 4.9 0 3.473 3.473 0 0 0 .868-2.545V48.508h3.308v10.11a6.529 6.529 0 0 1-.9 3.531 5.727 5.727 0 0 1-2.417 2.17 7.668 7.668 0 0 1-3.365.727 7.461 7.461 0 0 1-3.319-.727 5.531 5.531 0 0 1-2.357-2.17 6.733 6.733 0 0 1-.868-3.531v-10.11Z"/><path data-name="Path 26" d="M193.014 57.87a4.044 4.044 0 0 1 .892 2.581 4.157 4.157 0 0 1-.645 2.31 4.3 4.3 0 0 1-1.865 1.56 6.834 6.834 0 0 1-2.885.563h-7.061V48.508h6.756a7.012 7.012 0 0 1 2.874.539 4.1 4.1 0 0 1 1.829 1.5 3.929 3.929 0 0 1 .621 2.182 3.73 3.73 0 0 1-.762 2.392 4.076 4.076 0 0 1-2.029 1.361 3.682 3.682 0 0 1 2.275 1.384m-8.28-2.6h3a2.753 2.753 0 0 0 1.806-.527 1.859 1.859 0 0 0 .633-1.514 1.893 1.893 0 0 0-.633-1.524 2.708 2.708 0 0 0-1.806-.54h-3Zm5.172 6.381a1.97 1.97 0 0 0 .669-1.6 2.053 2.053 0 0 0-.7-1.654 2.837 2.837 0 0 0-1.9-.6h-3.237v4.41h3.308a2.813 2.813 0 0 0 1.865-.563"/><path data-name="Path 27" d="M198.409 51.159v4.1h5.512v2.6h-5.512v4.339h6.216v2.674h-9.5V48.486h9.5v2.674Z"/><path data-name="Path 28" d="M209.234 64.459a5.06 5.06 0 0 1-2.17-1.689 4.452 4.452 0 0 1-.821-2.6h3.519a2.271 2.271 0 0 0 .715 1.6 2.536 2.536 0 0 0 1.771.586 2.725 2.725 0 0 0 1.806-.551 1.793 1.793 0 0 0 .657-1.443 1.67 1.67 0 0 0-.445-1.2 3.14 3.14 0 0 0-1.115-.739 18.484 18.484 0 0 0-1.841-.6 19.606 19.606 0 0 1-2.592-.927 4.533 4.533 0 0 1-1.712-1.384 3.944 3.944 0 0 1-.716-2.475 4.431 4.431 0 0 1 .727-2.533 4.631 4.631 0 0 1 2.041-1.654 7.431 7.431 0 0 1 3-.574 6.513 6.513 0 0 1 4.117 1.232 4.564 4.564 0 0 1 1.747 3.436h-3.612a1.878 1.878 0 0 0-.716-1.4 2.7 2.7 0 0 0-1.771-.552 2.28 2.28 0 0 0-1.536.493 1.78 1.78 0 0 0-.575 1.431 1.48 1.48 0 0 0 .434 1.091 3.307 3.307 0 0 0 1.079.7 19.192 19.192 0 0 0 1.818.622 19.194 19.194 0 0 1 2.6.938 4.68 4.68 0 0 1 1.736 1.407 3.913 3.913 0 0 1 .728 2.463 4.638 4.638 0 0 1-.68 2.44 4.8 4.8 0 0 1-1.994 1.794 6.794 6.794 0 0 1-3.119.669 7.772 7.772 0 0 1-3.085-.586"/><path data-name="Path 29" d="M223.299 64.881h-3.284V48.508h3.284Zm-2.745-18.39a1.5 1.5 0 0 1-.445-1.1 1.537 1.537 0 0 1 .445-1.114 1.476 1.476 0 0 1 1.1-.457 1.561 1.561 0 0 1 1.571 1.571 1.478 1.478 0 0 1-.457 1.1 1.539 1.539 0 0 1-1.115.446 1.5 1.5 0 0 1-1.1-.446"/></g></g></g></svg>