<svg xmlns="http://www.w3.org/2000/svg" viewBox="0 0 220 61.239"><g><path fill="#424242" d="M0 .342v55.547h21.3v-6.363H10.432V6.614h34.247v42.912H33.706v6.363h21.4V.342Z"/><path fill="#424242" d="M63.025.139v1.277h3.3V12.17h1.57V1.416h3.279V.139Z"/><path fill="#424242" d="m83.629.226-4.42 9.871L74.794.226h-1.692v11.941h1.571V3.246l3.986 8.921h1.1l3.969-8.9v8.9h1.57V.226Z"/><path fill="#424242" d="m98.485.226-4.418 9.871L89.651.226H87.96v11.941h1.57V3.246l3.986 8.921h1.1l3.969-8.9v8.9h1.57V.226Z"/><g><g fill="#424242"><path d="M105.219 11.501a5.743 5.743 0 0 1-2.183-2.192 6.274 6.274 0 0 1-.8-3.167 6.272 6.272 0 0 1 .8-3.166 5.743 5.743 0 0 1 2.183-2.191 6.365 6.365 0 0 1 6.126 0 5.706 5.706 0 0 1 2.174 2.183 6.321 6.321 0 0 1 .794 3.175 6.323 6.323 0 0 1-.794 3.175 5.706 5.706 0 0 1-2.175 2.183 6.365 6.365 0 0 1-6.126 0m5.324-1.165a4.132 4.132 0 0 0 1.588-1.674 5.286 5.286 0 0 0 .578-2.52 5.274 5.274 0 0 0-.578-2.528 4.165 4.165 0 0 0-1.579-1.665 4.717 4.717 0 0 0-4.556 0 4.161 4.161 0 0 0-1.576 1.666 5.268 5.268 0 0 0-.578 2.528 5.28 5.28 0 0 0 .578 2.52 4.128 4.128 0 0 0 1.587 1.674 4.68 4.68 0 0 0 4.539 0"/><path d="M123.603 6.507a3.144 3.144 0 0 1 .863 1.07 3.115 3.115 0 0 1-.147 3.011 3.163 3.163 0 0 1-1.355 1.157 4.835 4.835 0 0 1-2.1.423h-4.487V.139h4.314a4.885 4.885 0 0 1 2.088.406 2.956 2.956 0 0 1 1.294 1.1 2.869 2.869 0 0 1 .432 1.553 2.68 2.68 0 0 1-.578 1.769 3.237 3.237 0 0 1-1.527 1.01 2.538 2.538 0 0 1 1.2.535m-5.652-1.173h2.64a2.546 2.546 0 0 0 1.708-.518 1.785 1.785 0 0 0 .6-1.432 1.784 1.784 0 0 0-.6-1.432 2.6 2.6 0 0 0-1.743-.518h-2.606Zm4.607 4.987a1.9 1.9 0 0 0 .656-1.536 1.952 1.952 0 0 0-.69-1.579 2.784 2.784 0 0 0-1.847-.578h-2.726v4.237h2.778a2.757 2.757 0 0 0 1.829-.552"/><path d="M77.784 19.899v14.074h-2.823v-9.154l-3.771 9.155h-2.137l-3.791-9.155v9.155h-2.823V19.899h3.207l4.477 10.466 4.476-10.466Z"/><path d="M82.581 33.973h-2.823V19.899h2.823Zm-2.359-15.809a1.286 1.286 0 0 1-.383-.948 1.319 1.319 0 0 1 .383-.958 1.269 1.269 0 0 1 .948-.393 1.343 1.343 0 0 1 1.351 1.351 1.271 1.271 0 0 1-.393.948 1.321 1.321 0 0 1-.958.383 1.287 1.287 0 0 1-.948-.383"/><path d="M99.904 19.899v14.074h-2.823v-9.154l-3.771 9.155h-2.137l-3.791-9.155v9.155h-2.823V19.899h3.206l4.477 10.466 4.477-10.466Z"/><path d="M110.51 31.292h-5.606l-.926 2.682h-2.964l5.064-14.095h3.287l5.062 14.095h-2.984Zm-.766-2.258-2.037-5.888-2.036 5.888Z"/><path d="m122.769 33.974-3.105-5.488h-1.331v5.484h-2.823V19.899h5.286a6.172 6.172 0 0 1 2.783.575 4.014 4.014 0 0 1 1.717 1.552 4.242 4.242 0 0 1 .575 2.188 4.193 4.193 0 0 1-.806 2.511 4.144 4.144 0 0 1-2.4 1.543l3.368 5.706Zm-4.436-7.6h2.363a2.356 2.356 0 0 0 1.714-.555 2.064 2.064 0 0 0 .564-1.543 1.969 1.969 0 0 0-.564-1.5 2.417 2.417 0 0 0-1.714-.534h-2.359Z"/><path d="M130.049 31.736h4.638v2.238h-7.461V19.899h2.823Z"/><path d="M144.708 31.292h-5.6l-.928 2.682h-2.964l5.054-14.095h3.287l5.061 14.095h-2.984Zm-.766-2.258-2.037-5.888-2.035 5.888Z"/><path d="m156.968 33.974-3.105-5.488h-1.331v5.484h-2.823V19.899h5.279a6.176 6.176 0 0 1 2.783.575 4.015 4.015 0 0 1 1.724 1.552 4.242 4.242 0 0 1 .575 2.188 4.19 4.19 0 0 1-.806 2.511 4.145 4.145 0 0 1-2.4 1.543l3.367 5.706Zm-4.436-7.6h2.356a2.354 2.354 0 0 0 1.714-.555 2.064 2.064 0 0 0 .564-1.543 1.968 1.968 0 0 0-.564-1.5 2.415 2.415 0 0 0-1.714-.534h-2.359Z"/><path d="M168.724 33.188a6.92 6.92 0 0 1-2.622-2.571 7.6 7.6 0 0 1 0-7.42 6.927 6.927 0 0 1 2.622-2.571 7.585 7.585 0 0 1 7.269 0 6.875 6.875 0 0 1 2.6 2.571 7.666 7.666 0 0 1 0 7.42 6.85 6.85 0 0 1-2.612 2.571 7.562 7.562 0 0 1-7.259 0m5.867-2.168a3.934 3.934 0 0 0 1.512-1.644 5.391 5.391 0 0 0 .544-2.48 5.334 5.334 0 0 0-.544-2.471 3.889 3.889 0 0 0-1.512-1.623 4.361 4.361 0 0 0-2.238-.564 4.416 4.416 0 0 0-2.249.564 3.87 3.87 0 0 0-1.523 1.623 5.334 5.334 0 0 0-.544 2.471 5.391 5.391 0 0 0 .544 2.48 3.915 3.915 0 0 0 1.523 1.644 4.351 4.351 0 0 0 2.249.575 4.3 4.3 0 0 0 2.238-.575"/><path d="M189.26 20.766a6.2 6.2 0 0 1 2.6 2.47 7.359 7.359 0 0 1 .917 3.72 7.246 7.246 0 0 1-.917 3.7 6.229 6.229 0 0 1-2.6 2.45 8.4 8.4 0 0 1-3.9.867h-4.921V19.899h4.921a8.408 8.408 0 0 1 3.9.867m-.575 9.6a4.608 4.608 0 0 0 1.21-3.408 4.716 4.716 0 0 0-1.21-3.438 4.571 4.571 0 0 0-3.428-1.24h-2v9.3h2a4.637 4.637 0 0 0 3.428-1.21"/><path d="M201.913 31.292h-5.6l-.928 2.682h-2.964l5.062-14.095h3.287l5.061 14.095h-2.984Zm-.766-2.258-2.037-5.888-2.036 5.888Z"/><path d="M208.315 33.611a4.35 4.35 0 0 1-1.865-1.452 3.827 3.827 0 0 1-.706-2.238h3.025a1.952 1.952 0 0 0 .615 1.371 2.18 2.18 0 0 0 1.523.5 2.342 2.342 0 0 0 1.552-.474 1.541 1.541 0 0 0 .565-1.24 1.436 1.436 0 0 0-.383-1.028 2.7 2.7 0 0 0-.959-.635 15.9 15.9 0 0 0-1.583-.514 16.854 16.854 0 0 1-2.228-.8 3.9 3.9 0 0 1-1.472-1.189 3.39 3.39 0 0 1-.615-2.128 3.809 3.809 0 0 1 .625-2.178 3.981 3.981 0 0 1 1.754-1.422 6.388 6.388 0 0 1 2.581-.494 5.6 5.6 0 0 1 3.539 1.059 3.924 3.924 0 0 1 1.5 2.954h-3.102a1.614 1.614 0 0 0-.615-1.2 2.318 2.318 0 0 0-1.522-.474 1.96 1.96 0 0 0-1.321.423 1.531 1.531 0 0 0-.494 1.23 1.272 1.272 0 0 0 .373.938 2.842 2.842 0 0 0 .928.6 16.5 16.5 0 0 0 1.563.535 16.5 16.5 0 0 1 2.238.806 4.024 4.024 0 0 1 1.492 1.21 3.365 3.365 0 0 1 .625 2.117 3.987 3.987 0 0 1-.585 2.1 4.13 4.13 0 0 1-1.714 1.542 5.84 5.84 0 0 1-2.681.575 6.682 6.682 0 0 1-2.652-.5"/><path d="M217.177 19.899H220v14.075h-2.823z"/><path d="m70.383 55.774-5.122-6.271v6.271h-2.823V41.7h2.823v6.311l5.122-6.311h3.408l-5.807 6.977 5.969 7.1Z"/><path d="M76.289 54.989a6.923 6.923 0 0 1-2.621-2.571 7.595 7.595 0 0 1 0-7.42 6.93 6.93 0 0 1 2.621-2.571 7.586 7.586 0 0 1 7.269 0 6.874 6.874 0 0 1 2.6 2.571 7.662 7.662 0 0 1 0 7.42 6.849 6.849 0 0 1-2.611 2.571 7.563 7.563 0 0 1-7.259 0m5.868-2.168a3.938 3.938 0 0 0 1.512-1.644 5.39 5.39 0 0 0 .544-2.48 5.333 5.333 0 0 0-.544-2.471 3.892 3.892 0 0 0-1.512-1.623 4.362 4.362 0 0 0-2.238-.564 4.414 4.414 0 0 0-2.248.564 3.867 3.867 0 0 0-1.523 1.623 5.333 5.333 0 0 0-.544 2.471 5.39 5.39 0 0 0 .544 2.48 3.911 3.911 0 0 0 1.523 1.644 4.349 4.349 0 0 0 2.248.575 4.3 4.3 0 0 0 2.238-.575"/><path d="M100.448 55.774h-2.823l-6.392-9.659v9.659H88.41V41.681h2.823l6.392 9.679v-9.679h2.823Z"/><path d="m113.614 41.7-4.759 9.175v4.9h-2.823v-4.9l-4.779-9.175h3.186l3.024 6.432 3-6.432Z"/><path d="M121.459 53.093h-5.606l-.927 2.682h-2.964l5.06-14.094h3.287l5.061 14.094h-2.984Zm-.766-2.258-2.037-5.888-2.036 5.888Z"/><path d="M141.027 53.597a4.089 4.089 0 0 1-1.391 1.492 5.075 5.075 0 0 1-2.187.766v.928a3.03 3.03 0 0 1 1.865.564 1.913 1.913 0 0 1 .756 1.633 1.971 1.971 0 0 1-.776 1.674 3.078 3.078 0 0 1-1.905.584h-2.864v-1.652h2.4a1.54 1.54 0 0 0 .736-.141.528.528 0 0 0 .252-.5.505.505 0 0 0-.252-.494 1.642 1.642 0 0 0-.736-.131h-1.25v-2.44a5.5 5.5 0 0 1-3.146-1.311 3.708 3.708 0 0 1-1.23-2.843h3.025a1.952 1.952 0 0 0 .615 1.371 2.18 2.18 0 0 0 1.523.5 2.342 2.342 0 0 0 1.552-.474 1.541 1.541 0 0 0 .565-1.24 1.436 1.436 0 0 0-.383-1.028 2.691 2.691 0 0 0-.959-.635 15.919 15.919 0 0 0-1.582-.514 16.839 16.839 0 0 1-2.229-.8 3.9 3.9 0 0 1-1.472-1.189 3.39 3.39 0 0 1-.615-2.128 3.808 3.808 0 0 1 .624-2.178 3.981 3.981 0 0 1 1.754-1.422 6.389 6.389 0 0 1 2.581-.494 5.6 5.6 0 0 1 3.54 1.059 3.923 3.923 0 0 1 1.5 2.954h-3.105a1.614 1.614 0 0 0-.615-1.2 2.32 2.32 0 0 0-1.523-.474 1.96 1.96 0 0 0-1.321.423 1.531 1.531 0 0 0-.494 1.23 1.272 1.272 0 0 0 .373.938 2.842 2.842 0 0 0 .928.6q.554.232 1.563.535a16.5 16.5 0 0 1 2.238.806 4.024 4.024 0 0 1 1.492 1.21 3.361 3.361 0 0 1 .625 2.117 3.964 3.964 0 0 1-.474 1.9"/><path d="M145.917 41.7v8.711a2.986 2.986 0 0 0 .746 2.188 3.314 3.314 0 0 0 4.215 0 2.986 2.986 0 0 0 .746-2.188V41.7h2.843v8.691a5.612 5.612 0 0 1-.776 3.035 4.923 4.923 0 0 1-2.077 1.865 6.591 6.591 0 0 1-2.893.625 6.414 6.414 0 0 1-2.853-.625 4.755 4.755 0 0 1-2.027-1.865 5.788 5.788 0 0 1-.746-3.035V41.7Z"/><path d="M165.92 49.745a3.477 3.477 0 0 1 .766 2.218 3.573 3.573 0 0 1-.555 1.986 3.7 3.7 0 0 1-1.6 1.341 5.875 5.875 0 0 1-2.48.484h-6.069V41.7h5.807a6.027 6.027 0 0 1 2.471.463 3.524 3.524 0 0 1 1.572 1.291 3.378 3.378 0 0 1 .534 1.875 3.206 3.206 0 0 1-.655 2.056 3.5 3.5 0 0 1-1.744 1.17 3.165 3.165 0 0 1 1.956 1.189m-7.118-2.238h2.581a2.366 2.366 0 0 0 1.553-.453 1.6 1.6 0 0 0 .544-1.3 1.627 1.627 0 0 0-.544-1.31 2.328 2.328 0 0 0-1.553-.464h-2.581Zm4.446 5.485a1.694 1.694 0 0 0 .575-1.371 1.765 1.765 0 0 0-.605-1.422 2.439 2.439 0 0 0-1.633-.514h-2.783v3.791h2.843a2.418 2.418 0 0 0 1.6-.484"/><path d="M170.557 43.981v3.529h4.739v2.238h-4.739v3.73h5.343v2.3h-8.167V41.681h8.167v2.3Z"/><path d="M179.867 55.412a4.35 4.35 0 0 1-1.865-1.452 3.828 3.828 0 0 1-.706-2.238h3.025a1.952 1.952 0 0 0 .615 1.371 2.18 2.18 0 0 0 1.523.5 2.342 2.342 0 0 0 1.552-.474 1.541 1.541 0 0 0 .565-1.24 1.436 1.436 0 0 0-.383-1.028 2.7 2.7 0 0 0-.959-.635 15.889 15.889 0 0 0-1.583-.514 16.85 16.85 0 0 1-2.228-.8 3.9 3.9 0 0 1-1.472-1.189 3.39 3.39 0 0 1-.615-2.128 3.809 3.809 0 0 1 .625-2.178 3.981 3.981 0 0 1 1.754-1.422 6.388 6.388 0 0 1 2.581-.494 5.6 5.6 0 0 1 3.536 1.063 3.923 3.923 0 0 1 1.5 2.954h-3.105a1.614 1.614 0 0 0-.615-1.2 2.318 2.318 0 0 0-1.522-.474 1.96 1.96 0 0 0-1.321.423 1.531 1.531 0 0 0-.494 1.23 1.272 1.272 0 0 0 .373.938 2.842 2.842 0 0 0 .928.6 16.5 16.5 0 0 0 1.563.535 16.5 16.5 0 0 1 2.238.806 4.024 4.024 0 0 1 1.492 1.21 3.364 3.364 0 0 1 .625 2.117 3.986 3.986 0 0 1-.585 2.1 4.129 4.129 0 0 1-1.714 1.542 5.84 5.84 0 0 1-2.681.575 6.681 6.681 0 0 1-2.652-.5"/><path d="M191.952 55.774h-2.823V41.696h2.823Zm-2.36-15.809a1.287 1.287 0 0 1-.383-.948 1.321 1.321 0 0 1 .383-.958 1.269 1.269 0 0 1 .948-.393 1.342 1.342 0 0 1 1.351 1.351 1.27 1.27 0 0 1-.393.948 1.323 1.323 0 0 1-.958.383 1.287 1.287 0 0 1-.948-.383"/></g></g></g></svg>