<svg xmlns="http://www.w3.org/2000/svg" width="220" height="233.831"><path data-name="Path 3583" d="M214.446 174.372c-2.253-14.507-7.194-22.768-17.735-28.149-15.662-8-41.577-16.46-52.237-22.742-11.482 34.892-61.916 28.51-67.836.481-12.55 4.574-45.813 13-58.557 24.527-3.292 2.977-6.311 11.836-7.128 15.364L0 233.741l220 .089Z" fill="#b4b2ab" fill-rule="evenodd"/><path data-name="Path 3584" d="M76.447 57.379c.123.131.236.255.347.376a13.676 13.676 0 0 0 1.174 1.224c1.031-6.438-.542-1.5 2.575-19.067a31.119 31.119 0 0 1 3.613-10.653c2.133-3.359 51.833 6.011 51.987 6.141 1.351 4.027 4 15.525 5.852 23.568.118-.143.223-.284.327-.422l.019-.024c1.05-3.488 2.6-5.664 4.685-5.527a2.639 2.639 0 0 1 .6.12 168.753 168.753 0 0 0 .091-22.642C147.928 7.842 122.641-1.039 104.483.1 72.595 2.092 66.672 23.9 71.546 53.036c2.907 0 4.155 2.1 4.9 4.347" fill="#b4b2ab" fill-rule="evenodd"/><path data-name="Path 3585" d="M147.628 53.114a2.622 2.622 0 0 0-.6-.12c-2.089-.135-3.635 2.038-4.685 5.527a1.046 1.046 0 0 0-.022.08 40.279 40.279 0 0 0-1.312 7.063 40.279 40.279 0 0 1 1.312-7.063v-.054c-.1.139-.209.277-.327.421-.582-9.417-3.78-25.812-5.131-29.839-3.036-2.513-6.778-7.664-38.7-6.712-3.71-1.069-13.879 6.645-14 6.843a31.131 31.131 0 0 0-3.613 10.655c-3.123 17.562-1.548 12.627-2.581 19.065a13.587 13.587 0 0 1-1.167-1.213c-.038-.124-.072-.265-.113-.387-1.009-3.044-2.453-4.913-4.384-4.808a2.7 2.7 0 0 0-1.35.467c-2.727 1.8-3.767 8.529-1.587 14.884 2.51 7.321 4.038 13.941 7.727 13.737 2.206-.121 2.408-1.874 2.113-5.114a58.525 58.525 0 0 0 4.834 13.042 155.124 155.124 0 0 1 1.237 15.831c.014.505.021 1.012.03 1.517 5.928 11.225 11.593 18.629 19.915 25.792q5.562.1 11.128.194a56.065 56.065 0 0 0 18.5-24.677q-.057-2.068-.073-4.162c-.03-4.17.088-8.44.472-12.908a51.626 51.626 0 0 0 4.5-11.982c.043 1.774.575 2.735 2.188 2.84 3.688.241 5.281-6.363 7.868-13.657 2.44-6.884 1.082-14.248-2.177-15.262M74.187 68.129c.545 2.3 1.618 2.628 1.538 4.519-.309 7.377-2.2 1.348-3.364-.876-1.434-2.752-1.806-8.282-1.523-10.378s1.122-6.21 2.784-6.124c1.594.08 3.982 5.7 1.743 8.309a5 5 0 0 0-1.178 4.55m32.867 39.806a18.746 18.746 0 0 1-7.955-2.04 18.746 18.746 0 0 0 7.955 2.04 30.863 30.863 0 0 0 15.232-3.343 30.863 30.863 0 0 1-15.232 3.343M127.545 101a28.057 28.057 0 0 1-4.792 3.324 28.057 28.057 0 0 0 4.792-3.324m19.23-28.808c-1.181 2.212-3.138 8.221-3.372.843-.061-1.895 1.015-2.212 1.584-4.5a5 5 0 0 0-1.131-4.562c-2.212-2.633.234-8.226 1.828-8.292 1.664-.069 2.462 4.054 2.722 6.153s-.167 7.625-1.63 10.362" fill="#f5f2ed" fill-rule="evenodd"/><path data-name="Path 3586" d="m136.172 104.046-1.39.038q.017 2.094.073 4.162a45.52 45.52 0 0 0 1.316-4.2" fill="#e6e6e8" fill-rule="evenodd"/><path data-name="Path 3587" d="M136.194 104.045Z" fill="#e6e6e8" fill-rule="evenodd"/><path data-name="Path 3588" d="m85.278 105.419-.755.021c.263.51.524 1 .786 1.5-.01-.505-.016-1.01-.03-1.517" fill="#e6e6e8" fill-rule="evenodd"/><path data-name="Path 3589" d="m161.327 162.554-8.819-10.452-1.449-1.718 2.214-.378 10.022-1.71.3-15.249a.4.4 0 0 1 .107.022c-8.02-5.052-18.78-15.986-21.753-19.733-1.372 33.209-7.751 64.539-14.967 89.827.135.7.274 1.409.4 2.092a239.6 239.6 0 0 1-9.1 28.576h9.858a235.91 235.91 0 0 0 14.98-22.784c8.531-14.854 15.686-31.566 18.205-48.493m-60.037 71.277c-4.743-12.333-8.041-23.349-8.755-28.133a13.57 13.57 0 0 1 .322-2.486c-8.86-36.438-12.762-77.4-13.84-89.172l.129-.191c-6.244 8.54-12.384 12.22-22.114 16.028-.139.054-.288.108-.432.163l.182-.067.3 15.512 10.021 1.71 2.215.378-1.45 1.718-8.768 10.392c4.3 16.766 20.368 49.953 32.6 74.149Z" fill="#d9d9d1" fill-rule="evenodd"/><path data-name="Path 3590" d="M92.856 203.21c2.153-11.386 14.325-53.682 14.325-53.682l-5.874-9.582 4.408-6.167 9.944.214 5.007 5.821-5.74 9.884c2.94 16.006 8.872 37.042 12.054 53.462 7.219-25.287 13.6-56.618 14.97-89.825v-.08c-3.629-4.7-1.566-1.547-5.758-9.211a.12.12 0 0 0-.016-.027l-.006.027a45.953 45.953 0 0 1-1.318 4.2 56.076 56.076 0 0 1-18.5 24.677l-11.13-.193c-8.321-7.163-13.99-14.567-19.913-25.792-.261-.5-.524-.986-.786-1.5-.991 1.488-4.264 6.76-5.378 8.411l-.131.19c1.077 11.77 4.98 52.734 13.842 89.172" fill="#fff" fill-rule="evenodd"/><path data-name="Path 3591" d="m120.667 139.817-5.007-5.823-9.947-.214-4.4 6.169 5.867 9.583s-12.169 42.3-14.325 53.684a13.554 13.554 0 0 0-.322 2.486c.716 4.784 4.013 15.8 8.755 28.133h17a239.615 239.615 0 0 0 9.1-28.576c-.126-.685-.265-1.391-.4-2.092-3.184-16.42-9.115-37.456-12.056-53.464Z" fill="#b4b2ab" fill-rule="evenodd"/><path data-name="Path 3592" d="M138.541 32.098a.609.609 0 0 1-.078.1.147.147 0 0 0 .078-.1" fill="#fff" fill-rule="evenodd"/><path data-name="Path 3593" d="M135.786 35.236c.121.056.233.105.355.163-.019-.046-.147-.1-.355-.163" fill="#fff" fill-rule="evenodd"/><path data-name="Path 3594" d="M79.412 46.918a.7.7 0 0 1-.129-.018.147.147 0 0 0 .129.018" fill="#fff" fill-rule="evenodd"/><path data-name="Path 3595" d="M73.621 55.269c-1.662-.084-2.5 4.029-2.786 6.124s.091 7.627 1.525 10.379c1.159 2.223 3.055 8.252 3.364.876.08-1.893-.993-2.221-1.539-4.519a5.008 5.008 0 0 1 1.178-4.55c2.239-2.61-.15-8.229-1.742-8.311" fill="#babbc0" fill-rule="evenodd"/><path data-name="Path 3596" d="M145.682 55.677c-1.594.062-4.04 5.662-1.827 8.292a5 5 0 0 1 1.131 4.562c-.569 2.29-1.646 2.609-1.584 4.5.233 7.378 2.19 1.37 3.372-.841 1.461-2.738 1.89-8.264 1.63-10.362s-1.058-6.221-2.722-6.153" fill="#babbc0" fill-rule="evenodd"/><path data-name="Path 3597" d="M130.373 117.447c-24.738 4.282-41.764-13.25-46.25-27.702 5.369 10.271 13.6 17.993 22.93 18.189 13.4.279 22.618-6.363 28.2-16.762-.384 4.47-.5 8.739-.473 12.91q.017 2.094.073 4.162a50.717 50.717 0 0 1-4.481 9.2" fill="#d9d9d1" fill-rule="evenodd"/></svg>