<svg xmlns="http://www.w3.org/2000/svg" width="199.495" height="233.502"><path data-name="Path 3598" d="M95.007 204.489c-48.88 6.828-44.636-93.56-41.585-132.917C56.317 34.229 72.394-1.887 95.375 1.75c34.117-10.512 53.33 28.106 55.868 68.4 2.511 39.863 14.387 138.416-56.236 134.339" fill="#c6c5c1" fill-rule="evenodd"/><path data-name="Path 3599" d="M126.772 117.845c-3.049-3.261-4.672-10.281-5.559-23.48a50.042 50.042 0 0 0 10.489-20.657c.046 1.927.46 2.945 1.917 2.95 2.955.008 3.9-5.764 5.6-12.186s-.031-13.087-2.986-13.1c-1.2 0-2.115 1.011-2.785 2.709.261-24.389.5-41.637-30.762-41.641-7.94 0-13.91 1.163-18.4 3.3-12.863 6.143-12.463 20.201-12.234 37.851-.643-1.445-1.5-2.293-2.6-2.3-2.955-.008-4.721 6.647-3.054 13.079s2.58 12.211 5.535 12.219c1.193 0 1.686-.685 1.858-1.986a47.239 47.239 0 0 0 8.812 17.868c.653 9.1.8 20.6-1.993 25.3-8.138 10.344-21.66 13.308-40.94 22.695 41.635 97.058 96.38 75.114 125.972 1.209-29.879-16.951-31.407-15.847-38.87-23.828" fill="#f5f2ed" fill-rule="evenodd"/><path data-name="Path 3600" d="M70.379 53.684c-1.323-.157-2.184 3.346-2.506 5.137s-.28 6.574.737 9.017c.823 1.973 2.057 7.26 2.644.922.152-1.627-.69-1.963-1.02-3.969a4.516 4.516 0 0 1 1.151-3.862c1.907-2.136.261-7.1-1.008-7.245" fill="#babbc0" fill-rule="evenodd"/><path data-name="Path 3601" d="M135.291 53.758c1.325-.148 2.168 3.359 2.479 5.152s.247 6.576-.784 9.012c-.833 1.968-2.093 7.249-2.649.906-.144-1.627.7-1.958 1.039-3.963a4.513 4.513 0 0 0-1.13-3.867c-1.9-2.15-.224-7.1 1.044-7.24" fill="#babbc0" fill-rule="evenodd"/><path data-name="Path 3602" d="M71.899 54.751c4.151-16.461 3.948-21.659 19.166-33.878 18.067 19.531 38.994 12.874 42.638 36.773 4.454-3.285 3.039-11.488 2.816-15.246-.569-18.122-17.3-37.788-34.073-35.7-23.927 4.755-28.205 11.879-35.668 40.712Z" fill="#c6c5c1" fill-rule="evenodd"/><path data-name="Path 3603" d="M38.088 233.501H199.5l-13.981-74.635c-1.495-7.871-10.314-16.264-18.566-19.56-10.953-5.314-18.836-7.151-28.862-12.967-12.137 50.109-66.7 35.341-68.87.246-14.399 5.27-16.527 6.87-31.405 12.641 0 .015-15.976 5.193-20.017 21.129L0 233.501Z" fill="#b4b2ab" fill-rule="evenodd"/><path data-name="Path 3604" d="M121.212 94.365c-6.031 6.94-13.254 10.678-19.105 10.16-5.713-.2-13.359-4.4-19.5-12.053q.049.685.094 1.387c4.17 14.865 17.37 32.769 44.358 24.287l-.284-.3c-3.047-3.26-4.67-10.284-5.559-23.48" fill="#d9d9d1" fill-rule="evenodd"/></svg>