<svg xmlns="http://www.w3.org/2000/svg" viewBox="0 0 118.432 38.39"><path fill="#ffbf00" fill-rule="evenodd" d="M42.438.065A5.756 5.756 0 0 0 36.699 5.8v26.787a5.739 5.739 0 0 0 11.478 0V5.8A5.756 5.756 0 0 0 42.438.065" data-name="Path 47"/><path fill="#0e0c25" fill-rule="evenodd" d="M94.526.065A5.756 5.756 0 0 0 88.787 5.8v26.787a5.739 5.739 0 0 0 11.478 0V5.8A5.756 5.756 0 0 0 94.526.065" data-name="Path 48"/><path fill="#0e0c25" fill-rule="evenodd" d="M118.432 5.8a5.757 5.757 0 0 0-5.74-5.739H94.525a5.739 5.739 0 0 0 0 11.478h18.167a5.756 5.756 0 0 0 5.74-5.739" data-name="Path 49"/><path fill="#0e0c25" fill-rule="evenodd" d="M114.274 21a5.756 5.756 0 0 0-5.739-5.739h-14.01a5.739 5.739 0 0 0 0 11.478h14.01A5.756 5.756 0 0 0 114.274 21" data-name="Path 50"/><path fill="#0e0c25" fill-rule="evenodd" d="M5.739.065A5.756 5.756 0 0 0-.001 5.8v26.787a5.7385 5.7385 0 0 0 11.477 0V5.8A5.756 5.756 0 0 0 5.739.065" data-name="Path 51"/><path fill="#008eb9" fill-rule="evenodd" d="M80.305 26.844a5.757 5.757 0 0 0-5.74 5.739 5.7395 5.7395 0 0 0 11.479 0 5.756 5.756 0 0 0-5.739-5.739" data-name="Path 52"/><path fill="#dd1648" fill-rule="evenodd" d="M38.375 1.732a5.757 5.757 0 0 0 0 8.117l18.957 18.956a5.755 5.755 0 0 0 8.1-.018L84.368 9.848a5.756 5.756 0 0 0 0-8.116 5.754 5.754 0 0 0-8.115 0L63.187 14.8a2.858 2.858 0 0 1-1.805.643 2.857 2.857 0 0 1-1.989-.807l-12.9-12.9a5.756 5.756 0 0 0-8.116 0" data-name="Path 53"/><path fill="#0e0c25" fill-rule="evenodd" d="M32.282 1.675a5.757 5.757 0 0 0-8.117 0l-13.48 13.482a5.755 5.755 0 0 0 .018 8.1l13.463 13.459a5.739 5.739 0 1 0 8.116-8.116l-7.589-7.589a2.856 2.856 0 0 1-.643-1.805 2.858 2.858 0 0 1 .806-1.988l7.426-7.426a5.756 5.756 0 0 0 0-8.116" data-name="Path 54"/></svg>