<svg xmlns="http://www.w3.org/2000/svg" viewBox="0 0 182.868 36.437"><path fill="#1a1818" fill-rule="evenodd" d="M33.4 35.145h-6.463v-16.8a9.337 9.337 0 0 0-.2-2.484 1.764 1.764 0 0 0-1.889-1.143 6.928 6.928 0 0 0-4.424 2.136v18.291h-6.31V18.593a9.39 9.39 0 0 0-.249-2.683 1.921 1.921 0 0 0-2.038-1.242 6.641 6.641 0 0 0-4.374 1.938v18.539H.944V17.402q0-4.82-.944-6.51l6.014-1.64a8.3 8.3 0 0 1 .894 2.584 8.688 8.688 0 0 1 6.212-2.584 6.916 6.916 0 0 1 5.169 2.087q.4.447.994 1.242a9.953 9.953 0 0 1 7.206-3.33q3.827 0 5.467 2.037 1.441 1.84 1.441 5.765Z" data-name="Path 40"/><path fill="#1a1818" fill-rule="evenodd" d="M47.764 4.125a3.984 3.984 0 0 1-1.193 2.932 3.983 3.983 0 0 1-2.932 1.193 3.928 3.928 0 0 1-2.883-1.193 4.094 4.094 0 0 1-1.192-2.932 3.986 3.986 0 0 1 1.192-2.932A4.154 4.154 0 0 1 43.739 0a3.822 3.822 0 0 1 2.882 1.193 4.074 4.074 0 0 1 1.143 2.932m-.8 31.021h-6.659v-25L46.968 9.1Z" data-name="Path 41"/><path fill="#1a1818" fill-rule="evenodd" d="M86.535 35.145h-6.461v-16.8a9.332 9.332 0 0 0-.2-2.484 1.764 1.764 0 0 0-1.888-1.143 6.928 6.928 0 0 0-4.424 2.136v18.291h-6.31V18.593a9.389 9.389 0 0 0-.249-2.683 1.921 1.921 0 0 0-2.038-1.242 6.639 6.639 0 0 0-4.373 1.938v18.539h-6.511V17.402q0-4.82-.944-6.51l6.014-1.64a8.291 8.291 0 0 1 .894 2.584 8.687 8.687 0 0 1 6.212-2.584 6.914 6.914 0 0 1 5.169 2.087q.4.447.994 1.242a9.955 9.955 0 0 1 7.206-3.33q3.828 0 5.467 2.037 1.441 1.84 1.442 5.765Z" data-name="Path 42"/><path fill="#1a1818" fill-rule="evenodd" d="m114.668 32.362-3.529 4.075a6.686 6.686 0 0 1-3.578-3.081 17.259 17.259 0 0 1-1.541 1.342 8.6 8.6 0 0 1-5.119 1.391 9.343 9.343 0 0 1-6.312-1.938 7.4 7.4 0 0 1-2.435-6.014q0-8.747 12.226-8.747.8 0 1.491.049v-1.042a5.428 5.428 0 0 0-.5-2.783 2.674 2.674 0 0 0-2.485-.994q-3.08 0-7.355 2.882l-2.832-4.771a25.169 25.169 0 0 1 4.125-2.087 18.564 18.564 0 0 1 6.958-1.491q6.66 0 8.2 4.424a14.537 14.537 0 0 1 .447 4.572l-.149 9a8.457 8.457 0 0 0 .4 2.982 5.8 5.8 0 0 0 1.987 2.236m-8.9-8.349h-.3a12.312 12.312 0 0 0-4.224.5 3.3 3.3 0 0 0-1.988 3.38 3.863 3.863 0 0 0 .746 2.386 2.706 2.706 0 0 0 2.187.944 4.67 4.67 0 0 0 3.479-1.74Z" data-name="Path 43"/><path fill="#1a1818" fill-rule="evenodd" d="m134.154 9.651-1.839 5.861a4.114 4.114 0 0 0-1.938-.5 5.338 5.338 0 0 0-4.075 2.137v17.996h-6.66v-17a22.215 22.215 0 0 0-.944-7.454l5.965-1.59a8.58 8.58 0 0 1 1.043 3.631 9.968 9.968 0 0 1 3.777-3.231 5.152 5.152 0 0 1 2.186-.4 6.367 6.367 0 0 1 2.485.547" data-name="Path 44"/><path fill="#e0007a" fill-rule="evenodd" d="m157.964 32.362-3.529 4.075a6.684 6.684 0 0 1-3.578-3.081 17.347 17.347 0 0 1-1.541 1.342 8.6 8.6 0 0 1-5.119 1.391 9.343 9.343 0 0 1-6.312-1.938 7.4 7.4 0 0 1-2.435-6.014q0-8.747 12.226-8.747.8 0 1.491.049v-1.042a5.431 5.431 0 0 0-.5-2.783 2.674 2.674 0 0 0-2.485-.994q-3.081 0-7.355 2.882l-2.832-4.771a25.142 25.142 0 0 1 4.125-2.087 18.561 18.561 0 0 1 6.958-1.491q6.66 0 8.2 4.424a14.537 14.537 0 0 1 .447 4.572l-.149 9a8.464 8.464 0 0 0 .4 2.982 5.8 5.8 0 0 0 1.988 2.236m-8.9-8.349h-.3a12.314 12.314 0 0 0-4.224.5 3.3 3.3 0 0 0-1.988 3.38 3.865 3.865 0 0 0 .746 2.386 2.707 2.707 0 0 0 2.187.944 4.67 4.67 0 0 0 3.479-1.74Z" data-name="Path 45"/><path fill="#e0007a" fill-rule="evenodd" d="M182.868 35.145h-6.56V18.596a7.734 7.734 0 0 0-.3-2.584 1.853 1.853 0 0 0-1.937-1.143q-2.088 0-4.622 2.286v17.99h-6.66V16.708a17.923 17.923 0 0 0-.9-5.965l5.915-1.689a6.368 6.368 0 0 1 .944 3.181q1.392-.993 2.932-1.889a8.986 8.986 0 0 1 4.572-1.093 7.445 7.445 0 0 1 3.628.895 5.3 5.3 0 0 1 2.485 2.783 10.731 10.731 0 0 1 .5 3.628Z" data-name="Path 46"/></svg>