<svg xmlns="http://www.w3.org/2000/svg" viewBox="0 0 58.389 58.389"><path fill="#fff" d="M40.892-.001H13.985a7.324 7.324 0 0 0-5.5 2.319L2.339 8.463A7.34 7.34 0 0 0 0 13.985v39.9a4.512 4.512 0 0 0 4.507 4.504h36.385a4.512 4.512 0 0 0 4.508-4.507V4.507a4.512 4.512 0 0 0-4.508-4.508m2.254 53.882a2.255 2.255 0 0 1-2.254 2.254H4.507a2.255 2.255 0 0 1-2.254-2.254v-39.9a5.183 5.183 0 0 1 1.659-3.909l6.188-6.18a5.085 5.085 0 0 1 2.758-1.533v8.84a1.679 1.679 0 0 1-1.658 1.659H5.369a1.127 1.127 0 1 0 0 2.254H11.2a3.915 3.915 0 0 0 3.911-3.91V2.253h25.78a2.255 2.255 0 0 1 2.254 2.254Z" data-name="Path 98"/><path fill="#fff" d="M38.307 7.555H29.36a1.127 1.127 0 0 0 0 2.254h8.947a1.127 1.127 0 0 0 0-2.254" data-name="Path 99"/><path fill="#fff" d="M38.307 12.858H20.082a1.127 1.127 0 0 0 0 2.254h18.225a1.127 1.127 0 0 0 0-2.254" data-name="Path 100"/><path fill="#fff" d="M9.346 26.511h-2.32a1.127 1.127 0 1 0 0 2.254h2.32a1.127 1.127 0 0 0 0-2.254" data-name="Path 101"/><path fill="#fff" d="M38.307 26.511H13.985a1.127 1.127 0 1 0 0 2.254h24.322a1.127 1.127 0 0 0 0-2.254" data-name="Path 102"/><path fill="#fff" d="M9.346 21.142h-2.32a1.127 1.127 0 1 0 0 2.254h2.32a1.127 1.127 0 0 0 0-2.254" data-name="Path 103"/><path fill="#fff" d="M38.307 21.142H13.985a1.127 1.127 0 1 0 0 2.254h24.322a1.127 1.127 0 0 0 0-2.254" data-name="Path 104"/><path fill="#fff" d="M9.346 37.18h-2.32a1.127 1.127 0 1 0 0 2.254h2.32a1.127 1.127 0 0 0 0-2.254" data-name="Path 105"/><path fill="#fff" d="M38.307 37.18H13.985a1.127 1.127 0 1 0 0 2.254h24.322a1.127 1.127 0 0 0 0-2.254" data-name="Path 106"/><path fill="#fff" d="M9.346 31.812h-2.32a1.127 1.127 0 1 0 0 2.254h2.32a1.127 1.127 0 0 0 0-2.254" data-name="Path 107"/><path fill="#fff" d="M38.307 31.812H13.985a1.127 1.127 0 1 0 0 2.254h24.322a1.127 1.127 0 0 0 0-2.254" data-name="Path 108"/><path fill="#fff" d="M9.346 47.851h-2.32a1.127 1.127 0 1 0 0 2.254h2.32a1.127 1.127 0 0 0 0-2.254" data-name="Path 109"/><path fill="#fff" d="M38.307 47.851H13.985a1.127 1.127 0 1 0 0 2.254h24.322a1.127 1.127 0 0 0 0-2.254" data-name="Path 110"/><path fill="#fff" d="M9.346 42.483h-2.32a1.127 1.127 0 1 0 0 2.254h2.32a1.127 1.127 0 0 0 0-2.254" data-name="Path 111"/><path fill="#fff" d="M38.307 42.483H13.985a1.127 1.127 0 1 0 0 2.254h24.322a1.127 1.127 0 0 0 0-2.254" data-name="Path 112"/><path fill="#fff" d="M55.009 3.778h-2.256a3.345 3.345 0 0 0-3.38 3.38v3.314a1.127 1.127 0 0 0 1.127 1.127h5.634v35.126h-4.507v-32.74a1.127 1.127 0 0 0-2.254 0v34.131a1.131 1.131 0 0 0 .177.606l3.38 5.3a1.125 1.125 0 0 0 1.9 0l3.38-5.3a1.131 1.131 0 0 0 .177-.606V7.158a3.345 3.345 0 0 0-3.38-3.38m-3.38 5.568V7.158a1.114 1.114 0 0 1 1.127-1.127h2.254a1.114 1.114 0 0 1 1.127 1.127v2.187Zm2.254 41.977-1.495-2.345h2.989Z" data-name="Path 113"/></svg>