<svg xmlns="http://www.w3.org/2000/svg" viewBox="0 0 61.691 61.718"><path fill="#fff" d="M14.833 51.86h25.789a1.192 1.192 0 0 0 0-2.383H14.833a1.8 1.8 0 0 1-1.823-1.821V4.135a1.79 1.79 0 0 1 1.823-1.753h32.025a1.776 1.776 0 0 1 1.753 1.753v37.493a1.1915 1.1915 0 1 0 2.383 0V4.135a4.141 4.141 0 0 0-4.136-4.136H14.833a4.176 4.176 0 0 0-4.206 4.135v43.52a4.16 4.16 0 0 0 4.206 4.2" data-name="Path 114"/><path fill="#fff" d="m58.275 10.599-4.064-.7a1.192 1.192 0 1 0-.406 2.349l4.062.7a1.767 1.767 0 0 1 1.415 2.054l-6.1 34.62a1.192 1.192 0 0 0 .967 1.38 1.237 1.237 0 0 0 .208.018 1.191 1.191 0 0 0 1.172-.985l6.1-34.622a4.155 4.155 0 0 0-3.354-4.813" data-name="Path 115"/><path fill="#fff" d="M53.723 53.35a1.188 1.188 0 0 0-1.38.967l-.63 3.577a1.769 1.769 0 0 1-2.055 1.414L18.122 53.77a1.19153032 1.19153032 0 1 0-.413 2.347l31.539 5.537a4.292 4.292 0 0 0 .73.064 4.158 4.158 0 0 0 2.367-.739 4.079 4.079 0 0 0 1.714-2.675l.63-3.574a1.192 1.192 0 0 0-.967-1.38" data-name="Path 116"/><path fill="#fff" d="m21.214 57.694-9.178 1.613a1.806 1.806 0 0 1-1.336-.29 1.712 1.712 0 0 1-.721-1.127L2.41 15.004a1.767 1.767 0 0 1 1.412-2.056l4.065-.7a1.192 1.192 0 0 0-.406-2.349l-4.067.7a4.155 4.155 0 0 0-3.351 4.816l7.569 42.887a4.078 4.078 0 0 0 1.714 2.677 4.154 4.154 0 0 0 2.367.739 4.333 4.333 0 0 0 .733-.064l9.18-1.613a1.19153032 1.19153032 0 1 0-.413-2.347" data-name="Path 117"/><path fill="#fff" d="m38.371 44.498 4.8 4.873a3.793 3.793 0 0 0 2.585.992 3.88 3.88 0 0 0 2.642-1.023 3.729 3.729 0 0 0-.018-5.278l-1.682-1.612a1.192 1.192 0 1 0-1.649 1.721l1.67 1.594a1.348 1.348 0 0 1 .033 1.858 1.489 1.489 0 0 1-1.916.037l-3.937-3.993 2.668-2.668a1.192 1.192 0 1 0-1.685-1.685l-.909.909-1.716-1.715a10.953 10.953 0 0 0 2.556-7.042 10.815 10.815 0 0 0-1.658-5.824 1.192 1.192 0 1 0-2.011 1.28 8.43 8.43 0 0 1 1.285 4.545 8.584 8.584 0 1 1-8.619-8.619 8.918 8.918 0 0 1 4.58 1.306 1.192 1.192 0 0 0 1.212-2.052 11.269 11.269 0 0 0-5.792-1.637 11 11 0 1 0 6.73 19.7l1.747 1.747-.91.91a1.192 1.192 0 0 0-.006 1.679" data-name="Path 118"/><path fill="#fff" d="M19.527 7.639h22.637a1.192 1.192 0 0 0 0-2.383H19.527a1.192 1.192 0 1 0 0 2.383" data-name="Path 119"/><path fill="#fff" d="M19.527 12.615h22.637a1.192 1.192 0 0 0 0-2.383H19.527a1.192 1.192 0 1 0 0 2.383" data-name="Path 120"/><path fill="#fff" d="M24.503 15.208a1.192 1.192 0 0 0 0 2.383h12.684a1.192 1.192 0 0 0 0-2.383Z" data-name="Path 121"/></svg>