<svg xmlns="http://www.w3.org/2000/svg" viewBox="0 0 45.666 58.389"><path fill="#fff" d="M44.54 50.436a1.124 1.124 0 0 0 1.126-1.126V5.631A5.706 5.706 0 0 0 40.033 0h-34.4A5.637 5.637 0 0 0 0 5.631v47.127a5.637 5.637 0 0 0 5.633 5.631h34.4a5.706 5.706 0 0 0 5.633-5.631 1.126 1.126 0 1 0-2.251 0 3.426 3.426 0 0 1-3.382 3.379h-34.4a3.386 3.386 0 0 1-3.382-3.379V5.631a3.385 3.385 0 0 1 3.382-3.38h34.4a3.426 3.426 0 0 1 3.382 3.379v43.68a1.124 1.124 0 0 0 1.126 1.126" data-name="Path 95"/><path fill="#fff" d="M40.033 16.833h-34.4a1.956 1.956 0 0 0-1.982 1.923v34a1.933 1.933 0 0 0 1.987 1.92h34.4a1.9 1.9 0 0 0 1.92-1.92v-34a1.9 1.9 0 0 0-1.92-1.923M12.792 52.427H5.899v-6.631h6.894Zm8.882 0h-6.63v-6.631h6.631Zm8.949 0h-6.7v-6.631h6.7Zm0-8.882H5.898V36.85h6.894v4.309a1.126 1.126 0 1 0 2.251 0V36.85h6.631v4.309a1.126 1.126 0 1 0 2.251 0V36.85h6.7Zm9.079 8.882h-6.827V36.849h6.827Zm0-17.829h-33.8V27.97h6.894v4.309a1.126 1.126 0 1 0 2.251 0V27.97h6.631v4.309a1.126 1.126 0 1 0 2.251 0V27.97h6.7v4.309a1.126 1.126 0 1 0 2.251 0V27.97h6.827Zm0-8.882h-33.8v-6.631h6.894v4.245a1.126 1.126 0 1 0 2.251 0v-4.245h6.631v4.245a1.126 1.126 0 1 0 2.251 0v-4.245h6.7v4.245a1.126 1.126 0 1 0 2.251 0v-4.245h6.827Z" data-name="Path 96"/><path fill="#fff" d="M41.951 5.631a1.9 1.9 0 0 0-1.92-1.92h-34.4a1.933 1.933 0 0 0-1.98 1.92V9.41a1.126 1.126 0 0 0 2.251 0V5.962h33.8v6.632H5.851a1.126 1.126 0 0 0-2.2.329 1.935 1.935 0 0 0 1.987 1.923h34.4a1.9 1.9 0 0 0 1.92-1.923Z" data-name="Path 97"/></svg>