<!-- 
\sdata-name="[^"]*"
\sfill="[^"]*"
 -->

<svg width="0" height="0" class="hidden">
    <symbol xmlns="http://www.w3.org/2000/svg" viewBox="0 0 20.677 31.853" id="triangle_right"><path d="M0 3.22v25.412a3.214 3.214 0 0 0 5.292 2.452l13.766-11.665a4.579 4.579 0 0 0 0-6.987L5.292.768A3.214 3.214 0 0 0 0 3.22"/></symbol>
    <symbol xmlns="http://www.w3.org/2000/svg" viewBox="0 0 5.087 7.837" id="triangle_marker"><path d="M0 .792v6.252a.791.791 0 0 0 1.3.6l3.387-2.87a1.126 1.126 0 0 0 0-1.719L1.3.189a.791.791 0 0 0-1.3.6"/></symbol>
    <symbol xmlns="http://www.w3.org/2000/svg" viewBox="0 0 24.643 24.643" id="search_icon"><path d="m24.368 23.04-6.5-6.5a10.085 10.085 0 1 0-1.328 1.328l6.5 6.5a.9390378.9390378 0 1 0 1.328-1.328M4.282 15.91a8.223 8.223 0 1 1 5.818 2.408 8.232 8.232 0 0 1-5.814-2.408"/><path d="M10.097 3.565a6.533 6.533 0 0 0-6.312 4.849.93908386.93908386 0 1 0 1.815.483 4.654 4.654 0 0 1 7.786-2.089.9390378.9390378 0 0 0 1.328-1.328 6.488 6.488 0 0 0-4.617-1.915"/></symbol>
    <symbol xmlns="http://www.w3.org/2000/svg" viewBox="0 0 17.643 26.5" id="event_location"><path d="M8.821 0A8.821 8.821 0 0 0 0 8.821a10.96 10.96 0 0 0 1.8 5.851L8.881 26.5 16 14.329a10.749 10.749 0 0 0 1.645-5.507A8.821 8.821 0 0 0 8.821 0m0 12.972a4.151 4.151 0 1 1 4.151-4.151 4.151 4.151 0 0 1-4.151 4.151"/></symbol>
    <symbol xmlns="http://www.w3.org/2000/svg" viewBox="0 0 21.666 20.862" id="event_calendar"><path d="M.572 8.459a.572.572 0 0 0 .572-.572V6.732H20.52v1.155a.5725.5725 0 1 0 1.145 0v-3.38a2.463 2.463 0 0 0-2.458-2.462h-2.121V.572a.5725.5725 0 1 0-1.145 0v1.474h-4.584V.572a.5725.5725 0 1 0-1.145 0v1.474H5.627V.572a.5725.5725 0 1 0-1.145 0v1.474H2.457A2.463 2.463 0 0 0 0 4.507v3.38a.572.572 0 0 0 .572.572"/><path d="M8.4 18.455H2.457a1.314 1.314 0 0 1-1.312-1.313V9.763a.5725.5725 0 1 0-1.145 0v7.379A2.46 2.46 0 0 0 2.457 19.6H8.4a.5725.5725 0 0 0 0-1.145"/><path d="M6.337 9.424H3.771a.5725.5725 0 0 0 0 1.145h2.566a.5725.5725 0 0 0 0-1.145"/><path d="M6.337 11.566H3.771a.5725.5725 0 1 0 0 1.145h2.566a.5725.5725 0 1 0 0-1.145"/><path d="M6.337 13.707H3.771a.5725.5725 0 1 0 0 1.145h2.566a.5725.5725 0 1 0 0-1.145"/><path d="M15.106 7.744a6.559 6.559 0 1 0 6.559 6.559 6.559 6.559 0 0 0-6.559-6.559m2.951 8.127a.571.571 0 0 1-.783.206l-2.741-1.6v-3.441a.5725.5725 0 0 1 1.145 0v2.787l2.172 1.266a.572.572 0 0 1 .206.783"/></symbol>
    <symbol xmlns="http://www.w3.org/2000/svg" viewBox="0 0 33.662 33.661" id="linkedin"><path d="M7.481 3.74a3.53 3.53 0 0 1-3.74 3.74A3.6 3.6 0 0 1 0 3.927 3.791 3.791 0 0 1 3.741 0a3.635 3.635 0 0 1 3.74 3.74"/><path d="M0 9.35h7.481v24.311H0z"/><path d="M25.437 9.724a8.19 8.19 0 0 0-7.106 3.74h-.194l-.374-3.179h-6.726c0 2.058.186 4.489.186 7.293v16.078h7.481V20.384a5.76 5.76 0 0 1 .187-1.87c.561-1.309 1.5-2.992 3.554-2.992 2.617 0 3.74 2.244 3.74 5.237v12.897h7.481V19.823c0-6.92-3.554-10.1-8.228-10.1"/></symbol>
    <symbol xmlns="http://www.w3.org/2000/svg" viewBox="0 0 34.367 34.067" id="instagram"><path d="M0 9.127a13.13 13.13 0 0 1 1.439-4.544C3.391 1.4 6.444.173 9.964.087q7.2-.177 14.408 0c3.259.079 6.16 1.153 8.144 3.978a10.537 10.537 0 0 1 1.784 6.054c.07 4.614.1 9.231 0 13.844-.085 3.715-1.376 6.885-4.855 8.774a10.984 10.984 0 0 1-5.165 1.272c-4.74.055-9.483.1-14.22-.007C6.5 33.92 3.414 32.72 1.439 29.5A13.13 13.13 0 0 1 0 24.955Zm17.2-5.788c-2.355 0-4.71-.045-7.064.01-3.677.086-5.938 1.809-6.607 4.975a10.245 10.245 0 0 0-.252 2.051c-.022 4.458-.081 8.918.01 13.374.091 4.434 2.333 6.806 6.611 6.964 4.831.177 9.67.162 14.5 0 3.563-.118 5.681-1.833 6.362-4.912A8.006 8.006 0 0 0 31 24.13c.027-5.083.3-10.171-.154-15.244a5.739 5.739 0 0 0-5.278-5.378 71.934 71.934 0 0 0-8.37-.168"/><path d="M26.052 17.099a8.9 8.9 0 1 1-8.847-8.9 8.926 8.926 0 0 1 8.847 8.9m-3.3-.044a5.6 5.6 0 1 0-5.616 5.533 5.6 5.6 0 0 0 5.616-5.533"/><path d="M26.294 5.875a2.156 2.156 0 0 1 2.173 2.127 2.164 2.164 0 0 1-4.326.019 2.139 2.139 0 0 1 2.153-2.146"/></symbol>
    <symbol xmlns="http://www.w3.org/2000/svg" viewBox="0 0 43.189 33.256" id="youtube"><path d="M29.113 16.433a1.248 1.248 0 0 1 .018.3.485.485 0 0 0-.018-.3"/><path d="M21.595 0C.372 0 0 1.888 0 16.628s.372 16.628 21.595 16.628 21.594-1.887 21.594-16.628S42.818 0 21.595 0m6.881 17.715-9.745 4.71a1.179 1.179 0 0 1-1.693-1.062v-9.205a1.18 1.18 0 0 1 1.673-1.072l9.744 4.5a1.151 1.151 0 0 1 .656.851.492.492 0 0 1 .019.3 1.155 1.155 0 0 1-.654.981"/></symbol>
    <symbol xmlns="http://www.w3.org/2000/svg" viewBox="0 0 36.286 36.286" id="twitter_x"><path d="M18.143 0a18.143 18.143 0 1 0 18.143 18.143A18.143 18.143 0 0 0 18.143 0m4.547 28.654L16.517 20.4l-7.64 8.254H6.912l8.727-9.427L6.967 7.631h6.684l5.685 7.6 7.036-7.6h1.964l-8.123 8.775 9.16 12.247Z"/><path d="m9.855 9.078 13.559 18.129h3.07L12.925 9.078Z"/></symbol>
    <symbol xmlns="http://www.w3.org/2000/svg" viewBox="0 0 19.129 36.657" id="facebook"><path d="M16.1 6.589h3.024V0h-4.551C8.118 0 5.055 3.842 5.055 9.311v5.181H0v6.255h5.055v15.91h7.582v-15.91h5.054l1.436-6.252h-6.49v-4.272A3.339 3.339 0 0 1 16.1 6.589"/></symbol>
    <symbol xmlns="http://www.w3.org/2000/svg" viewBox="0 0 12.398 18.622" id="contact_map"><path d="M6.2 0A6.2 6.2 0 0 0 0 6.2a7.7 7.7 0 0 0 1.268 4.11l4.973 8.312 5-8.553A7.554 7.554 0 0 0 12.4 6.2 6.2 6.2 0 0 0 6.2 0m0 9.116A2.917 2.917 0 1 1 9.116 6.2 2.917 2.917 0 0 1 6.2 9.116"/></symbol>
    <symbol xmlns="http://www.w3.org/2000/svg" viewBox="0 0 17.138 17.131" id="contact_phone"><g><g><g><path d="M14.93150869 14.10626247a.707.707 0 0 1-.33112387.56622167l-2.41001152 1.61277942a1.158 1.158 0 0 1-.40749506.18871348 1.5 1.5 0 0 1-.45942004.05229941l-.0928178-.00989222q-.07711176-.00683927-.1978519-.03030878a7.129 7.129 0 0 1-.91542819-.27981288 7.228 7.228 0 0 1-1.48403364-.79782527 13.518 13.518 0 0 1-1.8951601-1.5704675 16.093 16.093 0 0 1-2.10831714-2.61737442 16.968 16.968 0 0 1-1.37710615-2.34892053 14.562 14.562 0 0 1-.78050694-1.98540523A9.709 9.709 0 0 1 2.12039217 5.289803a7.983 7.983 0 0 1-.0623794-1.19893028 3.835 3.835 0 0 1 .08333554-.7641382q.06894175-.27082104.0738752-.30144229a1.505 1.505 0 0 1 .22059295-.40637513 1.159 1.159 0 0 1 .3303765-.30557548L5.18004823.6860286a.681.681 0 0 1 .527311-.11856265.577.577 0 0 1 .32732544.18179676 1.075 1.075 0 0 1 .2039782.32896488L7.264334 4.48044315a.753.753 0 0 1-.02783319.54673423.965.965 0 0 1-.35357244.44063083l-.89266072.593578a.258.258 0 0 0-.07208876.08785904.38.38 0 0 0-.04471127.10948014 2.8 2.8 0 0 0 .1321029.7825847 6.813 6.813 0 0 0 .38979023.99770616 10.042 10.042 0 0 0 .84509484 1.41729133 10.25 10.25 0 0 0 1.00580134 1.32424608 7.149 7.149 0 0 0 .77770338.7420259 2.407 2.407 0 0 0 .50402513.3261651l.1820125.0751096a.368.368 0 0 0 .10255132-.00349652.257.257 0 0 0 .1084664-.03392697l1.03752328-.71517093a.948.948 0 0 1 .6853783-.1194177.808.808 0 0 1 .39257492.17104949l.01472441.00286213 2.59553333 2.30153683a.778.778 0 0 1 .28238632.57545457"/></g></g></g></symbol>
    <symbol xmlns="http://www.w3.org/2000/svg" viewBox="0 0 16.334 11.667" id="contact_mail"><g><path d="m8.167 8.167-2.02-1.769-5.778 4.953a1.182 1.182 0 0 0 .806.316h13.984a1.174 1.174 0 0 0 .8-.316l-5.774-4.953Z"/><path d="M15.965.316A1.175 1.175 0 0 0 15.159 0H1.175a1.17 1.17 0 0 0-.8.318L8.167 7Z"/><path d="M0 1.024v9.693l5.639-4.792Z"/><path d="m10.695 5.926 5.639 4.792v-9.7Z"/></g></symbol>
    <symbol xmlns="http://www.w3.org/2000/svg" viewBox="0 0 15.949 15.67" id="contact_fax"><path d="M4.913 11h6.031v.78H4.913z"/><path d="m4.909 13.679.0072287-.7799665 6.030741.05589269-.0072287.7799665z"/><g><g><path d="M15.429 4.988h-2.048V.52a.52.52 0 0 0-.52-.52H2.809a.52.52 0 0 0-.52.52v4.468H.52a.52.52 0 0 0-.52.52v7.427a.52.52 0 0 0 .52.52h1.769v1.7a.52.52 0 0 0 .52.52h10.052a.52.52 0 0 0 .52-.52v-1.7h2.049a.52.52 0 0 0 .52-.52V5.508a.52.52 0 0 0-.52-.52M3.33 1.04h9.01v3.948H3.33Zm9.011 13.59H3.33v-1.691l.023-2.909h8.98l.008 2.906Zm.21-6.8h-1.6V6.788h1.6Z"/></g></g></symbol>
    <symbol xmlns="http://www.w3.org/2000/svg" viewBox="0 0 15.013 15.013" id="contact_hour"><path d="M7.507 0a7.507 7.507 0 1 0 7.507 7.507A7.515 7.515 0 0 0 7.507 0m.476 14.042v-1.176a.476.476 0 1 0-.952 0v1.176a6.562 6.562 0 0 1-6.06-6.059h1.177a.476.476 0 1 0 0-.952H.971a6.562 6.562 0 0 1 6.06-6.06v1.177a.476.476 0 1 0 .952 0V.971a6.562 6.562 0 0 1 6.059 6.059h-1.176a.476.476 0 1 0 0 .952h1.176a6.562 6.562 0 0 1-6.059 6.059"/><path d="M11.104 7.03H7.983V4.697a.476.476 0 1 0-.952 0v2.809a.476.476 0 0 0 .476.476h3.6a.476.476 0 1 0 0-.952"/></symbol>
    <svg xmlns="http://www.w3.org/2000/svg" viewBox="0 0 18 37"><text font-family="Montserrat-SemiBold, Montserrat" font-size="30" font-weight="600" transform="translate(0 29)"><tspan x="0" y="0">+</tspan></text></svg>
    <symbol xmlns="http://www.w3.org/2000/svg" viewBox="0 0 14.278 18.049" id="agency_map"><path stroke="rgba(0,0,0,0)" stroke-miterlimit="10" d="M1.504 17.549a1 1 0 0 1-.98-1.213l.859-4.01a1 1 0 0 1 .981-.793h.21a16.468 16.468 0 0 0 3.457 3.371 1.866 1.866 0 0 0 2.242-.042 17.772 17.772 0 0 0 3.331-3.329h.284a1 1 0 0 1 .979.787l.885 4.01a1 1 0 0 1-.979 1.218Zm5.238-3.632c-1.185-.859-4.65-3.669-4.978-7.438A5.558 5.558 0 0 1 6.55.536a5.4 5.4 0 0 1 5.994 5.368c0 3.769-3.786 7.033-5.019 8a.648.648 0 0 1-.78.014ZM4.998 5.904a2.144 2.144 0 1 0 2.143-2.142 2.144 2.144 0 0 0-2.143 2.142Z"/></symbol>
    <symbol xmlns="http://www.w3.org/2000/svg" viewBox="0 0 16.015 16.025" id="agency_phone"><path stroke="rgba(0,0,0,0)" stroke-miterlimit="10" d="M12.369 15.523a12.848 12.848 0 0 1-7.922-3.943A12.855 12.855 0 0 1 .501 3.657 4.029 4.029 0 0 1 2.844.647c.883-.3 1.482-.206 1.9.608L5.78 3.169c.25.466.069.829-.483 1.23-1.213.882-1.453 1.309-.848 2.392a11.668 11.668 0 0 0 2.138 2.637 11.651 11.651 0 0 0 2.639 2.139c1.081.6 1.509.364 2.39-.849.4-.552.764-.734 1.229-.483l1.915 1.032c.814.422.907 1.02.607 1.9a4.1 4.1 0 0 1-2.936 2.354Zm2.087-7.794a.731.731 0 0 1-.728-.734 4.668 4.668 0 0 0-4.669-4.686h-.02a.731.731 0 0 1 0-1.461A6.13 6.13 0 0 1 15.192 7a.731.731 0 0 1-.731.729Zm-3.051 0a.731.731 0 0 1-.724-.738 1.619 1.619 0 0 0-1.622-1.635h-.02a.73250614.73250614 0 0 1-.006-1.465 3.133 3.133 0 0 1 2.207.9 3.065 3.065 0 0 1 .9 2.206.731.731 0 0 1-.731.725Z"/></symbol>
    <symbol xmlns="http://www.w3.org/2000/svg" viewBox="0 0 19 15.522" id="agency_fax"><path stroke="rgba(0,0,0,0)" stroke-miterlimit="10" d="M1.337 15.022a.837.837 0 0 1-.837-.837V3.221a.837.837 0 0 1 .837-.837h3.349a.837.837 0 0 1 .837.837v10.964a.837.837 0 0 1-.837.837Zm5.182-.422a1.863 1.863 0 0 0 .051-.419V3.639h1.465V1.755A1.257 1.257 0 0 1 9.291.5h6.279a1.257 1.257 0 0 1 1.256 1.255v1.884A1.674 1.674 0 0 1 18.5 5.314v7.616a1.674 1.674 0 0 1-1.674 1.67Zm7.8-2.435a.628.628 0 0 0 .628.628h.837a.628.628 0 0 0 0-1.256h-.837a.628.628 0 0 0-.633.631Zm-2.93 0a.628.628 0 0 0 .628.628h.837a.628.628 0 1 0 0-1.256h-.837a.628.628 0 0 0-.633.631Zm-2.93 0a.628.628 0 0 0 .628.628h.838a.628.628 0 0 0 0-1.256h-.844a.628.628 0 0 0-.628.631Zm5.861-2.093a.628.628 0 0 0 .628.628h.837a.628.628 0 0 0 0-1.256h-.837a.628.628 0 0 0-.634.632Zm-2.93 0a.628.628 0 0 0 .628.628h.837a.628.628 0 1 0 0-1.256h-.837a.628.628 0 0 0-.634.632Zm-2.93 0a.628.628 0 0 0 .628.628h.838a.628.628 0 0 0 0-1.256h-.845a.628.628 0 0 0-.628.632Zm.628-8.32v5.39a.21.21 0 0 0 .209.209h6.273a.21.21 0 0 0 .209-.209V1.755a.209.209 0 0 0-.209-.209H9.291a.209.209 0 0 0-.209.209Zm1.71 4.3a.5235.5235 0 1 1 0-1.047h1.675a.5235.5235 0 0 1 0 1.047Zm0-2.093a.5235.5235 0 1 1 0-1.047h3.342a.5235.5235 0 0 1 0 1.047Z"/></symbol>
    <symbol xmlns="http://www.w3.org/2000/svg" viewBox="0 0 17.251 11.991" id="agency_mail"><path d="M0 .573v10.606l5.876-5.334Z"/><path d="m9.699 6.112 7-6.1c-.014 0-.027-.008-.041-.008H.784L7.575 6.1a1.606 1.606 0 0 0 2.125.016"/><path d="M10.322 6.827a2.554 2.554 0 0 1-3.38-.025l-.359-.321-6.056 5.5a.577.577 0 0 0 .062.012h16.063l-6-5.449Z"/><path d="m11.368 5.915 5.883 5.34V.787Z"/></symbol>
</svg>